<?xml version="1.0" encoding="UTF-8"?>
<svg width="50px" height="50px" viewBox="0 0 50 50" version="1.1" xmlns="http://www.w3.org/2000/svg" xmlns:xlink="http://www.w3.org/1999/xlink">
    <!-- Generator: Sketch 62 (91390) - https://sketch.com -->
    <title>adobe</title>
    <desc>Created with Sketch.</desc>
    <g id="Page-1" stroke="none" stroke-width="1" fill="none" fill-rule="evenodd">
        <g id="landing-page" transform="translate(-442.000000, -2668.000000)" fill-rule="nonzero">
            <g id="apps" transform="translate(-90.000000, 2282.000000)">
                <g id="TOOLS" transform="translate(313.000000, 207.000000)">
                    <g id="adobe" transform="translate(0.000000, 179.000000)">
                        <g transform="translate(219.000000, 0.000000)">
                            <circle id="Oval" fill="#592B49" cx="25" cy="25" r="25"></circle>
                            <path d="M49.9512346,22.6474761 L42.2366486,14.2857143 L38.7747416,14.2857143 L38.7747416,21.3367145 C37.7069014,20.0192032 36.4418068,19.3604 34.9798964,19.3604 C34.5967019,19.3604 34.2298209,19.3975706 33.8785519,19.4698203 L29.0956806,14.2857143 L24.8696648,14.2857143 L22.1487993,19.1087619 L17.6990415,14.2857143 L13.4361885,14.2857143 L19.0296536,23.6470887 L12.8571429,33.863006 L26.398233,48.5399619 C26.7787963,48.5607812 27.1617278,48.5714286 27.5469396,48.5714286 C39.94748,48.5714286 50,37.6754135 50,24.2346879 C50,23.7011809 49.9823708,23.1723322 49.9512346,22.6474761 Z" id="Path" fill="#291221"></path>
                            <g id="Group" transform="translate(8.571429, 11.428571)" fill="#DA2286">
                                <polygon id="Path" points="0.100357851 25.9571267 4.91378888 12.4677769 0.551969672 0.106786524 3.87616917 0.106786524 6.70088039 8.41188378 9.46786627 0.106786524 12.7633399 0.106786524 8.38216492 12.6615901 13.1955959 25.9570011 9.76565786 25.9570011 6.64315506 17.0168643 3.51100856 25.9570011"></polygon>
                                <path d="M30.2194055,25.5407913 L25.275351,25.5407913 L25.275351,22.8343024 C24.4544209,23.8868121 23.485432,24.6704514 22.3678452,25.1849733 C21.2502583,25.6994952 20.1232323,25.9571267 18.9867672,25.9571267 C16.675946,25.9571267 14.6964364,25.1043245 13.0483733,23.3981028 C11.400445,21.6921281 10.5765483,19.3124335 10.5765483,16.2590191 C10.5765483,13.1360713 11.3784655,10.762305 12.9820301,9.13722602 C14.5857295,7.51239408 16.6124345,6.69960759 19.0625496,6.69960759 C21.3099941,6.69960759 23.2548488,7.55574434 24.896844,9.2671533 L24.896844,0.106786524 L30.2194055,0.106786524 L30.2194055,25.5407913 L30.2194055,25.5407913 Z M14.5051198,15.8924559 C14.5051198,18.0475095 14.89784,19.606614 15.6838161,20.5696342 C16.8203844,21.9642876 18.4084024,22.6612083 20.4480487,22.6612083 C22.069448,22.6612083 23.4486102,22.1383486 24.5855355,21.0926292 C25.7221037,20.0469098 26.290834,18.4848276 26.290834,16.4058411 C26.290834,14.086201 25.739062,12.4163796 24.6358751,11.3958355 C23.5325096,10.3756974 22.1197876,9.86528993 20.3980662,9.86528993 C18.7261488,9.86528993 17.326458,10.3692005 16.1979227,11.3768864 C15.0693874,12.3845722 14.5051198,13.8899425 14.5051198,15.8924559 Z" id="Shape"></path>
                            </g>
                        </g>
                    </g>
                </g>
            </g>
        </g>
    </g>
</svg>