<?xml version="1.0" encoding="UTF-8"?>
<svg width="467px" height="230px" viewBox="0 0 467 230" version="1.1" xmlns="http://www.w3.org/2000/svg" xmlns:xlink="http://www.w3.org/1999/xlink">
    <!-- Generator: Sketch 62 (91390) - https://sketch.com -->
    <title>image_essential</title>
    <desc>Created with Sketch.</desc>
    <defs>
        <path d="M8.12352567,39.5043287 C10.6293705,40.9285191 12.3836339,24.7280611 12.3836339,24.7280611 C12.3836339,24.7280611 12.7482455,1.78199192 9.15888504,0.571780871 C5.57124442,-0.638430175 2.24502344,7.3852106 0.28265625,25.3992313 L9.03505469,25.684537 L8.12352567,39.5043287" id="path-1"></path>
        <path d="M0.524501089,0.211429565 C1.33050109,7.23581217 4.0277037,51.3341843 12.0736558,52.213273 C18.1089978,52.8734817 23.9634728,53.2018017 29.4088017,53.3148104 L32.6573856,53.3207583 C38.2010501,53.214887 44.1749325,52.886567 50.3402179,52.213273 C58.3861699,51.3341843 61.0833725,7.23581217 61.8893725,0.211429565 C50.2278344,4.97801739 1.80813072,3.0318887 0.524501089,0.211429565" id="path-3"></path>
    </defs>
    <g id="Page-1" stroke="none" stroke-width="1" fill="none" fill-rule="evenodd">
        <g id="landing-page" transform="translate(-454.000000, -1219.000000)">
            <g id="image_essential" transform="translate(454.000000, 1219.000000)">
                <g id="laptop" transform="translate(127.000000, 0.000000)">
                    <g id="Group-11">
                        <g id="laptop" transform="translate(0.410634, 0.000000)">
                            <path d="M255.699487,229.507645 L5.99792798,229.507645 C3.22464243,229.507645 0.297802475,227.958731 0,223.447295 L0,219.301825 L27.3326834,163.356666 C28.8019199,160.079722 31.8206598,158.005054 35.124406,158.005054 L226.208899,158.005054 C229.774386,158.005054 237.637069,165.784414 239.231941,169.317793 L261.780753,220.237358 L261.780753,222.065901 C261.835847,227.368546 258.741493,229.507645 255.699487,229.507645" id="Fill-8" fill="#413C80"></path>
                            <path d="M255.722354,223.787437 L5.9977531,223.787437 C3.22537504,223.787437 -1.33979975,221.094235 0.37504929,217.782498 L27.3344773,157.636459 C28.8038493,154.358226 31.8228678,152.284847 35.1269188,152.284847 L226.229044,152.284847 C229.796023,152.284847 233.055865,154.518014 234.649721,158.050104 L261.33575,217.200045 C263.206495,220.971817 258.763477,223.787437 255.722354,223.787437" id="Fill-9" fill="#8771A5"></path>
                            <path d="M221.270665,145.134588 L37.8791255,145.134588 C32.2162149,145.134588 27.6251046,139.987889 27.6251046,133.638388 L27.6251046,12.1929536 C27.6251046,5.84605265 32.2162149,0.699354414 37.8791255,0.699354414 L221.270665,0.699354414 C226.933576,0.699354414 231.524686,5.84605265 231.524686,12.1929536 L231.524686,133.638388 C231.524686,139.987889 226.933576,145.134588 221.270665,145.134588" id="Fill-10" fill="#413C80"></path>
                            <polygon id="Fill-11" fill="#FFFFFE" points="35.5179916 135.124225 223.631799 135.124225 223.631799 9.2796653 35.5179916 9.2796653"></polygon>
                            <path d="M45.7998737,165.155313 L37.3570911,165.155313 C36.1798009,165.155313 35.3678766,164.798898 35.5413331,164.363419 L36.0555519,163.073298 C36.2277782,162.644094 37.310344,162.295209 38.4741021,162.295209 L46.8184696,162.295209 C47.9822278,162.295209 48.8052238,162.644094 48.6551408,163.073298 L48.2073523,164.363419 C48.0548089,164.798898 46.9771639,165.155313 45.7998737,165.155313" id="Fill-12" fill="#413C80"></path>
                            <path d="M60.3766492,165.155313 L51.8794133,165.155313 C50.6943572,165.155313 49.8547877,164.798898 50.0058607,164.363419 L50.4479349,163.073298 C50.5965313,162.644094 51.6651869,162.295209 52.8378599,162.295209 L61.2372699,162.295209 C62.4087046,162.295209 63.2569423,162.644094 63.1306353,163.073298 L62.7541912,164.363419 C62.626646,164.798898 61.5617053,165.155313 60.3766492,165.155313" id="Fill-13" fill="#413C80"></path>
                            <path d="M72.5906216,165.155313 L64.8926304,165.155313 C63.8191964,165.155313 63.0407605,164.798898 63.1540487,164.363419 L63.4871834,163.073298 C63.59935,162.644094 64.5494008,162.295209 65.6104964,162.295209 L73.2187543,162.295209 C74.27985,162.295209 75.0661376,162.644094 74.9752827,163.073298 L74.7015963,164.363419 C74.6096197,164.798898 73.6640556,165.155313 72.5906216,165.155313" id="Fill-14" fill="#413C80"></path>
                            <path d="M85.8438022,165.155313 L78.0963657,165.155313 C77.0160369,165.155313 76.214539,164.798898 76.3048486,164.363419 L76.5723909,163.073298 C76.6615716,162.644094 77.5996628,162.295209 78.6664452,162.295209 L86.3247009,162.295209 C87.3926121,162.295209 88.2020121,162.644094 88.133151,163.073298 L87.9265678,164.363419 C87.8565778,164.798898 86.924131,165.155313 85.8438022,165.155313" id="Fill-15" fill="#413C80"></path>
                            <path d="M100.412297,165.155313 L92.617925,165.155313 C91.5308929,165.155313 90.7039761,164.798898 90.7721286,164.363419 L90.9731784,163.073298 C91.040195,162.644094 91.964797,162.295209 93.0393345,162.295209 L100.743973,162.295209 C101.81851,162.295209 102.652242,162.644094 102.605672,163.073298 L102.467095,164.363419 C102.419388,164.798898 101.49933,165.155313 100.412297,165.155313" id="Fill-16" fill="#413C80"></path>
                            <path d="M113.666904,165.155313 L105.82314,165.155313 C104.729379,165.155313 103.879057,164.798898 103.924773,164.363419 L104.05735,163.073298 C104.101923,162.644094 105.013962,162.295209 106.095152,162.295209 L113.847483,162.295209 C114.928673,162.295209 115.785852,162.644094 115.761851,163.073298 L115.690991,164.363419 C115.66699,164.798898 114.760665,165.155313 113.666904,165.155313" id="Fill-17" fill="#413C80"></path>
                            <path d="M126.922339,165.155313 L119.031609,165.155313 C117.931298,165.155313 117.057489,164.798898 117.078184,164.363419 L117.14257,163.073298 C117.163266,162.644094 118.06352,162.295209 119.150033,162.295209 L126.949933,162.295209 C128.036446,162.295209 128.918303,162.644094 128.917155,163.073298 L128.914854,164.363419 C128.914854,164.798898 128.022649,165.155313 126.922339,165.155313" id="Fill-18" fill="#413C80"></path>
                            <path d="M140.120981,165.155313 L132.232607,165.155313 C131.132625,165.155313 130.239537,164.798898 130.238388,164.363419 L130.232636,163.073298 C130.230342,162.644094 131.109637,162.295209 132.198125,162.295209 L139.994546,162.295209 C141.081884,162.295209 141.98072,162.644094 142.003708,163.073298 L142.071523,164.363419 C142.094511,164.798898 141.220963,165.155313 140.120981,165.155313" id="Fill-19" fill="#413C80"></path>
                            <path d="M153.328533,165.155313 L145.487829,165.155313 C144.394494,165.155313 143.487381,164.798898 143.462247,164.363419 L143.387987,163.073298 C143.362853,162.644094 144.219698,162.295209 145.299323,162.295209 L153.04863,162.295209 C154.13054,162.295209 155.043365,162.644094 155.089064,163.073298 L155.225016,164.363419 C155.270715,164.798898 154.421867,165.155313 153.328533,165.155313" id="Fill-20" fill="#413C80"></path>
                            <path d="M167.851288,165.155313 L160.058093,165.155313 C158.970248,165.155313 158.050462,164.798898 158.00277,164.363419 L157.859692,163.073298 C157.811999,162.644094 158.644348,162.295209 159.718567,162.295209 L167.420919,162.295209 C168.495137,162.295209 169.421736,162.644094 169.488733,163.073298 L169.69313,164.363419 C169.761262,164.798898 168.937997,165.155313 167.851288,165.155313" id="Fill-21" fill="#413C80"></path>
                            <path d="M181.055781,165.155313 L173.311341,165.155313 C172.231273,165.155313 171.297922,164.798898 171.225692,164.363419 L171.016901,163.073298 C170.9458,162.644094 171.755004,162.295209 172.82153,162.295209 L180.47681,162.295209 C181.545593,162.295209 182.484586,162.644094 182.574874,163.073298 L182.844609,164.363419 C182.937154,164.798898 182.135849,165.155313 181.055781,165.155313" id="Fill-22" fill="#413C80"></path>
                            <path d="M194.25863,165.155313 L186.564197,165.155313 C185.491103,165.155313 184.544717,164.798898 184.451648,164.363419 L184.174684,163.073298 C184.082737,162.644094 184.867654,162.295209 185.929535,162.295209 L193.535385,162.295209 C194.595023,162.295209 195.545895,162.644094 195.658026,163.073298 L195.99554,164.363419 C196.109914,164.798898 195.331724,165.155313 194.25863,165.155313" id="Fill-23" fill="#413C80"></path>
                            <path d="M208.588816,165.155313 L200.092792,165.155313 C198.908078,165.155313 197.843444,164.798898 197.714698,164.363419 L197.334649,163.073298 C197.208378,162.644094 198.055133,162.295209 199.22623,162.295209 L207.623218,162.295209 C208.794315,162.295209 209.8639,162.644094 210.013691,163.073298 L210.459352,164.363419 C210.610381,164.798898 209.774768,165.155313 208.588816,165.155313" id="Fill-24" fill="#413C80"></path>
                            <path d="M221.795189,165.155313 L213.355355,165.155313 C212.178476,165.155313 211.099978,164.798898 210.946258,164.363419 L210.494936,163.073298 C210.343676,162.644094 211.165155,162.295209 212.328507,162.295209 L220.671189,162.295209 C221.833311,162.295209 222.916728,162.644094 223.088895,163.073298 L223.607853,164.363419 C223.783708,164.798898 222.972068,165.155313 221.795189,165.155313" id="Fill-25" fill="#413C80"></path>
                            <path d="M45.3936046,169.445468 L34.6201997,169.445468 C34.3520332,169.445468 34.167515,169.364429 34.208109,169.264972 L35.8060369,165.330897 C35.8454008,165.235124 36.090195,165.155313 36.3534411,165.155313 L46.9386374,165.155313 C47.2031135,165.155313 47.3876317,165.235124 47.3531883,165.330897 L45.943469,169.264972 C45.9077955,169.364429 45.6617711,169.445468 45.3936046,169.445468" id="Fill-26" fill="#413C80"></path>
                            <path d="M64.102963,175.165676 L53.0601727,175.165676 C52.7847513,175.165676 52.5896098,175.084329 52.6229567,174.985298 L53.9383098,171.048824 C53.9704217,170.95333 54.2149662,170.87552 54.4854473,170.87552 L65.3318609,170.87552 C65.602342,170.87552 65.7987186,170.95333 65.771547,171.048824 L64.6525706,174.985298 C64.6241639,175.084329 64.3783843,175.165676 64.102963,175.165676" id="Fill-27" fill="#413C80"></path>
                            <path d="M66.7624972,180.885883 L55.6927686,180.885883 C55.4176314,180.885883 55.2200659,180.804489 55.2540035,180.705007 L56.5460577,176.769821 C56.5775712,176.6726 56.822407,176.595727 57.092696,176.595727 L67.9612228,176.595727 C68.2315119,176.595727 68.4302894,176.6726 68.4024121,176.769821 L67.3115596,180.705007 C67.2836823,180.804489 67.0376344,180.885883 66.7624972,180.885883" id="Fill-28" fill="#413C80"></path>
                            <path d="M72.1212532,186.60609 L60.9634498,186.60609 C60.6860591,186.60609 60.4851899,186.499224 60.5150812,186.36492 L61.7179048,181.116944 C61.7466004,180.988416 61.9917086,180.885883 62.2643167,180.885883 L73.2152727,180.885883 C73.4878808,180.885883 73.6899457,180.988416 73.664837,181.116944 L72.6700564,186.36492 C72.6449478,186.499224 72.3986439,186.60609 72.1212532,186.60609" id="Fill-29" fill="#413C80"></path>
                            <path d="M37.1880206,193.756349 L26.737399,193.756349 C26.4594044,193.756349 26.270412,193.629485 26.3165613,193.473579 L28.2372517,186.879689 C28.2823022,186.728369 28.5372222,186.60609 28.8097229,186.60609 L39.0372895,186.60609 C39.3086914,186.60609 39.4987826,186.728369 39.459226,186.879689 L37.7637882,193.473579 C37.7231329,193.629485 37.4649165,193.756349 37.1880206,193.756349" id="Fill-30" fill="#413C80"></path>
                            <path d="M53.2191735,193.756349 L42.5426571,193.756349 C42.2586535,193.756349 42.0610857,193.629485 42.1003747,193.473579 L43.7830683,186.879689 C43.8212348,186.728369 44.0771748,186.60609 44.3555657,186.60609 L54.8042057,186.60609 C55.081474,186.60609 55.2801643,186.728369 55.246488,186.879689 L53.7950386,193.473579 C53.7613622,193.629485 53.5031771,193.756349 53.2191735,193.756349" id="Fill-31" fill="#413C80"></path>
                            <path d="M66.6219799,193.756349 L55.7171427,193.756349 C55.4270655,193.756349 55.2195399,193.629485 55.2539364,193.473579 L56.6928567,186.879689 C56.7261067,186.728369 56.9829339,186.60609 57.2672783,186.60609 L67.9382193,186.60609 C68.2225637,186.60609 68.4300893,186.728369 68.4025721,186.879689 L67.1986945,193.473579 C67.1700308,193.629485 66.9109105,193.756349 66.6219799,193.756349" id="Fill-32" fill="#413C80"></path>
                            <path d="M84.0783688,193.756349 L70.2446631,193.756349 C69.9260767,193.756349 69.6923732,193.611143 69.7232397,193.43231 L70.8245125,186.91943 C70.8531742,186.745182 71.128768,186.60609 71.4407402,186.60609 L84.9801117,186.60609 C85.2920838,186.60609 85.5268898,186.745182 85.5048422,186.91943 L84.6956989,193.43231 C84.6736514,193.611143 84.3980576,193.756349 84.0783688,193.756349" id="Fill-33" fill="#413C80"></path>
                            <path d="M174.413937,193.756349 L160.350552,193.756349 C160.027822,193.756349 159.752158,193.611143 159.736469,193.43231 L159.173934,186.91943 C159.158246,186.745182 159.403655,186.60609 159.719661,186.60609 L173.482728,186.60609 C173.798734,186.60609 174.074398,186.745182 174.09681,186.91943 L174.957422,193.43231 C174.980955,193.611143 174.737787,193.756349 174.413937,193.756349" id="Fill-34" fill="#413C80"></path>
                            <path d="M190.256341,193.756349 L179.147246,193.756349 C178.849882,193.756349 178.589244,193.629485 178.566735,193.475108 L177.591712,186.876632 C177.568018,186.728369 177.787191,186.60609 178.078631,186.60609 L188.949598,186.60609 C189.241039,186.60609 189.498122,186.728369 189.526556,186.876632 L190.742076,193.475108 C190.771694,193.629485 190.553706,193.756349 190.256341,193.756349" id="Fill-35" fill="#413C80"></path>
                            <path d="M156.636001,193.756349 L89.3326565,193.756349 C88.6271732,193.756349 88.09254,193.450652 88.1401921,193.074644 L88.8607846,187.261811 C88.9061122,186.89956 89.5023444,186.60609 90.1927186,186.60609 L156.058364,186.60609 C156.749901,186.60609 157.33451,186.89956 157.364729,187.261811 L157.856359,193.074644 C157.888902,193.450652 157.342646,193.756349 156.636001,193.756349" id="Fill-36" fill="#413C80"></path>
                            <path d="M86.8248745,186.60609 L75.4525007,186.60609 C75.1685569,186.60609 74.9589504,186.499224 74.9845419,186.36492 L75.9582374,181.116944 C75.9826102,180.988416 76.2263388,180.885883 76.5041893,180.885883 L87.665738,180.885883 C87.9435886,180.885883 88.1544138,180.988416 88.1361341,181.116944 L87.3720451,186.36492 C87.3537655,186.499224 87.1075997,186.60609 86.8248745,186.60609" id="Fill-37" fill="#413C80"></path>
                            <path d="M100.328776,186.60609 L89.8931924,186.60609 C89.6337565,186.60609 89.4369431,186.499224 89.453717,186.36492 L90.116844,181.116944 C90.1336179,180.988416 90.3527964,180.885883 90.6077593,180.885883 L100.851003,180.885883 C101.105966,180.885883 101.302779,180.988416 101.291596,181.116944 L100.821928,186.36492 C100.809627,186.499224 100.58933,186.60609 100.328776,186.60609" id="Fill-38" fill="#413C80"></path>
                            <path d="M115.026582,186.60609 L104.383102,186.60609 C104.117357,186.60609 103.91206,186.499224 103.923466,186.36492 L104.364853,181.116944 C104.375118,180.988416 104.595241,180.885883 104.855283,180.885883 L115.302591,180.885883 C115.562633,180.885883 115.76793,180.988416 115.762343,181.116944 L115.518152,186.36492 C115.511309,186.499224 115.291186,186.60609 115.026582,186.60609" id="Fill-39" fill="#413C80"></path>
                            <path d="M128.417939,186.60609 L117.557373,186.60609 C117.287401,186.60609 117.072121,186.499224 117.077824,186.36492 L117.288564,181.116944 C117.293219,180.988416 117.513153,180.885883 117.778471,180.885883 L128.436558,180.885883 C128.703039,180.885883 128.917155,180.988416 128.917155,181.116944 L128.907845,186.36492 C128.906682,186.499224 128.687911,186.60609 128.417939,186.60609" id="Fill-40" fill="#413C80"></path>
                            <path d="M141.593217,186.60609 L130.75193,186.60609 C130.482408,186.60609 130.262841,186.499224 130.261679,186.36492 L130.232636,181.116944 C130.232636,180.988416 130.446395,180.885883 130.71127,180.885883 L141.351577,180.885883 C141.617614,180.885883 141.836019,180.988416 141.841828,181.116944 L142.071967,186.36492 C142.07766,186.499224 141.863901,186.60609 141.593217,186.60609" id="Fill-41" fill="#413C80"></path>
                            <path d="M156.083048,186.60609 L145.457962,186.60609 C145.193815,186.60609 144.972934,186.499224 144.967241,186.36492 L144.703094,181.116944 C144.696263,180.988416 144.902343,180.885883 145.161935,180.885883 L155.591188,180.885883 C155.849642,180.885883 156.070524,180.988416 156.080771,181.116944 L156.541889,186.36492 C156.552136,186.499224 156.348333,186.60609 156.083048,186.60609" id="Fill-42" fill="#413C80"></path>
                            <path d="M170.523782,186.60609 L158.947403,186.60609 C158.659607,186.60609 158.415227,186.499224 158.401582,186.36492 L157.858241,181.116944 C157.845836,180.988416 158.065405,180.885883 158.347,180.885883 L169.708771,180.885883 C169.992846,180.885883 170.235985,180.988416 170.255833,181.116944 L171.011299,186.36492 C171.031147,186.499224 170.812819,186.60609 170.523782,186.60609" id="Fill-43" fill="#413C80"></path>
                            <path d="M185.015895,186.60609 L173.660494,186.60609 C173.376974,186.60609 173.131176,186.499224 173.11049,186.36492 L172.329289,181.116944 C172.30982,180.988416 172.519113,180.885883 172.797766,180.885883 L183.94144,180.885883 C184.218876,180.885883 184.463457,180.988416 184.487794,181.116944 L185.480722,186.36492 C185.506275,186.499224 185.298199,186.60609 185.015895,186.60609" id="Fill-44" fill="#413C80"></path>
                            <path d="M202.102463,193.756349 L193.305397,193.756349 C192.186716,193.756349 191.190183,193.39957 191.078919,192.959464 L190.754804,191.680221 C190.64475,191.247157 191.452619,190.896246 192.557997,190.896246 L201.255894,190.896246 C202.361272,190.896246 203.363852,191.247157 203.496884,191.680221 L203.885097,192.959464 C204.018129,193.39957 203.219935,193.756349 202.102463,193.756349" id="Fill-45" fill="#413C80"></path>
                            <path d="M217.939372,193.756349 L209.200921,193.756349 C208.089541,193.756349 207.077885,193.39957 206.942116,192.959464 L206.545624,191.680221 C206.411057,191.247157 207.192027,190.896246 208.291392,190.896246 L216.933723,190.896246 C218.031887,190.896246 219.048349,191.247157 219.204543,191.680221 L219.664715,192.959464 C219.823312,193.39957 219.050752,193.756349 217.939372,193.756349" id="Fill-46" fill="#413C80"></path>
                            <path d="M216.620094,190.896246 L207.877268,190.896246 C206.766005,190.896246 205.755766,190.538883 205.620662,190.0997 L205.229955,188.819452 C205.096068,188.386285 205.879916,188.036142 206.979007,188.036142 L215.625678,188.036142 C216.724769,188.036142 217.741094,188.386285 217.894456,188.819452 L218.349672,190.0997 C218.506685,190.538883 217.731357,190.896246 216.620094,190.896246" id="Fill-47" fill="#413C80"></path>
                            <path d="M232.459726,193.756349 L223.780888,193.756349 C222.676938,193.756349 221.651757,193.39957 221.49064,192.959464 L221.02161,191.680221 C220.864073,191.247157 221.619533,190.896246 222.711549,190.896246 L231.294909,190.896246 C232.386925,190.896246 233.41688,191.247157 233.595899,191.680221 L234.128182,192.959464 C234.310781,193.39957 233.563676,193.756349 232.459726,193.756349" id="Fill-48" fill="#413C80"></path>
                            <path d="M80.1443504,180.885883 L68.8668369,180.885883 C68.5852696,180.885883 68.3802688,180.804489 68.4074375,180.705007 L69.4781345,176.769821 C69.5040683,176.6726 69.7485873,176.595727 70.0239799,176.595727 L81.0977276,176.595727 C81.3731202,176.595727 81.579356,176.6726 81.5583619,176.769821 L80.6926658,180.705007 C80.6704368,180.804489 80.4246828,180.885883 80.1443504,180.885883" id="Fill-49" fill="#413C80"></path>
                            <path d="M93.6525886,180.885883 L83.3072299,180.885883 C83.0500968,180.885883 82.8563975,180.804489 82.8767869,180.705007 L83.6323277,176.769821 C83.6515844,176.6726 83.8713369,176.595727 84.123939,176.595727 L94.281262,176.595727 C94.5338641,176.595727 94.7275635,176.6726 94.7139705,176.769821 L94.1453326,180.705007 C94.1306069,180.804489 93.9097217,180.885883 93.6525886,180.885883" id="Fill-50" fill="#413C80"></path>
                            <path d="M108.342821,180.885883 L97.7967812,180.885883 C97.5334767,180.885883 97.3313789,180.804489 97.3463919,180.705007 L97.8868591,176.769821 C97.9007172,176.6726 98.1189828,176.595727 98.377668,176.595727 L108.732004,176.595727 C108.990689,176.595727 109.192787,176.6726 109.184703,176.769821 L108.834785,180.705007 C108.825546,180.804489 108.606126,180.885883 108.342821,180.885883" id="Fill-51" fill="#413C80"></path>
                            <path d="M121.726142,180.885883 L110.971718,180.885883 C110.70321,180.885883 110.492409,180.804489 110.500652,180.705007 L110.819799,176.769821 C110.826865,176.6726 111.047088,176.595727 111.309707,176.595727 L121.869817,176.595727 C122.132436,176.595727 122.343238,176.6726 122.339749,176.769821 L122.217228,180.705007 C122.213695,180.804489 121.993472,180.885883 121.726142,180.885883" id="Fill-52" fill="#413C80"></path>
                            <path d="M135.010163,180.885883 L124.140818,180.885883 C123.870661,180.885883 123.652869,180.804489 123.65523,180.705007 L123.740938,176.769821 C123.742128,176.6726 123.95992,176.595727 124.225316,176.595727 L134.897102,176.595727 C135.162498,176.595727 135.38029,176.6726 135.38267,176.769821 L135.494561,180.705007 C135.496921,180.804489 135.28151,180.885883 135.010163,180.885883" id="Fill-53" fill="#413C80"></path>
                            <path d="M148.178822,180.885883 L137.441486,180.885883 C137.174581,180.885883 136.954708,180.804489 136.950005,180.705007 L136.810042,176.769821 C136.806558,176.6726 137.017025,176.595727 137.280402,176.595727 L147.823733,176.595727 C148.084759,176.595727 148.304632,176.6726 148.312862,176.769821 L148.649139,180.705007 C148.65737,180.804489 148.446903,180.885883 148.178822,180.885883" id="Fill-54" fill="#413C80"></path>
                            <path d="M162.670218,180.885883 L152.137597,180.885883 C151.874627,180.885883 151.654332,180.804489 151.645105,180.705007 L151.280639,176.769821 C151.271412,176.6726 151.473253,176.595727 151.729302,176.595727 L162.071616,176.595727 C162.329972,176.595727 162.549114,176.6726 162.562954,176.769821 L163.118881,180.705007 C163.133875,180.804489 162.932034,180.885883 162.670218,180.885883" id="Fill-55" fill="#413C80"></path>
                            <path d="M177.157592,180.885883 L166.825056,180.885883 C166.569373,180.885883 166.34763,180.804489 166.334054,180.705007 L165.751414,176.769821 C165.736706,176.6726 165.930165,176.595727 166.183586,176.595727 L176.327188,176.595727 C176.579477,176.595727 176.800088,176.6726 176.81819,176.769821 L177.588633,180.705007 C177.607866,180.804489 177.415538,180.885883 177.157592,180.885883" id="Fill-56" fill="#413C80"></path>
                            <path d="M190.284379,180.885883 L179.015479,180.885883 C178.735391,180.885883 178.491086,180.804489 178.467643,180.705007 L177.591598,176.769821 C177.569388,176.6726 177.775444,176.595727 178.05183,176.595727 L189.114674,176.595727 C189.39106,176.595727 189.635365,176.6726 189.661277,176.769821 L190.742143,180.705007 C190.770522,180.804489 190.5657,180.885883 190.284379,180.885883" id="Fill-57" fill="#413C80"></path>
                            <path d="M203.456313,180.885883 L192.393359,180.885883 C192.11839,180.885883 191.872493,180.804489 191.844633,180.705007 L190.74718,176.769821 C190.720531,176.6726 190.917975,176.595727 191.186888,176.595727 L202.048763,176.595727 C202.320098,176.595727 202.564784,176.6726 202.596278,176.769821 L203.896021,180.705007 C203.928727,180.804489 203.732493,180.885883 203.456313,180.885883" id="Fill-58" fill="#413C80"></path>
                            <path d="M199.503657,186.60609 L188.362078,186.60609 C188.083897,186.60609 187.837951,186.499224 187.812879,186.36492 L186.800443,181.116944 C186.775371,180.988416 186.975948,180.885883 187.249353,180.885883 L198.184385,180.885883 C198.456597,180.885883 198.701349,180.988416 198.731197,181.116944 L199.95018,186.36492 C199.980028,186.499224 199.780645,186.60609 199.503657,186.60609" id="Fill-59" fill="#413C80"></path>
                            <path d="M227.033531,180.885883 L207.145856,180.885883 C206.795129,180.885883 206.473723,180.775096 206.430869,180.638309 L205.219678,176.835388 C205.177951,176.701992 205.423798,176.595727 205.770014,176.595727 L225.295685,176.595727 C225.641901,176.595727 225.965562,176.701992 226.019693,176.835388 L227.570334,180.638309 C227.625594,180.775096 227.385385,180.885883 227.033531,180.885883" id="Fill-60" fill="#413C80"></path>
                            <path d="M229.561331,186.60609 L201.945422,186.60609 C201.524852,186.60609 201.144282,186.435683 201.096282,186.224839 L199.958,181.254137 C199.911143,181.04907 200.208285,180.885883 200.620855,180.885883 L227.724765,180.885883 C228.138478,180.885883 228.525905,181.04907 228.592191,181.254137 L230.199043,186.224839 C230.267614,186.435683 229.981901,186.60609 229.561331,186.60609" id="Fill-61" fill="#413C80"></path>
                            <path d="M51.9240635,180.885883 L30.8311803,180.885883 C30.4595934,180.885883 30.2063462,180.773966 30.2643327,180.637178 L31.877304,176.835388 C31.9341071,176.701992 32.2749257,176.595727 32.6394122,176.595727 L53.3488745,176.595727 C53.713361,176.595727 53.9737085,176.701992 53.9299228,176.835388 L52.6778879,180.637178 C52.6329188,180.773966 52.294467,180.885883 51.9240635,180.885883" id="Fill-62" fill="#413C80"></path>
                            <path d="M58.4732008,186.60609 L29.6134239,186.60609 C29.1778668,186.60609 28.8812172,186.434238 28.9506709,186.221951 L30.5951931,181.255581 C30.6634697,181.050514 31.0648885,180.885883 31.4933825,180.885883 L59.818719,180.885883 C60.247213,180.885883 60.5544573,181.050514 60.5073701,181.255581 L59.3525552,186.221951 C59.3031136,186.434238 58.9099351,186.60609 58.4732008,186.60609" id="Fill-63" fill="#413C80"></path>
                            <path d="M77.6244724,175.165676 L67.5038168,175.165676 C67.2513947,175.165676 67.0668888,175.084329 67.0917915,174.985298 L68.082237,171.048824 C68.1071396,170.95333 68.3267356,170.87552 68.5746299,170.87552 L78.5153074,170.87552 C78.7632018,170.87552 78.9477076,170.95333 78.9273328,171.048824 L78.1179973,174.985298 C78.0976224,175.084329 77.8757626,175.165676 77.6244724,175.165676" id="Fill-64" fill="#413C80"></path>
                            <path d="M90.9819216,175.165676 L80.6757256,175.165676 C80.4186471,175.165676 80.2261265,175.084329 80.2457244,174.985298 L81.0377106,171.048824 C81.0573085,170.95333 81.2774968,170.87552 81.5288112,170.87552 L91.6528619,170.87552 C91.9053291,170.87552 92.0978498,170.95333 92.0828631,171.048824 L91.4753279,174.985298 C91.4603412,175.084329 91.2390001,175.165676 90.9819216,175.165676" id="Fill-65" fill="#413C80"></path>
                            <path d="M105.665609,175.165676 L95.1628957,175.165676 C94.9009446,175.165676 94.7012509,175.084329 94.7153469,174.985298 L95.2979826,171.048824 C95.3132533,170.95333 95.5329164,170.87552 95.7889941,170.87552 L106.104935,170.87552 C106.362187,170.87552 106.563056,170.95333 106.553658,171.048824 L106.157795,174.985298 C106.147223,175.084329 105.92756,175.165676 105.665609,175.165676" id="Fill-66" fill="#413C80"></path>
                            <path d="M117.726259,175.165676 L107.020089,175.165676 C106.754261,175.165676 106.544711,175.084329 106.554291,174.985298 L106.920703,171.048824 C106.930282,170.95333 107.149411,170.87552 107.411646,170.87552 L117.927426,170.87552 C118.189662,170.87552 118.398014,170.95333 118.393305,171.048824 L118.218401,174.985298 C118.213611,175.084329 117.993285,175.165676 117.726259,175.165676" id="Fill-67" fill="#413C80"></path>
                            <path d="M132.375,175.165676 L121.508045,175.165676 C121.238225,175.165676 121.020667,175.084329 121.024268,174.985298 L121.166516,171.048824 C121.170162,170.95333 121.388935,170.87552 121.653894,170.87552 L132.327599,170.87552 C132.593773,170.87552 132.811331,170.95333 132.812546,171.048824 L132.863598,174.985298 C132.864809,175.084329 132.646035,175.165676 132.375,175.165676" id="Fill-68" fill="#413C80"></path>
                            <path d="M144.228362,175.165676 L133.435764,175.165676 C133.166583,175.165676 132.9481,175.084329 132.945686,174.985298 L132.863598,171.048824 C132.862396,170.95333 133.073637,170.87552 133.33799,170.87552 L143.938661,170.87552 C144.203014,170.87552 144.422704,170.95333 144.429947,171.048824 L144.702749,174.985298 C144.709992,175.084329 144.497544,175.165676 144.228362,175.165676" id="Fill-69" fill="#413C80"></path>
                            <path d="M158.717987,175.165676 L148.132129,175.165676 C147.868104,175.165676 147.64907,175.084329 147.640782,174.985298 L147.334134,171.048824 C147.325846,170.95333 147.530673,170.87552 147.788778,170.87552 L158.186385,170.87552 C158.445674,170.87552 158.664708,170.95333 158.677732,171.048824 L159.17263,174.985298 C159.185654,175.084329 158.982011,175.165676 158.717987,175.165676" id="Fill-70" fill="#413C80"></path>
                            <path d="M171.890281,175.165676 L161.503374,175.165676 C161.245473,175.165676 161.024747,175.084329 161.010806,174.985298 L160.489196,171.048824 C160.477579,170.95333 160.672747,170.87552 160.927163,170.87552 L171.128195,170.87552 C171.382611,170.87552 171.603337,170.95333 171.619601,171.048824 L172.327087,174.985298 C172.343351,175.084329 172.148182,175.165676 171.890281,175.165676" id="Fill-71" fill="#413C80"></path>
                            <path d="M185.062442,175.165676 L174.862033,175.165676 C174.608763,175.165676 174.386295,175.084329 174.369182,174.985298 L173.644738,171.048824 C173.626484,170.95333 173.814726,170.87552 174.063433,170.87552 L184.082445,170.87552 C184.332293,170.87552 184.552479,170.95333 184.575296,171.048824 L185.481137,174.985298 C185.502813,175.084329 185.315712,175.165676 185.062442,175.165676" id="Fill-72" fill="#413C80"></path>
                            <path d="M199.549389,175.165676 L189.537762,175.165676 C189.289179,175.165676 189.067469,175.084329 189.043955,174.985298 L188.115687,171.048824 C188.093292,170.95333 188.273571,170.87552 188.518795,170.87552 L198.352383,170.87552 C198.597607,170.87552 198.817077,170.95333 198.843951,171.048824 L199.950257,174.985298 C199.978251,175.084329 199.799092,175.165676 199.549389,175.165676" id="Fill-73" fill="#413C80"></path>
                            <path d="M212.675847,175.165676 L201.745789,175.165676 C201.473179,175.165676 201.227463,175.084329 201.196902,174.985298 L199.9561,171.048824 C199.926761,170.95333 200.118688,170.87552 200.385185,170.87552 L211.120872,170.87552 C211.387369,170.87552 211.634307,170.95333 211.668536,171.048824 L213.10371,174.985298 C213.139161,175.084329 212.948457,175.165676 212.675847,175.165676" id="Fill-74" fill="#413C80"></path>
                            <path d="M227.163004,175.165676 L216.425131,175.165676 C216.157314,175.165676 215.911115,175.084329 215.875086,174.985298 L214.427917,171.048824 C214.391888,170.95333 214.576838,170.87552 214.83985,170.87552 L225.386769,170.87552 C225.649781,170.87552 225.894779,170.95333 225.934411,171.048824 L227.572534,174.985298 C227.613367,175.084329 227.43082,175.165676 227.163004,175.165676" id="Fill-75" fill="#413C80"></path>
                            <path d="M58.9320123,169.445468 L49.0643847,169.445468 C48.8176095,169.445468 48.644078,169.364429 48.676756,169.264972 L49.9309149,165.330897 C49.9613393,165.235124 50.1821974,165.155313 50.4244653,165.155313 L60.1208152,165.155313 C60.3619563,165.155313 60.5354877,165.235124 60.5095707,165.330897 L59.4266896,169.264972 C59.3985189,169.364429 59.1776607,169.445468 58.9320123,169.445468" id="Fill-76" fill="#413C80"></path>
                            <path d="M72.2755157,169.445468 L62.233775,169.445468 C61.9838207,169.445468 61.8038078,169.364429 61.8301791,169.264972 L62.9022306,165.330897 C62.9274554,165.235124 63.1475986,165.155313 63.3941131,165.155313 L73.2604272,165.155313 C73.5057952,165.155313 73.6869547,165.235124 73.6651697,165.330897 L72.7685447,169.264972 C72.7467597,169.364429 72.5254699,169.445468 72.2755157,169.445468" id="Fill-77" fill="#413C80"></path>
                            <path d="M85.6298723,169.445468 L75.4045206,169.445468 C75.1499959,169.445468 74.9620213,169.364429 74.9842047,169.264972 L75.8598628,165.330897 C75.8808786,165.235124 76.1015444,165.155313 76.3513989,165.155313 L86.3981164,165.155313 C86.6491384,165.155313 86.837113,165.235124 86.8207674,165.330897 L86.1225759,169.264972 C86.1050628,169.364429 85.8843969,169.445468 85.6298723,169.445468" id="Fill-78" fill="#413C80"></path>
                            <path d="M97.6715249,169.445468 L87.2603474,169.445468 C87.0011973,169.445468 86.8050515,169.364429 86.822883,169.264972 L87.5004773,165.330897 C87.5183087,165.235124 87.7382297,165.155313 87.9926248,165.155313 L98.2219217,165.155313 C98.4763167,165.155313 98.6724625,165.235124 98.6605748,165.330897 L98.1636723,169.264972 C98.150596,169.364429 97.930675,169.445468 97.6715249,169.445468" id="Fill-79" fill="#413C80"></path>
                            <path d="M112.357206,169.445468 L101.749106,169.445468 C101.486266,169.445468 101.281565,169.364429 101.292466,169.264972 L101.760007,165.330897 C101.77212,165.235124 101.991356,165.155313 102.250562,165.155313 L112.673342,165.155313 C112.93376,165.155313 113.138461,165.235124 113.131193,165.330897 L112.847761,169.264972 C112.841705,169.364429 112.621258,169.445468 112.357206,169.445468" id="Fill-80" fill="#413C80"></path>
                            <path d="M124.411811,169.445468 L113.606511,169.445468 C113.33755,169.445468 113.125343,169.364429 113.131512,169.264972 L113.388135,165.330897 C113.394304,165.235124 113.613913,165.155313 113.879173,165.155313 L124.495707,165.155313 C124.759732,165.155313 124.97194,165.235124 124.970711,165.330897 L124.901615,169.264972 C124.900381,169.364429 124.680772,169.445468 124.411811,169.445468" id="Fill-81" fill="#413C80"></path>
                            <path d="M137.696335,169.445468 L128.036308,169.445468 C127.795828,169.445468 127.600575,169.364429 127.601674,169.264972 L127.628153,165.330897 C127.628153,165.235124 127.821199,165.155313 128.056164,165.155313 L137.548516,165.155313 C137.785687,165.155313 137.979837,165.235124 137.983146,165.330897 L138.125523,169.264972 C138.129861,169.364429 137.937918,169.445468 137.696335,169.445468" id="Fill-82" fill="#413C80"></path>
                            <path d="M152.130403,169.445468 L141.437827,169.445468 C141.171673,169.445468 140.950691,169.364429 140.947029,169.264972 L140.756485,165.330897 C140.751686,165.235124 140.960458,165.155313 141.221729,165.155313 L151.728729,165.155313 C151.988779,165.155313 152.20854,165.235124 152.218307,165.330897 L152.595563,169.264972 C152.604109,169.364429 152.395336,169.445468 152.130403,169.445468" id="Fill-83" fill="#413C80"></path>
                            <path d="M165.304052,169.445468 L154.810352,169.445468 C154.549147,169.445468 154.32988,169.364429 154.319096,169.264972 L153.911713,165.330897 C153.90093,165.235124 154.101026,165.155313 154.357438,165.155313 L164.669014,165.155313 C164.924227,165.155313 165.144693,165.235124 165.16027,165.330897 L165.749776,169.264972 C165.765353,169.364429 165.565256,169.445468 165.304052,169.445468" id="Fill-84" fill="#413C80"></path>
                            <path d="M178.476068,169.445468 L168.175891,169.445468 C167.919504,169.445468 167.6984,169.364429 167.683111,169.264972 L167.066841,165.330897 C167.052728,165.235124 167.24443,165.155313 167.496113,165.155313 L177.616348,165.155313 C177.868031,165.155313 178.087959,165.235124 178.107953,165.330897 L178.904164,169.264972 C178.922982,169.364429 178.731279,169.445468 178.476068,169.445468" id="Fill-85" fill="#413C80"></path>
                            <path d="M191.647629,169.445468 L181.532256,169.445468 C181.279285,169.445468 181.058657,169.364429 181.037865,169.264972 L180.222351,165.330897 C180.202714,165.235124 180.387533,165.155313 180.634729,165.155313 L190.574524,165.155313 C190.821719,165.155313 191.043502,165.235124 191.066604,165.330897 L192.057696,169.264972 C192.084264,169.364429 191.9006,169.445468 191.647629,169.445468" id="Fill-86" fill="#413C80"></path>
                            <path d="M203.501172,169.445468 L193.556996,169.445468 C193.309442,169.445468 193.088006,169.364429 193.063023,169.264972 L192.062587,165.330897 C192.037605,165.235124 192.215889,165.155313 192.458901,165.155313 L202.23047,165.155313 C202.473482,165.155313 202.693782,165.235124 202.723307,165.330897 L203.89635,169.264972 C203.925875,169.364429 203.749861,169.445468 203.501172,169.445468" id="Fill-87" fill="#413C80"></path>
                            <path d="M223.797076,169.445468 L207.816705,169.445468 C207.077348,169.445468 206.403874,169.220769 206.312369,168.9445 L205.225294,165.641547 C205.135009,165.372645 205.652316,165.155313 206.379473,165.155313 L222.081669,165.155313 C222.807606,165.155313 223.48352,165.372645 223.593325,165.641547 L224.931733,168.9445 C225.043979,169.220769 224.536433,169.445468 223.797076,169.445468" id="Fill-88" fill="#413C80"></path>
                            <path d="M50.003819,175.165676 L34.0349329,175.165676 C33.2957764,175.165676 32.7894721,174.940498 32.9029129,174.664627 L34.2606205,171.360064 C34.370479,171.092445 35.0475416,170.87552 35.7723688,170.87552 L51.4570557,170.87552 C52.183077,170.87552 52.6977401,171.092445 52.6093757,171.360064 L51.5072085,174.664627 C51.4152617,174.940498 50.7417815,175.165676 50.003819,175.165676" id="Fill-89" fill="#413C80"></path>
                            <polygon id="Fill-90" fill="#413C80" points="40.7799163 152.284847 71.0359833 152.284847 71.0359833 145.134588 40.7799163 145.134588"></polygon>
                            <polygon id="Fill-91" fill="#413C80" points="186.798326 152.284847 217.054393 152.284847 217.054393 145.134588 186.798326 145.134588"></polygon>
                            <path d="M168.369628,219.089731 L165.526972,197.022687 C165.390943,195.968864 164.594534,195.186401 163.653958,195.186401 L97.3287971,195.186401 C96.2707941,195.186401 95.3697476,196.057122 95.2011647,197.241355 L92.1004021,219.187209 C91.9725116,220.100083 92.5945244,220.927334 93.4106981,220.927334 L130.10945,220.927334 L130.10945,207.516125 L131.998741,207.516125 L131.998741,220.927334 L166.945394,220.927334 C167.811561,220.927334 168.480079,220.064516 168.369628,219.089731" id="Fill-92" fill="#413C80"></path>
                        </g>
                        <g id="screen" transform="translate(36.410634, 12.000000)">
                            <polygon id="Fill-194" fill="#8771A5" points="0 120.272635 186.12 120.272635 186.12 0.69616469 0 0.69616469"></polygon>
                            <polygon id="Fill-195" fill="#413C80" points="0 12.0844 186.12 12.0844 186.12 2.1196941 0 2.1196941"></polygon>
                            <polygon id="Fill-196" fill="#413C80" points="0 120.272635 186.12 120.272635 186.12 113.154988 0 113.154988"></polygon>
                            <polygon id="Fill-197" fill="#555191" points="18.48 113.154988 153.12 113.154988 153.12 10.6608706 18.48 10.6608706"></polygon>
                            <polygon id="Fill-198" fill="#8771A5" points="0 113.154988 18.48 113.154988 18.48 10.6608706 0 10.6608706"></polygon>
                            <polygon id="Fill-199" fill="#FFFFFE" points="5.28 26.3196941 13.2 26.3196941 13.2 17.7785176 5.28 17.7785176"></polygon>
                            <polygon id="Fill-200" fill="#FFFFFE" points="5.28 43.402047 13.2 43.402047 13.2 34.8608706 5.28 34.8608706"></polygon>
                            <polygon id="Fill-201" fill="#FFFFFE" points="5.28 59.0608706 13.2 59.0608706 13.2 50.5196941 5.28 50.5196941"></polygon>
                            <polygon id="Fill-202" fill="#FFFFFE" points="5.28 74.7196941 13.2 74.7196941 13.2 66.1785176 5.28 66.1785176"></polygon>
                            <polygon id="Fill-203" fill="#FFFFFE" points="5.28 90.3785176 13.2 90.3785176 13.2 81.8373412 5.28 81.8373412"></polygon>
                            <polygon id="Fill-204" fill="#555191" points="5.28 103.190282 10.56 103.190282 10.56 97.4961647 5.28 97.4961647"></polygon>
                            <polygon id="Fill-205" fill="#CD84AC" points="6.6 106.037341 11.88 106.037341 11.88 100.343224 6.6 100.343224"></polygon>
                            <polygon id="Fill-206" fill="#FFFFFE" points="36.96 104.613812 124.08 104.613812 124.08 17.7785176 36.96 17.7785176"></polygon>
                            <polygon id="Fill-207" fill="#555191" points="47.52 101.766753 52.8 101.766753 52.8 96.0726353 47.52 96.0726353"></polygon>
                            <polygon id="Fill-208" fill="#CD84AC" points="54.12 101.766753 59.4 101.766753 59.4 96.0726353 54.12 96.0726353"></polygon>
                            <polygon id="Fill-209" fill="#413C80" points="40.92 101.766753 46.2 101.766753 46.2 96.0726353 40.92 96.0726353"></polygon>
                            <polygon id="Fill-210" fill="#F4BA7A" points="60.72 101.766753 66 101.766753 66 96.0726353 60.72 96.0726353"></polygon>
                            <polygon id="Fill-211" fill="#555191" points="155.76 22.0491059 182.16 22.0491059 182.16 19.202047 155.76 19.202047"></polygon>
                            <polygon id="Fill-212" fill="#413C80" points="155.76 43.402047 182.16 43.402047 182.16 22.0491059 155.76 22.0491059"></polygon>
                            <polygon id="Fill-213" fill="#555191" points="155.76 53.3667529 182.16 53.3667529 182.16 50.5196941 155.76 50.5196941"></polygon>
                            <polygon id="Fill-214" fill="#413C80" points="155.76 74.7196941 182.16 74.7196941 182.16 53.3667529 155.76 53.3667529"></polygon>
                            <polygon id="Fill-215" fill="#555191" points="155.76 81.8373412 182.16 81.8373412 182.16 78.9902823 155.76 78.9902823"></polygon>
                            <polygon id="Fill-216" fill="#413C80" points="155.76 103.190282 182.16 103.190282 182.16 81.8373412 155.76 81.8373412"></polygon>
                            <path d="M78.8200441,54.376841 C79.8596035,54.376841 80.8682379,54.5153674 81.84,54.7565058 L81.84,40.5549882 L58.08,40.5549882 L58.08,66.1785176 L65.606696,66.1785176 C66.7842291,59.4612716 72.2472687,54.376841 78.8200441,54.376841" id="Fill-217" fill="#F4BA7A"></path>
                            <path d="M77.8185027,77.5230864 L88.5035013,61.0534675 C86.6508796,58.6629632 84.0867179,56.9328755 81.1632166,56.2138117 L81.1632166,67.5671138 L64.9239226,67.5671138 C64.76924,68.4404447 64.68,69.3392744 64.68,70.2597779 C64.68,78.2255759 70.7078622,84.6844 78.1421463,84.6844 C83.1015087,84.6844 87.4242926,81.8017705 89.76,77.5230864 L77.8185027,77.5230864" id="Fill-218" fill="#555191"></path>
                            <path d="M80.52,55.2024421 C79.5717819,54.940665 78.587585,54.7902823 77.5732122,54.7902823 C71.1596835,54.7902823 65.8290035,60.3098819 64.68,67.602047 L80.52,67.602047 L80.52,55.2024421" id="Fill-219" fill="#D188A1"></path>
                            <path d="M89.6769784,76.1432235 L109.56,76.1432235 L93.8798935,50.5196941 L88.44,59.2552259 C90.3446656,61.8175789 91.492619,65.105496 91.492619,68.6954048 C91.492619,71.4146365 90.8237604,73.9547649 89.6769784,76.1432235" id="Fill-220" fill="#CD84AC"></path>
                            <path d="M89.3140756,76.1432235 C90.4294562,73.9295791 91.08,71.3602176 91.08,68.6096916 C91.08,64.9784685 89.9634801,61.6527123 88.1109684,59.0608706 L77.88,76.1432235 L89.3140756,76.1432235" id="Fill-221" fill="#7B5794"></path>
                            <polygon id="Fill-222" fill="#FFFFFE" points="176.88 7.81381175 180.84 7.81381175 180.84 4.96675293 176.88 4.96675293"></polygon>
                            <polygon id="Fill-223" fill="#FFFFFE" points="171.6 7.81381175 175.56 7.81381175 175.56 4.96675293 171.6 4.96675293"></polygon>
                            <polygon id="Fill-224" fill="#FFFFFE" points="166.32 7.81381175 170.28 7.81381175 170.28 4.96675293 166.32 4.96675293"></polygon>
                            <polyline id="Fill-225" fill="#555191" points="120.12 93.2255765 117.48 93.2255765 117.48 91.3258242 118.359471 91.3258242 118.359471 90.3785176 120.12 90.3785176 120.12 93.2255765"></polyline>
                            <path d="M43.56,93.2255765 L46.199871,93.2255765 L46.199871,91.802047 L43.56,91.802047 L43.56,93.2255765 Z M48.8409029,93.2255765 L51.479613,93.2255765 L51.479613,91.802047 L48.8409029,91.802047 L48.8409029,93.2255765 Z M54.119484,93.2255765 L56.760516,93.2255765 L56.760516,91.802047 L54.119484,91.802047 L54.119484,93.2255765 Z M59.400387,93.2255765 L62.040258,93.2255765 L62.040258,91.802047 L59.400387,91.802047 L59.400387,93.2255765 Z M64.680129,93.2255765 L67.32,93.2255765 L67.32,91.802047 L64.680129,91.802047 L64.680129,93.2255765 Z M69.959871,93.2255765 L72.599742,93.2255765 L72.599742,91.802047 L69.959871,91.802047 L69.959871,93.2255765 Z M75.2407739,93.2255765 L77.879484,93.2255765 L77.879484,91.802047 L75.2407739,91.802047 L75.2407739,93.2255765 Z M80.5193551,93.2255765 L83.1592261,93.2255765 L83.1592261,91.802047 L80.5193551,91.802047 L80.5193551,93.2255765 Z M85.7990971,93.2255765 L88.4389681,93.2255765 L88.4389681,91.802047 L85.7990971,91.802047 L85.7990971,93.2255765 Z M91.0788391,93.2255765 L93.719871,93.2255765 L93.719871,91.802047 L91.0788391,91.802047 L91.0788391,93.2255765 Z M96.359742,93.2255765 L98.999613,93.2255765 L98.999613,91.802047 L96.359742,91.802047 L96.359742,93.2255765 Z M101.639484,93.2255765 L104.279355,93.2255765 L104.279355,91.802047 L101.639484,91.802047 L101.639484,93.2255765 Z M106.919226,93.2255765 L109.559097,93.2255765 L109.559097,91.802047 L106.919226,91.802047 L106.919226,93.2255765 Z M112.200129,93.2255765 L114.84,93.2255765 L114.84,91.802047 L112.200129,91.802047 L112.200129,93.2255765 Z" id="Fill-226" fill="#555191"></path>
                            <polyline id="Fill-227" fill="#555191" points="40.92 93.2255765 38.28 93.2255765 38.28 90.3785176 40.0405292 90.3785176 40.0405292 91.3258242 40.92 91.3258242 40.92 93.2255765"></polyline>
                            <path d="M39.6,30.590775 L40.92,30.590775 L40.92,27.7432235 L39.6,27.7432235 L39.6,30.590775 Z M39.6,36.2858779 L40.92,36.2858779 L40.92,33.4370333 L39.6,33.4370333 L39.6,36.2858779 Z M39.6,41.9796876 L40.92,41.9796876 L40.92,39.1321362 L39.6,39.1321362 L39.6,41.9796876 Z M39.6,47.6734974 L40.92,47.6734974 L40.92,44.8259459 L39.6,44.8259459 L39.6,47.6734974 Z M39.6,53.3673071 L40.92,53.3673071 L40.92,50.5184625 L39.6,50.5184625 L39.6,53.3673071 Z M39.6,59.0611169 L40.92,59.0611169 L40.92,56.2135654 L39.6,56.2135654 L39.6,59.0611169 Z M39.6,64.7549266 L40.92,64.7549266 L40.92,61.9073752 L39.6,61.9073752 L39.6,64.7549266 Z M39.6,70.4500296 L40.92,70.4500296 L40.92,67.6011849 L39.6,67.6011849 L39.6,70.4500296 Z M39.6,76.1425461 L40.92,76.1425461 L40.92,73.2962878 L39.6,73.2962878 L39.6,76.1425461 Z M39.6,81.8363559 L40.92,81.8363559 L40.92,78.9888044 L39.6,78.9888044 L39.6,81.8363559 Z M39.6,87.5314588 L40.92,87.5314588 L40.92,84.6826142 L39.6,84.6826142 L39.6,87.5314588 Z" id="Fill-228" fill="#555191"></path>
                            <polyline id="Fill-229" fill="#555191" points="40.0405292 24.8961647 38.28 24.8961647 38.28 22.0491059 40.92 22.0491059 40.92 23.9460037 40.0405292 23.9460037 40.0405292 24.8961647"></polyline>
                            <path d="M43.56,23.4726353 L46.199871,23.4726353 L46.199871,22.0491059 L43.56,22.0491059 L43.56,23.4726353 Z M48.8409029,23.4726353 L51.479613,23.4726353 L51.479613,22.0491059 L48.8409029,22.0491059 L48.8409029,23.4726353 Z M54.119484,23.4726353 L56.760516,23.4726353 L56.760516,22.0491059 L54.119484,22.0491059 L54.119484,23.4726353 Z M59.400387,23.4726353 L62.040258,23.4726353 L62.040258,22.0491059 L59.400387,22.0491059 L59.400387,23.4726353 Z M64.680129,23.4726353 L67.32,23.4726353 L67.32,22.0491059 L64.680129,22.0491059 L64.680129,23.4726353 Z M69.959871,23.4726353 L72.599742,23.4726353 L72.599742,22.0491059 L69.959871,22.0491059 L69.959871,23.4726353 Z M75.2407739,23.4726353 L77.8806449,23.4726353 L77.8806449,22.0491059 L75.2407739,22.0491059 L75.2407739,23.4726353 Z M80.520516,23.4726353 L83.1592261,23.4726353 L83.1592261,22.0491059 L80.520516,22.0491059 L80.520516,23.4726353 Z M85.7990971,23.4726353 L88.4389681,23.4726353 L88.4389681,22.0491059 L85.7990971,22.0491059 L85.7990971,23.4726353 Z M91.0788391,23.4726353 L93.719871,23.4726353 L93.719871,22.0491059 L91.0788391,22.0491059 L91.0788391,23.4726353 Z M96.359742,23.4726353 L98.999613,23.4726353 L98.999613,22.0491059 L96.359742,22.0491059 L96.359742,23.4726353 Z M101.639484,23.4726353 L104.279355,23.4726353 L104.279355,22.0491059 L101.639484,22.0491059 L101.639484,23.4726353 Z M106.919226,23.4726353 L109.559097,23.4726353 L109.559097,22.0491059 L106.919226,22.0491059 L106.919226,23.4726353 Z M112.200129,23.4726353 L114.84,23.4726353 L114.84,22.0491059 L112.200129,22.0491059 L112.200129,23.4726353 Z" id="Fill-230" fill="#555191"></path>
                            <polyline id="Fill-231" fill="#555191" points="120.12 24.8961647 118.359471 24.8961647 118.359471 23.9460037 117.48 23.9460037 117.48 22.0491059 120.12 22.0491059 120.12 24.8961647"></polyline>
                            <path d="M118.8,30.590775 L120.12,30.590775 L120.12,27.7432235 L118.8,27.7432235 L118.8,30.590775 Z M118.8,36.2858779 L120.12,36.2858779 L120.12,33.4370333 L118.8,33.4370333 L118.8,36.2858779 Z M118.8,41.9783945 L120.12,41.9783945 L120.12,39.1321362 L118.8,39.1321362 L118.8,41.9783945 Z M118.8,47.6722042 L120.12,47.6722042 L120.12,44.8259459 L118.8,44.8259459 L118.8,47.6722042 Z M118.8,53.3673071 L120.12,53.3673071 L120.12,50.5184625 L118.8,50.5184625 L118.8,53.3673071 Z M118.8,59.0611169 L120.12,59.0611169 L120.12,56.2135654 L118.8,56.2135654 L118.8,59.0611169 Z M118.8,64.7549266 L120.12,64.7549266 L120.12,61.9073752 L118.8,61.9073752 L118.8,64.7549266 Z M118.8,70.4487364 L120.12,70.4487364 L120.12,67.6011849 L118.8,67.6011849 L118.8,70.4487364 Z M118.8,76.1425461 L120.12,76.1425461 L120.12,73.2962878 L118.8,73.2962878 L118.8,76.1425461 Z M118.8,81.8363559 L120.12,81.8363559 L120.12,78.9888044 L118.8,78.9888044 L118.8,81.8363559 Z M118.8,87.5314588 L120.12,87.5314588 L120.12,84.6826142 L118.8,84.6826142 L118.8,87.5314588 Z" id="Fill-232" fill="#555191"></path>
                        </g>
                    </g>
                </g>
                <g id="tee" transform="translate(376.000000, 77.000000)">
                    <g>
                        <path d="M53.7998068,14.6175842 C53.9501709,13.6697946 53.4563613,16.6364652 53.150507,18.8648107 C58.3739529,19.664044 62.3449338,23.6201 62.3449338,28.3902449 C62.3449338,33.7367885 57.3589948,38.0716632 51.2094423,38.0716632 C50.7720193,38.0716632 50.3397223,38.041952 49.9159688,37.997385 C49.3743161,40.7337933 48.7779855,43.8727893 49.0923832,42.2238136 C49.7861088,42.3040341 50.4900865,42.3589999 51.2094423,42.3589999 C60.0826366,42.3589999 67.2779036,36.1047769 67.2779036,28.3902449 C67.2779036,21.4422637 61.4393315,15.697589 53.7998068,14.6175842" id="Fill-113" fill="#F4BA7A"></path>
                        <path d="M36.8002408,43.2822785 C35.18062,36.182881 40.0428219,31.6330241 42.4739228,25.2614236 C44.903354,18.1605255 42.8779931,10.5149051 41.0546675,3.59708171 C40.9444664,3.24893962 40.8259169,2.89029325 40.7073673,2.53164687 L33.283827,2.52714503 L28.1260861,2.5226432 L26.8370683,2.5106383 C26.9572875,2.87828835 27.0758371,3.24143656 27.1877078,3.59708171 C29.0127032,10.5149051 31.0363944,18.1605255 28.6069632,25.2614236 C26.1758623,31.6330241 21.3153301,36.182881 22.9349509,43.2822785 C24.1505014,48.0167108 26.1758623,52.0218454 26.7836375,56.7547771 C26.8821505,57.5005815 26.9539481,58.2463859 27.0140578,58.9921903 C28.6470363,59.0116982 30.4286192,58.9951915 32.3821824,58.9366676 C33.4357708,58.9036541 34.5260928,58.8631376 35.6781942,58.8076149 C35.6781942,58.8076149 38.13935,58.7836051 40.7925226,58.1473455 C40.7474404,57.6821556 40.7107067,57.2184664 40.6505971,56.7547771 C40.0428219,52.0218454 38.0157913,48.0167108 36.8002408,43.2822785" id="Fill-114" fill="#CD84AC"></path>
                        <path d="M56.4496207,2.71967689 C56.4496207,1.37412088 43.8755995,0 28.3646051,0 C13.892173,0 1.98074097,0.748700438 0.448187295,1.88377841 L0.375690256,1.88377841 C0.375690256,1.88377841 0.380748189,2.04915401 0.385806122,2.08673937 C0.320052994,2.15439303 0.277903553,2.29270717 0.277903553,2.36336765 C0.277903553,2.45507594 0.340284726,2.58136276 0.453245228,2.6685608 C1.21024919,8.00267557 7.42476279,51.5370502 9.6030459,54.8190042 C10.0683757,55.9495719 12.6968149,58.8421415 27.241744,59 C27.1810488,58.252803 27.1085518,57.5101162 27.0090791,56.7629192 C26.3953832,52.0211497 24.3502924,48.0115432 23.1229006,43.2682703 C21.4875023,36.1556161 26.3953832,31.8062379 28.8501667,25.4227398 C31.1447823,18.7716339 29.506012,10.9628988 27.7778849,5.28901233 C27.9751443,5.28901233 28.1690317,5.28901233 28.3646051,5.28901233 C33.1915591,5.28901233 37.7352689,4.9747987 41.7023743,4.78837529 C43.455791,11.4319641 45.1805462,18.5701763 42.852211,25.3190042 C40.3974276,31.7025023 35.4878607,36.2097391 37.123259,43.3223932 C38.3506507,48.0656661 40.3974276,52.051218 41.0111234,56.7929875 C41.0718186,57.2575426 41.1089101,57.7100703 41.1544315,58.1746254 C41.2117548,58.1625981 41.2657061,58.1460605 41.3230293,58.1310264 C43.2501017,57.6529406 45.2513572,56.8501172 46.4854928,55.4880236 C46.5175264,55.4624656 46.546188,55.4218734 46.5765356,55.3918051 C46.6406028,55.3166344 46.7080419,55.2459739 46.7670511,55.1677964 C46.8580939,55.0475232 46.9457647,54.9062022 47.0334356,54.7513505 C47.1885455,54.4972735 47.3149938,54.2251554 47.4178385,53.9395067 C48.0686259,52.3128121 48.6182546,49.7269391 49.1661973,46.810315 C49.7731493,43.3735093 50.3413237,40.4012588 50.8757786,37.6319692 C50.8606048,37.6304658 50.847117,37.6319692 50.8336292,37.6289624 C51.9413165,31.3522067 53.0793514,24.3553155 54.0386727,18.2619764 C54.0471026,18.2634798 54.0572184,18.2664866 54.0673343,18.2694934 C54.3691243,16.0143716 54.7029479,13.9381562 55.1295002,11.5101417 C55.9320256,6.27224544 56.4496207,3.01885639 56.4496207,3.01885639 L56.4445628,3.01885639 C56.4445628,1.88377841 56.4496207,2.72418714 56.4496207,2.71967689" id="Fill-115" fill="#F4BA7A"></path>
                        <path d="M27.6886607,5.0212766 C15.0133003,5.0212766 5.82545524,4.09039984 1.63143891,3.13829787 C5.82545524,2.18619591 15.0133003,1.25531915 27.6886607,1.25531915 C40.3606886,1.25531915 49.5485337,2.18619591 53.74255,3.13829787 C49.5485337,4.09039984 40.3623549,5.0212766 27.6886607,5.0212766" id="Fill-116" fill="#413C80"></path>
                    </g>
                </g>
                <g id="mobile" transform="translate(425.000000, 189.500000) scale(-1, 1) rotate(-17.000000) translate(-425.000000, -189.500000) translate(375.000000, 149.000000)">
                    <path d="M5.45988766,61.9712253 L50.4668429,15.0932853 C50.4668429,15.0932853 54.1829952,10.8433207 58.6853978,11.2775719 C60.219994,11.428349 64.6363642,11.488943 66.7766054,11.6888487 C76.4636148,12.597553 91.6046071,11.2551464 91.6046071,11.2551464 C91.7003463,11.2464243 91.8863074,11.4337532 91.9569485,11.4922127 C92.2378975,11.7342031 92.3296221,11.8032453 92.5093938,12.151907 C92.9352758,12.9669229 93.0479496,14.2633466 93.0345837,15.1915697 C93.0228318,15.8887303 92.9816623,16.5997071 92.7860938,17.2467138 C92.5855825,17.9120421 92.2625038,18.3196609 91.8818384,18.8346903 C91.3834559,19.5133715 55.4456603,69.3673003 55.3261995,69.5309226 C55.3261995,69.5309226 52.9242544,73.3266833 48.2080283,73.1526159 C43.4203137,72.9773359 7.80145205,67.1276414 7.80145205,67.1276414 C7.80145205,67.1276414 6.08210406,65.9757494 5.45988766,61.9712253" id="Fill-117" fill="#413C80" transform="translate(49.247754, 42.202425) rotate(11.000000) translate(-49.247754, -42.202425) "></path>
                    <path d="M8.85933052,57.9586589 L49.3139577,12.5927751 C49.3139577,12.5927751 52.6501922,7.78153999 57.1805804,8.21835673 C58.7247041,8.36931129 64.7825357,9.01202287 66.9378519,9.21425039 C76.6849746,10.1220238 91.5613459,11.1781574 91.5613459,11.1781574 C91.5613459,11.1781574 95.8894847,11.4683723 93.0025278,15.2870743 C88.9538535,20.6384573 55.410705,67.0603663 55.410705,67.0603663 C55.410705,67.0603663 52.9917089,70.8563262 48.2479293,70.6817794 C47.6968366,70.6601601 11.2437998,65.4071946 9.96098845,65.1420447 C9.52456968,65.0507848 9.08818292,64.9615708 8.65351862,64.8703407 C7.84582021,64.7032429 7.19097771,64.4405633 6.76807058,63.531411 C5.72819043,61.3048445 7.48048944,59.1788161 8.85933052,57.9586589" id="Fill-118" fill="#8771A5" transform="translate(50.224148, 39.438968) rotate(11.000000) translate(-50.224148, -39.438968) "></path>
                    <path d="M31.5399726,60.873166 C30.0024222,62.1521828 27.0071783,62.9403498 24.8898268,62.6194106 C22.7908279,62.3010335 22.384107,61.0149535 23.9528498,59.7624553 C25.4976627,58.5264052 28.4023754,57.770718 30.4762777,58.0626359 C32.5654847,58.3570863 33.0566409,59.6106271 31.5399726,60.873166" id="Fill-119" fill="#FFFFFE" transform="translate(27.711340, 60.345529) rotate(11.000000) translate(-27.711340, -60.345529) "></path>
                    <path d="M78.8599812,16.3404941 C78.2899253,16.9841768 76.7839672,17.433314 75.5012998,17.3479738 C74.2183196,17.2583841 73.6493856,16.6658237 74.2237376,16.0179082 C74.7984025,15.3742421 76.2951425,14.9250716 77.5732007,15.0103953 C78.8515719,15.0999683 79.4294112,15.6883125 78.8599812,16.3404941" id="Fill-120" fill="#413C80" transform="translate(76.539664, 16.179187) rotate(11.000000) translate(-76.539664, -16.179187) "></path>
                    <path d="M51.5874836,14.9464119 C51.5874836,14.9464119 53.6181158,12.6958594 54.185018,12.4272832 C54.7501571,12.1586771 54.7357573,11.8016678 58.4584354,12.1345083 L87.5463079,15.3078745 C87.5463079,15.3078745 89.2127719,15.355253 89.581029,15.7968377 C89.8127615,16.0747129 89.2397285,17.0779513 88.2869184,18.367805 L57.4290169,60.9089217 C57.4290169,60.9089217 55.560447,64.1666867 52.9746165,64.6176257 C52.9746165,64.6176257 51.9516903,65.1439172 49.0913164,65.059299 L16.4406898,60.733971 C16.4406898,60.733971 13.1707348,60.720979 14.200659,59.2901519 C15.23055,57.8572006 25.4847202,45.7375985 25.4847202,45.7375985 L49.5227173,17.3811387 L51.5874836,14.9464119 Z" id="Fill-121" fill="#413C80" transform="translate(51.816211, 38.534255) rotate(11.000000) translate(-51.816211, -38.534255) "></path>
                    <polyline id="Fill-122" fill="#555191" transform="translate(68.080342, 25.496390) rotate(20.000000) translate(-68.080342, -25.496390) " points="53.1235373 24.2011438 49.0803421 29.8271657 83.7597657 26.7304695 87.0803421 21.1656152 53.1235373 24.2011438"></polyline>
                    <polyline id="Fill-123" fill="#555191" transform="translate(57.552058, 35.959361) rotate(24.000000) translate(-57.552058, -35.959361) " points="41.3585104 36.4900187 40.0520577 39.4593606 73.9050636 35.5086831 75.0520577 32.4593606 41.3585104 36.4900187"></polyline>
                    <polyline id="Fill-123-Copy" fill="#555191" transform="translate(52.500000, 39.500000) rotate(24.000000) translate(-52.500000, -39.500000) " points="36.3064528 40.0306581 35 43 68.853006 39.0493225 70 36 36.3064528 40.0306581"></polyline>
                    <polyline id="Fill-124" fill="#555191" transform="translate(37.538824, 52.548368) rotate(20.000000) translate(-37.538824, -52.548368) " points="20.2174205 52.5569641 19.0388242 54.5483684 54.6249606 53.2871033 56.0388242 50.5483684 20.2174205 52.5569641"></polyline>
                    <polyline id="Fill-125" fill="#555191" transform="translate(47.500000, 44.139408) rotate(20.000000) translate(-47.500000, -44.139408) " points="29 47.2788154 63.59258 45.3962715 66 41 31.4746593 43.3867923 29 47.2788154"></polyline>
                    <polyline id="Fill-125-Copy" fill="#555191" transform="translate(41.500000, 48.139408) rotate(20.000000) translate(-41.500000, -48.139408) " points="23 51.2788154 57.59258 49.3962715 60 45 25.4746593 47.3867923 23 51.2788154"></polyline>
                </g>
                <g id="Group" transform="translate(8.000000, 30.000000)">
                    <g id="penstand" transform="translate(1.000000, 0.000000)">
                        <path d="M61.0178571,40.726427 C61.0178571,41.9304045 48.1787263,52.5343511 31.4926972,52.5343511 C14.808397,52.5343511 0.598214286,41.9304045 0.598214286,40.726427 C0.598214286,39.5248033 14.808397,39.0458015 31.4926972,39.0458015 C48.1787263,39.0458015 61.0178571,39.5248033 61.0178571,40.726427" id="Fill-132" fill="#555191"></path>
                        <path d="M29.3125,78.0916031 C29.3125,78.0916031 29.3108112,87.5738115 32.7423918,87.3154243 C35.3498526,87.1195308 37.0892857,78.3584028 37.0892857,78.3584028 L29.3125,78.0916031" id="Fill-133" fill="#747262"></path>
                        <polyline id="Fill-134" fill="#8771A5" points="33.7829154 17.0381679 29.3125 78.5436906 37.4045846 78.8015267 41.875 17.296004 33.7829154 17.0381679"></polyline>
                        <polyline id="Fill-135" fill="#8771A5" points="34.0460517 78.0916031 32.9017857 78.0532368 36.5415781 24.8473282 37.6875 24.8856945 34.0460517 78.0916031"></polyline>
                        <path d="M39.4510022,39.7407573 C42.5873173,40.3005518 43.6593731,24.9722321 43.6593731,24.9722321 C43.6593731,24.9722321 44.0195566,2.03818622 40.4737875,0.828609298 C36.9297174,-0.380967623 33.6438921,7.63846893 31.7053571,25.6430506 L40.351461,25.9282069 L39.4510022,39.7407573" id="Fill-136" fill="#445494"></path>
                        <path d="M39.4510022,39.6672537 C41.9264145,41.0880172 43.6593731,24.9265409 43.6593731,24.9265409 C43.6593731,24.9265409 44.0195566,2.03568481 40.4737875,0.828385787 C36.9297174,-0.378913236 33.6438921,7.62542096 31.7053571,25.5960961 L40.351461,25.8807154 L39.4510022,39.6672537" id="Fill-137" fill="#CD84AC"></path>
                        <g id="Group-140" transform="translate(31.107143, 0.000000)">
                            <mask id="mask-2" fill="white">
                                <use xlink:href="#path-1"></use>
                            </mask>
                            <g id="Clip-139"></g>
                            <polyline id="Fill-138" fill="#8771A5" mask="url(#mask-2)" points="12.896154 24.2498231 -0.943608259 23.7984787 -0.886852679 22.990502 12.9529096 23.4430157 12.896154 24.2498231"></polyline>
                        </g>
                        <path d="M18.3754532,84.9941152 C20.5979294,84.7918025 22.4363812,84.802148 22.0923231,83.1468621 L21.4841396,80.221374 L13.1607143,80.9788973 L13.7671601,83.9032358 C14.1112182,85.5585217 15.8749503,85.2205675 18.0991641,85.0182548 L18.3754532,84.9941152" id="Fill-141" fill="#CD84AC"></path>
                        <polyline id="Fill-142" fill="#888B87" points="21.2049454 78.8015267 13.1607143 79.469431 13.4931622 80.9312977 21.5357143 80.2613602 21.2049454 78.8015267"></polyline>
                        <polyline id="Fill-143" fill="#F4BA7A" points="0 17.9792926 12.4791677 79.5114504 14.9553571 79.2814171 2.47791261 17.7480916 0 17.9792926"></polyline>
                        <polyline id="Fill-144" fill="#F4BA7A" points="20.9375 78.4948091 8.63798435 17.0381679 5.38392857 17.3437193 17.6834442 78.8015267 20.9375 78.4948091"></polyline>
                        <polyline id="Fill-145" fill="#413C80" points="5.46726088 17.7480916 2.99107143 17.9792882 15.468516 79.5114504 17.9464286 79.2814214 5.46726088 17.7480916"></polyline>
                        <polyline id="Fill-146" fill="#413C80" points="2.52778683 4.96946565 1.79464286 9.22900763 4.1875 8.96474319 2.52778683 4.96946565"></polyline>
                        <polyline id="Fill-147" fill="#F4BA7A" points="8.375 16.9558298 4.37192131 8.51908397 1.69038301 8.77313754 0 17.7480916 8.375 16.9558298"></polyline>
                        <path d="M63.3275422,11.7095506 C61.2253161,11.3437528 59.5816966,10.8637967 59.0193176,12.6007222 L58.0267857,15.6682677 L65.901765,17.0381679 L66.8942969,13.9706225 C67.4566759,12.2349245 65.6908729,12.1207661 63.5919942,11.7549684 L63.3275422,11.7095506" id="Fill-148" fill="#CD84AC"></path>
                        <polyline id="Fill-149" fill="#888B87" points="56.8303571 17.2039198 65.2071375 18.4580153 65.8035714 16.8724161 57.426791 15.6183206 56.8303571 17.2039198"></polyline>
                        <polyline id="Fill-150" fill="#F4BA7A" points="44.2813159 78.8015267 65.2053571 18.1407295 62.8007455 17.7480916 41.875 78.4088888 44.2813159 78.8015267"></polyline>
                        <polyline id="Fill-151" fill="#F4BA7A" points="57.1597975 17.0381679 35.8928571 77.5711383 39.1527025 78.0916031 60.4196429 17.5598022 57.1597975 17.0381679"></polyline>
                        <polyline id="Fill-152" fill="#EEC572" points="39.4821429 78.4077168 41.8867545 78.8015267 62.8125 18.1407295 60.4061841 17.7480916 39.4821429 78.4077168"></polyline>
                        <polyline id="Fill-153" fill="#413C80" points="34.6964286 90.1603053 37.6875 86.3537441 34.983514 85.9007634 34.6964286 90.1603053"></polyline>
                        <polyline id="Fill-154" fill="#F4BA7A" points="35.99125 77.3816794 35.2946429 86.1837946 37.9456199 86.610687 44.2678571 78.7161666 35.99125 77.3816794"></polyline>
                        <path d="M28.4290022,84.7078561 L22.5735291,21.2977099 L19.2866342,21.4395645 L16.8218885,21.545374 L14.3571429,21.6523463 L20.4900701,88.0426007 C20.6449678,89.7274142 22.4084184,89.4727737 24.5991143,89.3797543 L24.8731641,89.3669641 C27.0672643,89.2739447 28.861354,89.3739406 28.7047542,87.6879644 L28.4290022,84.7078561" id="Fill-155" fill="#413C80"></path>
                        <polyline id="Fill-156" fill="#413C80" points="18.4618905 8.51908397 17.3482143 12.778626 19.7410714 12.6555105 18.4618905 8.51908397"></polyline>
                        <polyline id="Fill-157" fill="#F4BA7A" points="22.7321429 20.9494563 19.6628711 12.778626 16.9787764 12.889382 14.3571429 21.2977099 22.7321429 20.9494563"></polyline>
                        <path d="M0.598214286,41.1755725 C1.39179913,48.0300106 4.04745562,91.0614883 11.9694725,91.9193087 C17.9118497,92.5635447 23.6761457,92.8839215 29.0375981,92.9941961 L32.2361427,93 C37.6944158,92.8966901 43.5762799,92.5763133 49.6465989,91.9193087 C57.5686158,91.0614883 60.2242723,48.0300106 61.0178571,41.1755725 C49.5359465,45.8268398 1.86207164,43.9277948 0.598214286,41.1755725" id="Fill-158" fill="#36B4A5"></path>
                        <path d="M0.598214286,41.1755725 C1.39179913,48.0300106 4.04745562,91.0614883 11.9694725,91.9193087 C17.9118497,92.5635447 23.6761457,92.8839215 29.0375981,92.9941961 L32.2361427,93 C37.6944158,92.8966901 43.5762799,92.5763133 49.6465989,91.9193087 C57.5686158,91.0614883 60.2242723,48.0300106 61.0178571,41.1755725 C49.5359465,45.8268398 1.86207164,43.9277948 0.598214286,41.1755725" id="Fill-159" fill="#F48475"></path>
                    </g>
                    <g id="cup" transform="translate(0.000000, 40.000000)">
                        <mask id="mask-4" fill="white">
                            <use xlink:href="#path-3"></use>
                        </mask>
                        <g id="Clip-161"></g>
                        <path d="M5.62565577,3.06281739 C5.57297603,4.36063304 3.96273203,5.38246957 2.03114161,5.34083478 C0.097795207,5.29801043 -1.41060131,4.20717913 -1.34036166,2.91055304 C-1.270122,1.61273739 0.340122004,0.600417391 2.25415251,0.643241739 C4.16818301,0.684876522 5.67833551,1.76500174 5.62565577,3.06281739" id="Fill-160" fill="#FFFFFE" mask="url(#mask-4)"></path>
                        <path d="M5.11290632,15.4009878 C5.06022658,16.6988035 3.41661874,17.72064 1.44288453,17.6778157 C-0.530849673,17.6349913 -2.07436601,16.5429704 -2.00237037,15.2463443 C-1.93213072,13.9485287 -0.288522876,12.9362087 1.66589542,12.9802226 C3.62206972,13.023047 5.16558606,14.1043617 5.11290632,15.4009878" id="Fill-162" fill="#FFFFFE" mask="url(#mask-4)"></path>
                        <path d="M11.020061,11.6776487 C9.0656427,11.6490991 7.52388235,10.5689739 7.57305011,9.27115826 C7.62397386,7.97572174 9.23421786,6.95031652 11.1693203,6.97886609 C13.1044227,7.00622609 14.647939,8.07683478 14.6163312,9.37465043 C14.5847233,10.6724661 12.9744793,11.7061983 11.020061,11.6776487" id="Fill-163" fill="#FFFFFE" mask="url(#mask-4)"></path>
                        <path d="M4.60015686,27.7403478 C4.54747712,29.0381635 2.87050545,30.0588104 0.854627451,30.0147965 C-1.16125054,29.9707826 -2.73637473,28.8775722 -2.66613508,27.5809461 C-2.59413943,26.28432 -0.918923747,25.2743791 1.07939434,25.3172035 C3.07420044,25.3612174 4.65108061,26.4425322 4.60015686,27.7403478" id="Fill-164" fill="#FFFFFE" mask="url(#mask-4)"></path>
                        <path d="M10.6284749,24.0193878 C8.63191285,23.9896487 7.05678867,22.9083339 7.10595643,21.6105183 C7.15688017,20.3150817 8.80048802,19.2908661 10.7777342,19.3206052 C12.7532244,19.3479652 14.3318606,20.4197635 14.2984967,21.7163896 C14.2668889,23.0142052 12.623281,24.0479374 10.6284749,24.0193878" id="Fill-165" fill="#FFFFFE" mask="url(#mask-4)"></path>
                        <path d="M4.08565142,40.0785183 C4.03297168,41.3763339 2.32263617,42.3969809 0.26637037,42.3517774 C-1.78989542,42.3077635 -3.39838344,41.2133635 -3.32814379,39.9167374 C-3.25614815,38.6201113 -1.54756863,37.6101704 0.491137255,37.6541843 C2.52808715,37.6981983 4.13833115,38.7818922 4.08565142,40.0785183" id="Fill-166" fill="#FFFFFE" mask="url(#mask-4)"></path>
                        <path d="M10.2351329,36.3599374 C8.199939,36.3301983 6.58969499,35.2488835 6.64061874,33.9510678 C6.69154248,32.6544417 8.36851416,31.6314157 10.3843922,31.6599652 C12.4020261,31.6897043 14.0122702,32.7615026 13.9806623,34.0581287 C13.9490545,35.3559443 12.2720828,36.388487 10.2351329,36.3599374" id="Fill-167" fill="#FFFFFE" mask="url(#mask-4)"></path>
                        <path d="M3.57290196,52.4178783 C3.52022222,53.7156939 1.77652288,54.7351513 -0.32188671,54.6887583 C-2.41854031,54.6435548 -4.06214815,53.5491548 -3.99015251,52.2525287 C-3.91991285,50.954713 -2.17621351,49.9459617 -0.0971198257,49.9911652 C1.98197386,50.0363687 3.6255817,51.1200626 3.57290196,52.4178783" id="Fill-168" fill="#FFFFFE" mask="url(#mask-4)"></path>
                        <path d="M9.84354684,48.700487 C7.76620915,48.6707478 6.1243573,47.5882435 6.17352505,46.2916174 C6.2244488,44.9938017 7.93302832,43.9707757 9.9928061,44.0017043 C12.0525839,44.0314435 13.6961917,45.1032417 13.6645839,46.3998678 C13.632976,47.6976835 11.9208845,48.7314157 9.84354684,48.700487" id="Fill-169" fill="#FFFFFE" mask="url(#mask-4)"></path>
                        <path d="M23.923085,3.2781287 C23.912549,4.57594435 22.3374248,5.62157217 20.4023224,5.60729739 C18.468976,5.59421217 16.9254597,4.52479304 16.9553115,3.22697739 C16.9851634,1.9303513 18.5620436,0.893050435 20.4778301,0.907325217 C22.3918606,0.9216 23.9353769,1.98150261 23.923085,3.2781287" id="Fill-170" fill="#FFFFFE" mask="url(#mask-4)"></path>
                        <path d="M23.8037301,15.6210574 C23.7913856,16.9200626 22.1811416,17.9656904 20.2074074,17.9502261 C18.2319172,17.9371409 16.655037,16.8677217 16.6848889,15.5699061 C16.7147407,14.2720904 18.3249847,13.2359791 20.281159,13.2502539 C22.2373333,13.2657183 23.8142135,14.3232417 23.8037301,15.6210574" id="Fill-171" fill="#FFFFFE" mask="url(#mask-4)"></path>
                        <path d="M29.5896688,11.8132591 C27.6370065,11.8132591 26.0601264,10.7557357 26.0688698,9.45910957 C26.0776863,8.16010435 27.6545664,7.11328696 29.5896688,7.11328696 C31.5265272,7.11328696 33.1034074,8.16010435 33.1122239,9.45910957 C33.1209673,10.7557357 31.5440871,11.8132591 29.5896688,11.8132591" id="Fill-172" fill="#FFFFFE" mask="url(#mask-4)"></path>
                        <path d="M23.6825656,27.9651757 C23.6702222,29.2629913 22.0266144,30.3086191 20.0107364,30.2931548 C17.9948584,30.2800696 16.3846144,29.2094609 16.4144662,27.9116452 C16.4443181,26.6150191 18.0879259,25.5789078 20.084488,25.5943722 C22.0828061,25.608647 23.6930501,26.66736 23.6825656,27.9651757" id="Fill-173" fill="#FFFFFE" mask="url(#mask-4)"></path>
                        <path d="M29.5896688,24.1573774 C27.5948627,24.1573774 25.9846187,23.0986643 25.9951033,21.8020383 C26.0021786,20.5042226 27.6124227,19.4562157 29.5896688,19.4562157 C31.566915,19.4562157 33.177159,20.5042226 33.1859904,21.8020383 C33.1964749,23.0986643 31.5862309,24.1573774 29.5896688,24.1573774" id="Fill-174" fill="#FFFFFE" mask="url(#mask-4)"></path>
                        <path d="M23.5596633,40.3081043 C23.5490588,41.60592 21.8720871,42.6527374 19.8158214,42.6360835 C17.7577996,42.6229983 16.1141917,41.5523896 16.1440436,40.2545739 C16.1738954,38.9567583 17.8508671,37.9218365 19.889573,37.9373009 C21.9282789,37.9515757 23.5718867,39.0102887 23.5596633,40.3081043" id="Fill-175" fill="#FFFFFE" mask="url(#mask-4)"></path>
                        <path d="M29.5896688,36.5003061 C27.552719,36.5003061 25.9108671,35.4427826 25.919612,34.1461565 C25.928427,32.8483409 27.5737908,31.8003339 29.5896688,31.8003339 C31.6073028,31.8003339 33.2509107,32.8483409 33.2614816,34.1461565 C33.2702266,35.4427826 31.6266187,36.5003061 29.5896688,36.5003061" id="Fill-176" fill="#FFFFFE" mask="url(#mask-4)"></path>
                        <path d="M23.4402367,52.6522226 C23.4278954,53.9500383 21.7175599,54.9956661 19.6191503,54.9790122 C17.5207407,54.965927 15.8437691,53.8941287 15.8736209,52.596313 C15.9034728,51.2984974 17.6138083,50.2635757 19.692902,50.2802296 C21.7719956,50.2945043 23.4507233,51.354407 23.4402367,52.6522226" id="Fill-177" fill="#FFFFFE" mask="url(#mask-4)"></path>
                        <path d="M29.5896688,48.8444243 C27.5123312,48.8444243 25.8353595,47.7869009 25.8441051,46.4890852 C25.8546754,45.1912696 27.5316471,44.1444522 29.5896688,44.1444522 C31.6494466,44.1444522 33.3264183,45.1912696 33.3369886,46.4890852 C33.3457342,47.7857113 31.6687625,48.8444243 29.5896688,48.8444243" id="Fill-178" fill="#FFFFFE" mask="url(#mask-4)"></path>
                        <path d="M42.2257821,3.22697739 C42.255634,4.52479304 40.7121176,5.59421217 38.7787712,5.60729739 C36.8436688,5.62157217 35.2667887,4.57594435 35.2580087,3.2781287 C35.2457168,1.98150261 36.7892331,0.9216 38.7032636,0.907325217 C40.6190501,0.893050435 42.1959303,1.9303513 42.2257821,3.22697739" id="Fill-179" fill="#FFFFFE" mask="url(#mask-4)"></path>
                        <path d="M42.4962048,15.5699061 C42.5260566,16.8677217 40.9491765,17.9371409 38.9736863,17.9502261 C36.9999521,17.9656904 35.3897081,16.9200626 35.3773636,15.6210574 C35.3668802,14.3232417 36.9437603,13.2657183 38.8999346,13.2502539 C40.8543529,13.2359791 42.4645969,14.2720904 42.4962048,15.5699061" id="Fill-180" fill="#FFFFFE" mask="url(#mask-4)"></path>
                        <path d="M48.1610327,11.6776487 C46.2066144,11.7061983 44.5963704,10.6724661 44.5647625,9.37465043 C44.5331547,8.07683478 46.076671,7.00622609 48.0117734,6.97886609 C49.9468758,6.95031652 51.5571198,7.97572174 51.6080436,9.27115826 C51.6572113,10.5689739 50.115451,11.6490991 48.1610327,11.6776487" id="Fill-181" fill="#FFFFFE" mask="url(#mask-4)"></path>
                        <path d="M42.7666275,27.9116452 C42.7964793,29.2094609 41.1862353,30.2800696 39.1703573,30.2931548 C37.1544793,30.3086191 35.5108715,29.2629913 35.4985281,27.9651757 C35.4880436,26.6661704 37.0982876,25.608647 39.0966057,25.5943722 C41.0931678,25.5789078 42.7367756,26.6150191 42.7666275,27.9116452" id="Fill-182" fill="#FFFFFE" mask="url(#mask-4)"></path>
                        <path d="M48.5526187,24.0193878 C46.5578126,24.0479374 44.9142048,23.0142052 44.8825969,21.7163896 C44.8492331,20.4185739 46.4278693,19.3479652 48.4033595,19.3206052 C50.3806057,19.2908661 52.0242135,20.3150817 52.0751373,21.6105183 C52.124305,22.9083339 50.5491808,23.9896487 48.5526187,24.0193878" id="Fill-183" fill="#FFFFFE" mask="url(#mask-4)"></path>
                        <path d="M43.0370501,40.2545739 C43.066902,41.5523896 41.4232941,42.6229983 39.3652723,42.6360835 C37.3090065,42.6527374 35.6320349,41.60592 35.6214304,40.3081043 C35.609207,39.0102887 37.2528148,37.9527652 39.2915207,37.9373009 C41.3302266,37.9218365 43.0071983,38.9567583 43.0370501,40.2545739" id="Fill-184" fill="#FFFFFE" mask="url(#mask-4)"></path>
                        <path d="M48.9442048,36.3599374 C46.9090109,36.3896765 45.2320392,35.3559443 45.2004314,34.0581287 C45.1688235,32.7615026 46.7790675,31.6897043 48.7949455,31.6599652 C50.8125795,31.6314157 52.4895512,32.6544417 52.5404749,33.9510678 C52.5913987,35.2488835 50.9811547,36.3301983 48.9442048,36.3599374" id="Fill-185" fill="#FFFFFE" mask="url(#mask-4)"></path>
                        <path d="M43.3074728,52.596313 C43.3373246,53.8941287 41.6603529,54.965927 39.5619434,54.9790122 C37.4635338,54.9956661 35.7531983,53.9500383 35.7408569,52.6522226 C35.7303704,51.354407 37.407342,50.2956939 39.4881917,50.2802296 C41.5672854,50.2635757 43.2776209,51.2984974 43.3074728,52.596313" id="Fill-186" fill="#FFFFFE" mask="url(#mask-4)"></path>
                        <path d="M49.3375468,48.700487 C47.2584532,48.7302261 45.5481176,47.6976835 45.5165098,46.3998678 C45.484902,45.1032417 47.1285098,44.0314435 49.1882876,44.0017043 C51.2463094,43.9707757 52.9566449,44.9938017 53.0075686,46.2916174 C53.0584924,47.5882435 51.4148845,48.6707478 49.3375468,48.700487" id="Fill-187" fill="#FFFFFE" mask="url(#mask-4)"></path>
                        <path d="M60.5214553,2.91055304 C60.591695,4.20717913 59.0832985,5.29801043 57.1499521,5.34083478 C55.2183617,5.38246957 53.6081176,4.36063304 53.5554379,3.06281739 C53.5027582,1.76500174 55.0129107,0.684876522 56.9269412,0.643241739 C58.8409717,0.600417391 60.4494597,1.61392696 60.5214553,2.91055304" id="Fill-188" fill="#FFFFFE" mask="url(#mask-4)"></path>
                        <path d="M61.1834641,15.2463443 C61.2554597,16.5429704 59.7119434,17.6349913 57.7382092,17.6778157 C55.7644749,17.72064 54.1208671,16.6988035 54.0681874,15.4009878 C54.0155076,14.1043617 55.559024,13.023047 57.5134423,12.9802226 C59.4696166,12.9362087 61.1132244,13.9485287 61.1834641,15.2463443" id="Fill-189" fill="#FFFFFE" mask="url(#mask-4)"></path>
                        <path d="M61.8472288,27.5809461 C61.9174684,28.8775722 60.3423442,29.9707826 58.3264662,30.0147965 C56.3105882,30.0588104 54.6336166,29.0381635 54.5809368,27.7403478 C54.5300131,26.4425322 56.1068932,25.3612174 58.1016993,25.3172035 C60.0982614,25.2743791 61.7752331,26.2831304 61.8472288,27.5809461" id="Fill-190" fill="#FFFFFE" mask="url(#mask-4)"></path>
                        <path d="M62.5092375,39.9167374 C62.5794771,41.2133635 60.9709891,42.3065739 58.9147233,42.3517774 C56.8584575,42.3969809 55.148122,41.3763339 55.0954423,40.0785183 C55.0427625,38.7818922 56.6530065,37.6981983 58.6899564,37.6541843 C60.7286623,37.6101704 62.4372418,38.6189217 62.5092375,39.9167374" id="Fill-191" fill="#FFFFFE" mask="url(#mask-4)"></path>
                        <path d="M63.1712462,52.2525287 C63.2432418,53.5491548 61.599634,54.6435548 59.5029804,54.6887583 C57.4045708,54.7351513 55.6608715,53.7156939 55.6081917,52.4178783 C55.555512,51.1200626 57.1991198,50.0363687 59.2782135,49.9911652 C61.3573072,49.9459617 63.0992505,50.954713 63.1712462,52.2525287" id="Fill-192" fill="#FFFFFE" mask="url(#mask-4)"></path>
                    </g>
                </g>
                <g id="Group-12" transform="translate(0.000000, 151.000000)">
                    <path d="M15.2179235,0 L51.8868192,0 C54.885583,3.37314442e-16 57.4238734,2.21402399 57.8312085,5.18499396 L66,64.765506 L66,64.765506 L57.0609892,76.0735112 L6.93643433,76.8873744 C3.62316255,76.9411714 0.893614004,74.298845 0.839817018,70.9855732 C0.835118178,70.696179 0.851365467,70.4068241 0.88843162,70.1197751 L9.26732886,5.23160994 C9.65365686,2.23979442 12.2012682,1.44232902e-15 15.2179235,0 Z" id="Rectangle" fill="#FCF8F3"></path>
                    <path d="M57.4781307,37 L12.5218693,37 C11.1295873,37 10,37.6718752 10,38.5 C10,39.3289064 11.1295873,40 12.5218693,40 L57.4781307,40 C58.8704127,40 60,39.3289064 60,38.5 C60,37.6718752 58.8704127,37 57.4781307,37 L57.4781307,37 Z" id="Path" fill="#3E437C" fill-rule="nonzero"></path>
                    <path d="M57.4781307,49 L12.5218693,49 C11.1295873,49 10,49.6710936 10,50.5 C10,51.3289062 11.1295873,52 12.5218693,52 L57.4781307,52 C58.8704127,52 60,51.3289062 60,50.5 C60,49.6710936 58.8704127,49 57.4781307,49 L57.4781307,49 Z" id="Path" fill="#3E437C" fill-rule="nonzero"></path>
                    <path d="M57.4781307,26 L12.5218693,26 C11.1295873,26 10,26.671875 10,27.5 C10,28.3289062 11.1295873,29 12.5218693,29 L57.4781307,29 C58.8704127,29 60,28.3289062 60,27.5 C60,26.671875 58.8704127,26 57.4781307,26 L57.4781307,26 Z" id="Path" fill="#3E437C" fill-rule="nonzero"></path>
                    <path d="M40,13.499455 C40,9.91554151 37.0844585,7 33.4994547,7 C29.9155412,7 27,9.91554151 27,13.499455 C27,17.0844588 29.9155412,20 33.4994547,20 C37.0844585,20 40,17.0844588 40,13.499455 Z" id="Path" fill="#53578D" fill-rule="nonzero"></path>
                    <path d="M30,13.998822 C30,11.2436955 32.0193259,9 34.4989392,9 C36.9806741,9 39,11.2436955 39,13.998822 C39,16.7563045 36.9806741,19 34.4989392,19 C32.0193259,19 30,16.7563045 30,13.998822 Z" id="Path" fill="#FCF8F3" fill-rule="nonzero"></path>
                    <path d="M55.3235409,0 L13.0569442,0 C10.3261113,0 9.2920381,2.04706631 8.7315656,6.39573538 L0.152291818,72.9617529 C-0.408180685,77.310422 0.489172025,78.7797309 4.34207372,78.7797309 L51.6460186,78.7797309 C52.2283091,78.7797309 54.2647145,79.2753364 54.6672473,78.7797309 C63.0105703,68.1251098 66.9012683,62.7973504 66.9019017,62.7964526 C67.2229317,62.3372095 66.6610137,60.9177308 66.5701842,60.209338 L63.0283387,32.5859532 C61.5468593,32.0940125 60.8649478,32.3238953 60.9779281,33.2756016 L64.1753234,60.209338 L55.3182284,60.209338 C53.9594738,60.209338 52.3377103,60.209338 50.4529381,60.209338 L15.1479124,60.209338 C13.9699299,60.209338 13.7615059,62.7964526 14.9515849,62.7964526 L50.6191508,62.7964526 L51.4466671,75.6768093 L4.68532902,75.6768093 C3.37486999,75.6768093 2.45423572,74.4579969 2.63305396,72.9617529 L10.6768161,5.65636744 C10.8556344,4.16012349 11.7774012,2.94265774 12.7314178,2.94265774 L55.646719,2.94265774 C56.6007357,2.94265774 57.5215309,4.16012349 57.6991551,5.65636744 L60.9779281,33.2756016 C61.1475584,34.7045077 63.2999779,34.7045077 63.1167648,33.2756016 L59.5754515,5.65636744 C59.2037299,2.75725472 57.7810811,0.871798912 55.3235409,0 Z" id="Path" fill="#3E437C" fill-rule="nonzero" opacity="0.741396949"></path>
                    <path d="M56.555493,64 L63,64 L54,73 L54,66.5542254 C54,65.1459155 55.1471833,64 56.555493,64 L56.555493,64 Z" id="Path" fill="#FFAAA5" fill-rule="nonzero" opacity="0.741396949"></path>
                </g>
                <g id="Group-12-Copy" transform="translate(67.000000, 132.000000)">
                    <path d="M15.2179235,0 L51.8868192,0 C54.885583,3.37314442e-16 57.4238734,2.21402399 57.8312085,5.18499396 L66,64.765506 L66,64.765506 L57.0609892,76.0735112 L6.93643433,76.8873744 C3.62316255,76.9411714 0.893614004,74.298845 0.839817018,70.9855732 C0.835118178,70.696179 0.851365467,70.4068241 0.88843162,70.1197751 L9.26732886,5.23160994 C9.65365686,2.23979442 12.2012682,1.44232902e-15 15.2179235,0 Z" id="Rectangle" fill="#FCF8F3"></path>
                    <path d="M57.4781307,37 L12.5218693,37 C11.1295873,37 10,37.6718752 10,38.5 C10,39.3289064 11.1295873,40 12.5218693,40 L57.4781307,40 C58.8704127,40 60,39.3289064 60,38.5 C60,37.6718752 58.8704127,37 57.4781307,37 L57.4781307,37 Z" id="Path" fill="#3E437C" fill-rule="nonzero"></path>
                    <path d="M57.4781307,49 L12.5218693,49 C11.1295873,49 10,49.6710936 10,50.5 C10,51.3289062 11.1295873,52 12.5218693,52 L57.4781307,52 C58.8704127,52 60,51.3289062 60,50.5 C60,49.6710936 58.8704127,49 57.4781307,49 L57.4781307,49 Z" id="Path" fill="#3E437C" fill-rule="nonzero"></path>
                    <path d="M57.4781307,26 L12.5218693,26 C11.1295873,26 10,26.671875 10,27.5 C10,28.3289062 11.1295873,29 12.5218693,29 L57.4781307,29 C58.8704127,29 60,28.3289062 60,27.5 C60,26.671875 58.8704127,26 57.4781307,26 L57.4781307,26 Z" id="Path" fill="#3E437C" fill-rule="nonzero"></path>
                    <path d="M40,13.499455 C40,9.91554151 37.0844585,7 33.4994547,7 C29.9155412,7 27,9.91554151 27,13.499455 C27,17.0844588 29.9155412,20 33.4994547,20 C37.0844585,20 40,17.0844588 40,13.499455 Z" id="Path" fill="#53578D" fill-rule="nonzero"></path>
                    <path d="M30,13.998822 C30,11.2436955 32.0193259,9 34.4989392,9 C36.9806741,9 39,11.2436955 39,13.998822 C39,16.7563045 36.9806741,19 34.4989392,19 C32.0193259,19 30,16.7563045 30,13.998822 Z" id="Path" fill="#FCF8F3" fill-rule="nonzero"></path>
                    <path d="M55.3235409,0 L13.0569442,0 C10.3261113,0 9.2920381,2.04706631 8.7315656,6.39573538 L0.152291818,72.9617529 C-0.408180685,77.310422 0.489172025,78.7797309 4.34207372,78.7797309 L51.6460186,78.7797309 C52.2283091,78.7797309 54.2647145,79.2753364 54.6672473,78.7797309 C63.0105703,68.1251098 66.9012683,62.7973504 66.9019017,62.7964526 C67.2229317,62.3372095 66.6610137,60.9177308 66.5701842,60.209338 L63.0283387,32.5859532 C61.5468593,32.0940125 60.8649478,32.3238953 60.9779281,33.2756016 L64.1753234,60.209338 L55.3182284,60.209338 C53.9594738,60.209338 52.3377103,60.209338 50.4529381,60.209338 L15.1479124,60.209338 C13.9699299,60.209338 13.7615059,62.7964526 14.9515849,62.7964526 L50.6191508,62.7964526 L51.4466671,75.6768093 L4.68532902,75.6768093 C3.37486999,75.6768093 2.45423572,74.4579969 2.63305396,72.9617529 L10.6768161,5.65636744 C10.8556344,4.16012349 11.7774012,2.94265774 12.7314178,2.94265774 L55.646719,2.94265774 C56.6007357,2.94265774 57.5215309,4.16012349 57.6991551,5.65636744 L60.9779281,33.2756016 C61.1475584,34.7045077 63.2999779,34.7045077 63.1167648,33.2756016 L59.5754515,5.65636744 C59.2037299,2.75725472 57.7810811,0.871798912 55.3235409,0 Z" id="Path" fill="#3E437C" fill-rule="nonzero" opacity="0.741396949"></path>
                    <path d="M56.555493,64 L63,64 L54,73 L54,66.5542254 C54,65.1459155 55.1471833,64 56.555493,64 L56.555493,64 Z" id="Path" fill="#FFAAA5" fill-rule="nonzero" opacity="0.741396949"></path>
                </g>
            </g>
        </g>
    </g>
</svg>