<?xml version="1.0" encoding="UTF-8"?>
<svg width="344px" height="322px" viewBox="0 0 344 322" version="1.1" xmlns="http://www.w3.org/2000/svg" xmlns:xlink="http://www.w3.org/1999/xlink">
    <!-- Generator: Sketch 62 (91390) - https://sketch.com -->
    <title>image-head</title>
    <desc>Created with Sketch.</desc>
    <defs>
        <path d="M7.8766494,13.9410667 C48.8833484,-10.449936 229.392032,4.58140359 229.392032,4.58140359 C229.392032,4.58140359 382.297826,21.8704183 334.878665,52.8181422 C287.457907,83.7676687 202.50217,32.3377392 149.623913,52.7505472 C96.7456565,73.1642564 -33.1300496,38.3320695 7.8766494,13.9410667 Z" id="path-1"></path>
        <linearGradient x1="50.0001161%" y1="98.1633376%" x2="50.0001161%" y2="71.7376988%" id="linearGradient-3">
            <stop stop-color="#ABD1E5" offset="0%"></stop>
            <stop stop-color="#E1F1F3" offset="100%"></stop>
        </linearGradient>
        <path d="M6.94707692,0.566153846 C0.419076923,-1.42076923 -0.850153846,9.91230769 0.649846154,19.56 L10.6698462,19.5538462 C10.6698462,19.5538462 13.4750769,2.55307692 6.94707692,0.566153846" id="path-4"></path>
        <linearGradient x1="0.00410357931%" y1="50.0004551%" x2="100.000553%" y2="50.0004551%" id="linearGradient-6">
            <stop stop-color="#E57777" offset="0%"></stop>
            <stop stop-color="#E36571" offset="100%"></stop>
        </linearGradient>
        <polyline id="path-7" points="6.481 4.55666667 1.503 4.56 0.401 0.31 5.379 0.3075 6.481 4.55666667"></polyline>
        <linearGradient x1="0%" y1="49.9941211%" x2="100%" y2="49.9941211%" id="linearGradient-9">
            <stop stop-color="#E57777" offset="0%"></stop>
            <stop stop-color="#E36571" offset="100%"></stop>
        </linearGradient>
        <polyline id="path-10" points="28.6782812 17.2071818 4.38625 17.2219091 0.41234375 0.624272727 24.704375 0.609545455 28.6782812 17.2071818"></polyline>
        <linearGradient x1="0%" y1="49.999015%" x2="99.9977557%" y2="49.999015%" id="linearGradient-12">
            <stop stop-color="#283654" offset="0%"></stop>
            <stop stop-color="#365280" offset="100%"></stop>
        </linearGradient>
        <polyline id="path-13" points="28.7181563 16.4891905 4.426125 16.5037619 0.45221875 0.0817619048 24.74425 0.0671904762 28.7181563 16.4891905"></polyline>
        <linearGradient x1="0%" y1="50%" x2="99.9977557%" y2="50%" id="linearGradient-15">
            <stop stop-color="#283654" offset="0%"></stop>
            <stop stop-color="#365280" offset="100%"></stop>
        </linearGradient>
        <polyline id="path-16" points="29.1245455 17.2718182 4.75545455 17.2865455 0.77 0.688909091 25.1381818 0.674181818 29.1245455 17.2718182"></polyline>
        <linearGradient x1="0%" y1="50%" x2="99.9980763%" y2="50%" id="linearGradient-18">
            <stop stop-color="#283654" offset="0%"></stop>
            <stop stop-color="#365280" offset="100%"></stop>
        </linearGradient>
        <polyline id="path-19" points="21.8808333 54.3575362 13.9443333 54.3623188 0.458333333 0.10442029 8.39483333 0.0996376812 21.8808333 54.3575362"></polyline>
        <linearGradient x1="0%" y1="49.9998531%" x2="99.9987163%" y2="49.9998531%" id="linearGradient-21">
            <stop stop-color="#283654" offset="0%"></stop>
            <stop stop-color="#365280" offset="100%"></stop>
        </linearGradient>
        <polyline id="path-22" points="125.4519 6.860875 1.4418 6.943125 0.027 0.574875 124.0371 0.492625 125.4519 6.860875"></polyline>
        <linearGradient x1="0%" y1="50%" x2="100.000718%" y2="50%" id="linearGradient-24">
            <stop stop-color="#283654" offset="0%"></stop>
            <stop stop-color="#365280" offset="100%"></stop>
        </linearGradient>
        <polyline id="path-25" points="125.1558 2.88375 1.2276 2.9535 0.6525 0.7365 124.5807 0.66675 125.1558 2.88375"></polyline>
        <linearGradient x1="0%" y1="50.0163988%" x2="100%" y2="50.0163988%" id="linearGradient-27">
            <stop stop-color="#283654" offset="0%"></stop>
            <stop stop-color="#365280" offset="100%"></stop>
        </linearGradient>
        <path d="M16.233,6.864 L13.9878261,1.9008 C6.6716087,5.7072 -0.356086957,10.6784 0.494869565,15.448 L41.9205652,3.5152 L41.3206957,0.1568 L16.233,6.864" id="path-28"></path>
        <linearGradient x1="-0.000306478729%" y1="50%" x2="99.9977997%" y2="50%" id="linearGradient-30">
            <stop stop-color="#E57777" offset="0%"></stop>
            <stop stop-color="#E36571" offset="100%"></stop>
        </linearGradient>
        <linearGradient x1="50%" y1="0%" x2="50%" y2="100%" id="linearGradient-31">
            <stop stop-color="#F3D2B9" offset="0%"></stop>
            <stop stop-color="#F3B78E" offset="100%"></stop>
        </linearGradient>
        <path d="M86.2668438,46.8751765 C85.0370625,25.8127941 76.9968125,3.43376471 54.813625,0.810794118 L54.8181563,0.808411765 C24.7206875,-1.27376471 14.5135937,13.6215 0.721375,28.4159118 C8.19703125,39.501 17.7090312,40.0838824 17.7090312,40.0838824 C13.4134062,53.7379412 25.7220937,106.3395 25.7220937,106.3395 L75.824125,107.379 C75.824125,107.379 88.1899062,79.8239118 86.2668438,46.8751765" id="path-32"></path>
        <linearGradient x1="0%" y1="50.0001423%" x2="99.9998706%" y2="50.0001423%" id="linearGradient-34">
            <stop stop-color="#6685B6" offset="0%"></stop>
            <stop stop-color="#B4CCE0" offset="100%"></stop>
        </linearGradient>
        <path d="M156.874054,1.0465443 C156.874054,1.0465443 109.314968,1.0465443 109.314968,1.0489557 C79.9409247,-0.161563291 17.7100806,-1.9379557 3.3453871,21.4011076 C-9.58454301,42.4091582 22.0224516,126.868177 22.0224516,126.868177 L32.9385054,125.138405 L29.2052473,36.8348228 C80.6116183,41.1825633 96.2377903,40.2903481 114.26571,42.4027278 C129.807484,44.2233291 167.984043,51.0813291 166.829409,26.2029937 C166.178468,12.2008418 159.36379,1.0465443 156.874054,1.0465443" id="path-35"></path>
        <linearGradient x1="-0.00026736682%" y1="49.9997762%" x2="99.9997108%" y2="49.9997762%" id="linearGradient-37">
            <stop stop-color="#283654" offset="0%"></stop>
            <stop stop-color="#365280" offset="100%"></stop>
        </linearGradient>
        <path d="M2.26664063,8.70079787 C9.73275,-1.9787234 26.2289063,0.178723404 26.2289063,0.178723404 C54.285375,6.00398936 42.8461875,36.531383 51.5146406,43.974734 C60.184875,51.4172872 59.5828125,68.2452128 37.3065,73.4234043 C15.0301875,78.6007979 15.753375,61.9890957 12.6219375,59.9393617 C9.49228125,57.8896277 4.80314063,59.1989362 4.80314063,59.1989362 C4.80314063,59.1989362 0.529921875,51.9303191 4.3783125,39.7875 C6.71353125,32.4239362 5.84784375,24.3223404 1.22104688,17.8875 C-0.357140625,15.6933511 -0.53259375,12.7053191 2.26664063,8.70079787 Z" id="path-38"></path>
        <linearGradient x1="69.1915781%" y1="10.5902163%" x2="83.9469439%" y2="10.5902163%" id="linearGradient-40">
            <stop stop-color="#5A3A39" offset="0%"></stop>
            <stop stop-color="#5A3A39" offset="100%"></stop>
        </linearGradient>
        <path d="M0.336,1.98547826 L5.68977778,17.1633913 C5.87555556,17.6893043 6.50933333,17.9827826 7.10666667,17.8192174 C7.70311111,17.6564348 8.03733333,17.0976522 7.85155556,16.5717391 L2.49777778,1.39382609 C2.312,0.867913043 1.67822222,0.574434783 1.08088889,0.738 C0.484444444,0.900782609 0.150222222,1.45956522 0.336,1.98547826" id="path-41"></path>
        <linearGradient x1="-0.0026258761%" y1="50%" x2="99.9991255%" y2="50%" id="linearGradient-43">
            <stop stop-color="#283654" offset="0%"></stop>
            <stop stop-color="#365280" offset="100%"></stop>
        </linearGradient>
        <linearGradient x1="50%" y1="0%" x2="50%" y2="100%" id="linearGradient-44">
            <stop stop-color="#ECBB9A" offset="0%"></stop>
            <stop stop-color="#ECBB9A" offset="100%"></stop>
        </linearGradient>
        <path d="M17.2394167,5.4952 L15.9198542,0.288 C8.17,3.0592 0.498979167,7.02 0.498979167,11.848 L42.7187083,5.66 L42.7187083,2.2616 L17.2394167,5.4952" id="path-45"></path>
        <linearGradient x1="0%" y1="50%" x2="99.9997878%" y2="50%" id="linearGradient-47">
            <stop stop-color="#E57777" offset="0%"></stop>
            <stop stop-color="#E36571" offset="100%"></stop>
        </linearGradient>
        <polyline id="path-48" points="30.9243235 0.215181818 0.654647059 0.215181818 3.68717647 17.8281818 27.8917941 17.8281818 30.9243235 0.215181818"></polyline>
        <linearGradient x1="-0.00150606946%" y1="49.9976773%" x2="99.9996988%" y2="49.9976773%" id="linearGradient-50">
            <stop stop-color="#E57777" offset="0%"></stop>
            <stop stop-color="#E36571" offset="100%"></stop>
        </linearGradient>
        <path d="M3.79133333,5.66345455 C3.79133333,5.66345455 3.03416667,8.63181818 5.06275,8.58272727 C7.09133333,8.53281818 6.42858333,5.74281818 6.42858333,5.74281818 C6.42858333,5.74281818 9.88533333,7.92 10.6104167,5.98009091 C11.3355,4.04018182 7.942,3.987 7.942,3.987 C7.942,3.987 10.1731667,2.457 9.00258333,1.41136364 C7.83108333,0.364909091 5.78875,3.04772727 5.78875,3.04772727 C5.78875,3.04772727 6.10683333,0.377181818 4.3395,0.293727273 C2.57308333,0.211090909 2.24491667,2.63781818 4.06266667,3.68672727 C-0.75075,2.83336364 0.0815833333,7.263 3.79133333,5.66345455" id="path-51"></path>
        <linearGradient x1="-0.00171580807%" y1="50.0038487%" x2="99.997806%" y2="50.0038487%" id="linearGradient-53">
            <stop stop-color="#E57777" offset="0%"></stop>
            <stop stop-color="#E36571" offset="100%"></stop>
        </linearGradient>
        <path d="M3.949,4.40228571 C3.949,4.40228571 2.291,6.41228571 1.346,5.586 C0.401,4.75971429 2.47,3.84514286 2.47,3.84514286 C2.47,3.84514286 0.527,3.93685714 0.39,3.15942857 C0.253,2.38114286 0.957,2.12485714 2.657,2.85342857 C1.382,0.667714286 2.991,0.123428571 3.655,0.669428571 C4.32,1.21628571 4.574,2.54742857 4.574,2.54742857 C4.574,2.54742857 6.126,1.53428571 6.71,2.172 C7.294,2.80885714 5.525,3.43371429 5.525,3.43371429 C5.525,3.43371429 7.323,4.31142857 6.804,5.08542857 C6.286,5.85942857 3.949,4.40228571 3.949,4.40228571" id="path-54"></path>
        <linearGradient x1="-0.000685354586%" y1="49.9957982%" x2="99.9975546%" y2="49.9957982%" id="linearGradient-56">
            <stop stop-color="#E57777" offset="0%"></stop>
            <stop stop-color="#E36571" offset="100%"></stop>
        </linearGradient>
        <path d="M85.2293165,0.665883721 C64.2931655,1.17405814 47.8723022,16.8549826 47.8723022,35.4057384 L47.8723022,75.3412384 C47.8723022,91.6251221 32.9676259,104.826506 14.5818345,104.826506 C-0.538669065,104.826506 -5.53057554,123.029186 8.04856115,128.922576 C18.3390288,133.389413 33.3192446,136.680599 55.1241007,136.680599 C122.96223,136.680599 124.747302,104.826506 124.747302,104.826506 L124.747302,34.6976395 C124.747302,15.5773779 106.951439,0.137796512 85.2293165,0.665883721" id="path-57"></path>
        <linearGradient x1="-0.000255893513%" y1="49.9998582%" x2="100%" y2="49.9998582%" id="linearGradient-59">
            <stop stop-color="#FFAAA5" offset="0%"></stop>
            <stop stop-color="#E36571" offset="100%"></stop>
        </linearGradient>
    </defs>
    <g id="Page-1" stroke="none" stroke-width="1" fill="none" fill-rule="evenodd">
        <g id="landing-page" transform="translate(-1065.000000, -583.000000)">
            <g id="image-head" transform="translate(1065.000000, 583.000000)">
                <g id="Group-3" transform="translate(0.000000, 259.000000)">
                    <mask id="mask-2" fill="white">
                        <use xlink:href="#path-1"></use>
                    </mask>
                    <g id="Clip-2"></g>
                    <polygon id="Fill-1" fill="url(#linearGradient-3)" mask="url(#mask-2)" points="0 87.4125 344 87.4125 344 -308.7 0 -308.7"></polygon>
                </g>
                <polygon id="Fill-4" fill="#E1F1F3" points="0 142 344 142 344 125 0 125"></polygon>
                <polyline id="Fill-5" fill="#A2C0DB" points="12.1040724 296 6.89683258 296 4 128 15 128 12.1040724 296"></polyline>
                <polyline id="Fill-6" fill="#A2C0DB" points="32.1040724 295 26.8959276 295 24 127 35 127 32.1040724 295"></polyline>
                <polyline id="Fill-7" fill="#A2C0DB" points="317.103406 296 311.896594 296 309 128 320 128 317.103406 296"></polyline>
                <polyline id="Fill-8" fill="#A2C0DB" points="337.104072 294 331.895928 294 329 126 340 126 337.104072 294"></polyline>
                <path d="M82.3007115,69 L62,125 C78.0843823,125 82.0848798,125 98,125 L82.3007115,69" id="Fill-9" fill="#2A3757"></path>
                <path d="M227.569151,124.958397 L90.2157505,125 C86.5202082,125 82.8933697,122.559857 82.1159317,119.548482 L60.1478852,34.4963213 C59.3704473,31.4849457 61.7353051,29.0424033 65.4317514,29.0416032 L202.784248,29 C206.47979,28.9984007 210.106628,31.4393431 210.884066,34.4515187 L232.852113,119.502879 C233.629551,122.515055 231.264693,124.957597 227.569151,124.958397" id="Fill-10" fill="#131C2C"></path>
                <path d="M236.998185,124.956797 L94.690623,125 C91.2867607,125.001599 87.9459328,122.744705 87.2300411,119.959789 L65.1364528,34.0874121 C64.4196606,31.3024961 66.5979524,29.044002 70.0018148,29.043202 L212.309377,29 C215.71414,29 219.054067,31.2560942 219.770859,34.0410102 L241.863547,119.913387 C242.580339,122.698303 240.402048,124.955997 236.998185,124.956797" id="Fill-11" fill="#283654"></path>
                <polyline id="Fill-12" fill="#131C2C" points="233 117.962779 109.035523 118 88 37.0372206 211.963577 37 233 117.962779"></polyline>
                <path d="M88.2357413,82 L88.2357413,82 C91.4772985,81.9992021 93.5529645,79.7594321 92.8699868,76.9980062 C92.1878714,74.2365803 89.0066783,71.9984056 85.7642587,72 C82.5227015,72.0007985 80.4470355,74.2397709 81.1300132,77.0019944 C81.8121286,79.7634203 84.9933217,82.0007974 88.2357413,82" id="Fill-13" fill="#131C2C"></path>
                <path d="M78.0933589,66.5015585 L78.0933589,66.5015585 C78.5853153,68.4346617 80.8785087,70 83.2159522,70 L86.5659408,69.9984417 C88.9025166,69.9984417 90.3983416,68.4307659 89.9063853,66.4976627 C89.4144289,64.5653386 87.1212355,62.9992211 84.783792,63 L81.4346711,63.0015586 C79.0972276,63.0015586 77.6022702,64.5692344 78.0933589,66.5015585" id="Fill-14" fill="#131C2C"></path>
                <path d="M85.0936128,89.5015583 L85.0936128,89.5015583 C85.5855587,91.4346615 87.8787036,93.0007789 90.2160976,93 L93.5651477,92.9992205 C95.9025417,92.9984414 97.398335,91.4307656 96.9063891,89.4984417 C96.4144431,87.5661177 94.1212982,85.9992211 91.7839042,86 L88.4339865,86.0015586 C86.0974602,86.0023378 84.6016668,87.5692344 85.0936128,89.5015583" id="Fill-15" fill="#131C2C"></path>
                <polyline id="Fill-16" fill="#FFFFFE" points="197 107.960948 132.029349 108 117 46.0390519 181.970651 46 197 107.960948"></polyline>
                <path d="M135.524867,77.0130187 C138.151094,88.0593954 149.894823,97.0073185 161.754915,97 C173.615901,96.9926725 181.100738,88.0325443 178.475406,76.9869813 C175.848284,65.9406046 164.104555,56.9926815 152.244464,57 C140.384372,57.0073275 132.89864,65.9674557 135.524867,77.0130187" id="Fill-17" fill="#A2C0DB"></path>
                <path d="M155.27943,86 C155.27943,86 143.768312,55.0933292 151.916747,55 C160.065182,54.9062859 164,85.994332 164,85.994332" id="Fill-18" fill="#131C2C"></path>
                <path d="M145.928603,62.031967 C136.372672,63.0787841 153.261194,86 153.261194,86 L161,85.9960015 C161,85.9960015 155.484534,60.9851499 145.928603,62.031967" id="Fill-19" fill="#5A6987"></path>
                <g id="Group-22" transform="translate(156.000000, 66.000000)">
                    <mask id="mask-5" fill="white">
                        <use xlink:href="#path-4"></use>
                    </mask>
                    <g id="Clip-21"></g>
                    <path d="M6.94707692,0.566153846 C0.419076923,-1.42076923 -0.850153846,9.91230769 0.649846154,19.56 L10.6698462,19.5538462 C10.6698462,19.5538462 13.4750769,2.55307692 6.94707692,0.566153846" id="Fill-20" fill="url(#linearGradient-6)" mask="url(#mask-5)"></path>
                </g>
                <path d="M169.281338,86 L149,86.0115945 C149,86.0115945 151.693946,96.689322 157.834597,101 L167.638868,100.994203 C171.709657,96.6768993 169.281338,86 169.281338,86" id="Fill-23" fill="#2A3757"></path>
                <g id="Group-26" transform="translate(175.000000, 52.000000)">
                    <mask id="mask-8" fill="white">
                        <use xlink:href="#path-7"></use>
                    </mask>
                    <g id="Clip-25"></g>
                    <polyline id="Fill-24" fill="url(#linearGradient-9)" mask="url(#mask-8)" points="6.481 4.55666667 1.503 4.56 0.401 0.31 5.379 0.3075 6.481 4.55666667"></polyline>
                </g>
                <polyline id="Fill-27" fill="#131C2C" points="181 60.9970606 176.90625 61 176 56.0039193 180.09375 56 181 60.9970606"></polyline>
                <polyline id="Fill-28" fill="#5A6987" points="182 65.9970606 177.905577 66 177 61.0029394 181.093601 61 182 65.9970606"></polyline>
                <polyline id="Fill-29" fill="#A2C0DB" points="183 69.9970606 178.905428 70 178 65.0029394 182.092928 65 183 69.9970606"></polyline>
                <polyline id="Fill-30" fill="#2A3757" points="185 74.9960815 180.905428 75 180 70.0039185 184.092928 70 185 74.9960815"></polyline>
                <g id="Group-33" transform="translate(188.000000, 43.000000)">
                    <mask id="mask-11" fill="white">
                        <use xlink:href="#path-10"></use>
                    </mask>
                    <g id="Clip-32"></g>
                    <polyline id="Fill-31" fill="url(#linearGradient-12)" mask="url(#mask-11)" points="28.6782812 17.2071818 4.38625 17.2219091 0.41234375 0.624272727 24.704375 0.609545455 28.6782812 17.2071818"></polyline>
                </g>
                <polyline id="Fill-34" fill="#121514" points="213 45.9883344 188.60434 46 188 44.0116656 212.396571 44 213 45.9883344"></polyline>
                <g id="Group-37" transform="translate(192.000000, 62.000000)">
                    <mask id="mask-14" fill="white">
                        <use xlink:href="#path-13"></use>
                    </mask>
                    <g id="Clip-36"></g>
                    <polyline id="Fill-35" fill="url(#linearGradient-15)" mask="url(#mask-14)" points="28.7181563 16.4891905 4.426125 16.5037619 0.45221875 0.0817619048 24.74425 0.0671904762 28.7181563 16.4891905"></polyline>
                </g>
                <polyline id="Fill-38" fill="#121514" points="219 63.9883344 194.60434 64 194 62.0116656 218.396571 62 219 63.9883344"></polyline>
                <g id="Group-41" transform="translate(197.000000, 81.000000)">
                    <mask id="mask-17" fill="white">
                        <use xlink:href="#path-16"></use>
                    </mask>
                    <g id="Clip-40"></g>
                    <polyline id="Fill-39" fill="url(#linearGradient-18)" mask="url(#mask-17)" points="29.1245455 17.2718182 4.75545455 17.2865455 0.77 0.688909091 25.1381818 0.674181818 29.1245455 17.2718182"></polyline>
                </g>
                <polyline id="Fill-42" fill="#121514" points="223 84.9883382 198.603429 85 198 83.0116618 222.396571 83 223 84.9883382"></polyline>
                <g id="Group-45" transform="translate(93.000000, 44.000000)">
                    <mask id="mask-20" fill="white">
                        <use xlink:href="#path-19"></use>
                    </mask>
                    <g id="Clip-44"></g>
                    <polyline id="Fill-43" fill="url(#linearGradient-21)" mask="url(#mask-20)" points="21.8808333 54.3575362 13.9443333 54.3623188 0.458333333 0.10442029 8.39483333 0.0996376812 21.8808333 54.3575362"></polyline>
                </g>
                <g id="Group-48" transform="translate(88.000000, 36.000000)">
                    <mask id="mask-23" fill="white">
                        <use xlink:href="#path-22"></use>
                    </mask>
                    <g id="Clip-47"></g>
                    <polyline id="Fill-46" fill="url(#linearGradient-24)" mask="url(#mask-23)" points="125.4519 6.860875 1.4418 6.943125 0.027 0.574875 124.0371 0.492625 125.4519 6.860875"></polyline>
                </g>
                <g id="Group-51" transform="translate(108.000000, 115.000000)">
                    <mask id="mask-26" fill="white">
                        <use xlink:href="#path-25"></use>
                    </mask>
                    <g id="Clip-50"></g>
                    <polyline id="Fill-49" fill="url(#linearGradient-27)" mask="url(#mask-26)" points="125.1558 2.88375 1.2276 2.9535 0.6525 0.7365 124.5807 0.66675 125.1558 2.88375"></polyline>
                </g>
                <g id="Group-54" transform="translate(165.000000, 288.000000)">
                    <mask id="mask-29" fill="white">
                        <use xlink:href="#path-28"></use>
                    </mask>
                    <g id="Clip-53"></g>
                    <path d="M16.233,6.864 L13.9878261,1.9008 C6.6716087,5.7072 -0.356086957,10.6784 0.494869565,15.448 L41.9205652,3.5152 L41.3206957,0.1568 L16.233,6.864" id="Fill-52" fill="url(#linearGradient-30)" mask="url(#mask-29)"></path>
                </g>
                <path d="M205,288.167445 L203.588489,280 L193.053113,283.262251 C193.053113,283.262251 185.376837,285.985005 178,289.94404 L180.217831,295 L205,288.167445" id="Fill-55" fill="#F2B9AD"></path>
                <path d="M294.342425,163.246564 C286.819988,161.828695 277.152134,161 264.975005,161 C264.975005,161 192.883417,160.574396 175.760508,185.259038 C158.639396,209.942084 193.20505,284 193.20505,284 L203.696751,281.014257 L200.092306,196.748802 C200.092306,196.748802 231.438936,201.856162 271.990735,201.856162 C280.8581,201.856162 289.605077,199.902104 296.965799,196.850136 C307.779133,183.458177 298.419436,168.558186 294.342425,163.246564" id="Fill-56" fill="#283654"></path>
                <path d="M194.80365,102.482586 C187.287387,106.429632 179.007522,109.170098 170.668707,111.44264 C160.353188,114.253415 149.695938,116.509794 139,117.894978 L140.956439,126 C140.956439,126 201.616185,125.483587 228.875535,101.566942 C231.071463,99.6411006 233.098828,97.7427362 235,95.8742736 C235,95.8742736 225.332022,95.2810852 217.73378,84 C211.507071,90.6891283 204.561897,97.3580527 194.80365,102.482586 Z" id="Fill-57" fill="url(#linearGradient-31)"></path>
                <g id="Group-60" transform="translate(216.000000, 56.000000)">
                    <mask id="mask-33" fill="white">
                        <use xlink:href="#path-32"></use>
                    </mask>
                    <g id="Clip-59"></g>
                    <path d="M86.2668438,46.8751765 C85.0370625,25.8127941 76.9968125,3.43376471 54.813625,0.810794118 L54.8181563,0.808411765 C24.7206875,-1.27376471 14.5135937,13.6215 0.721375,28.4159118 C8.19703125,39.501 17.7090312,40.0838824 17.7090312,40.0838824 C13.4134062,53.7379412 25.7220937,106.3395 25.7220937,106.3395 L75.824125,107.379 C75.824125,107.379 88.1899062,79.8239118 86.2668438,46.8751765" id="Fill-58" fill="url(#linearGradient-34)" mask="url(#mask-33)"></path>
                </g>
                <g id="Group-63" transform="translate(136.000000, 159.000000)">
                    <mask id="mask-36" fill="white">
                        <use xlink:href="#path-35"></use>
                    </mask>
                    <g id="Clip-62"></g>
                    <path d="M156.874054,1.0465443 C156.874054,1.0465443 109.314968,1.0465443 109.314968,1.0489557 C79.9409247,-0.161563291 17.7100806,-1.9379557 3.3453871,21.4011076 C-9.58454301,42.4091582 22.0224516,126.868177 22.0224516,126.868177 L32.9385054,125.138405 L29.2052473,36.8348228 C80.6116183,41.1825633 96.2377903,40.2903481 114.26571,42.4027278 C129.807484,44.2233291 167.984043,51.0813291 166.829409,26.2029937 C166.178468,12.2008418 159.36379,1.0465443 156.874054,1.0465443" id="Fill-61" fill="url(#linearGradient-37)" mask="url(#mask-36)"></path>
                </g>
                <path d="M260.587428,1.008927 C260.587428,1.008927 248.384814,1.57265177 243.442146,16.499829 C238.499477,31.4270063 247.432044,45.6036107 252.628723,47.3870164 C257.82632,49.1704221 270.006926,46.494916 270.006926,46.494916 C270.006926,46.494916 283,43.3964176 283,25.2308045 C283,7.06519148 271.631862,0.727462171 260.587428,1.008927" id="Fill-64" fill="#F3D2B9"></path>
                <g id="Group-7" transform="translate(243.000000, 0.000000)">
                    <mask id="mask-39" fill="white">
                        <use xlink:href="#path-38"></use>
                    </mask>
                    <g id="Clip-66"></g>
                    <polygon id="Fill-65" fill="url(#linearGradient-40)" mask="url(#mask-39)" points="-265.40625 351.354255 118.299047 351.354255 118.299047 0 -265.40625 0"></polygon>
                </g>
                <g id="Group-70" transform="translate(124.000000, 103.000000)">
                    <mask id="mask-42" fill="white">
                        <use xlink:href="#path-41"></use>
                    </mask>
                    <g id="Clip-69"></g>
                    <path d="M0.336,1.98547826 L5.68977778,17.1633913 C5.87555556,17.6893043 6.50933333,17.9827826 7.10666667,17.8192174 C7.70311111,17.6564348 8.03733333,17.0976522 7.85155556,16.5717391 L2.49777778,1.39382609 C2.312,0.867913043 1.67822222,0.574434783 1.08088889,0.738 C0.484444444,0.900782609 0.150222222,1.45956522 0.336,1.98547826" id="Fill-68" fill="url(#linearGradient-43)" mask="url(#mask-42)"></path>
                </g>
                <path d="M141.058086,117.232094 C141.058086,117.232094 133.490655,111.305281 129.490714,115.503311 C121.849226,115.655122 123.878911,121.47195 125.609628,122.989283 C127.341259,124.506615 129.132319,125 129.132319,125 L143,125 L141.058086,117.232094" id="Fill-71" fill="url(#linearGradient-44)"></path>
                <g id="Group-74" transform="translate(126.000000, 289.000000)">
                    <mask id="mask-46" fill="white">
                        <use xlink:href="#path-45"></use>
                    </mask>
                    <g id="Clip-73"></g>
                    <path d="M17.2394167,5.4952 L15.9198542,0.288 C8.17,3.0592 0.498979167,7.02 0.498979167,11.848 L42.7187083,5.66 L42.7187083,2.2616 L17.2394167,5.4952" id="Fill-72" fill="url(#linearGradient-47)" mask="url(#mask-46)"></path>
                </g>
                <path d="M169,291.865562 L169,284 L158.026709,285.668805 C158.026709,285.668805 149.971386,287.209658 142,289.952485 L143.329467,295 L169,291.865562" id="Fill-75" fill="#F2B9AD"></path>
                <path d="M72,100 L49,100 C49,100 49.0045744,115.537878 52.8763325,125 L68.1236675,125 C71.9954256,115.537878 72,100 72,100" id="Fill-76" fill="#A2C0DB"></path>
                <path d="M66,112 C66,114.761456 68.4617166,117 71.4995609,117 C74.5374052,117 77,114.761456 77,112 C77,109.238544 74.5374052,107 71.4995609,107 C68.4617166,107 66,109.238544 66,112 Z" id="Stroke-77" stroke="#A2C0DB" stroke-width="2.449"></path>
                <g id="Group-80" transform="translate(15.000000, 107.000000)">
                    <mask id="mask-49" fill="white">
                        <use xlink:href="#path-48"></use>
                    </mask>
                    <g id="Clip-79"></g>
                    <polyline id="Fill-78" fill="url(#linearGradient-50)" mask="url(#mask-49)" points="30.9243235 0.215181818 0.654647059 0.215181818 3.68717647 17.8281818 27.8917941 17.8281818 30.9243235 0.215181818"></polyline>
                </g>
                <path d="M26.5000499,86 C15.5788739,86 17.0684186,109 17.0684186,109 L35.9316812,109 C35.9316812,109 37.4203036,86 26.5000499,86" id="Fill-81" fill="#283654"></path>
                <path d="M36.500048,90 C27.8780467,90 29.054016,108 29.054016,108 L43.9460799,108 C43.9460799,108 45.1211624,90 36.500048,90" id="Fill-82" fill="#365280"></path>
                <g id="Group-85" transform="translate(21.000000, 81.000000)">
                    <mask id="mask-52" fill="white">
                        <use xlink:href="#path-51"></use>
                    </mask>
                    <g id="Clip-84"></g>
                    <path d="M3.79133333,5.66345455 C3.79133333,5.66345455 3.03416667,8.63181818 5.06275,8.58272727 C7.09133333,8.53281818 6.42858333,5.74281818 6.42858333,5.74281818 C6.42858333,5.74281818 9.88533333,7.92 10.6104167,5.98009091 C11.3355,4.04018182 7.942,3.987 7.942,3.987 C7.942,3.987 10.1731667,2.457 9.00258333,1.41136364 C7.83108333,0.364909091 5.78875,3.04772727 5.78875,3.04772727 C5.78875,3.04772727 6.10683333,0.377181818 4.3395,0.293727273 C2.57308333,0.211090909 2.24491667,2.63781818 4.06266667,3.68672727 C-0.75075,2.83336364 0.0815833333,7.263 3.79133333,5.66345455" id="Fill-83" fill="url(#linearGradient-53)" mask="url(#mask-52)"></path>
                </g>
                <g id="Group-88" transform="translate(33.000000, 87.000000)">
                    <mask id="mask-55" fill="white">
                        <use xlink:href="#path-54"></use>
                    </mask>
                    <g id="Clip-87"></g>
                    <path d="M3.949,4.40228571 C3.949,4.40228571 2.291,6.41228571 1.346,5.586 C0.401,4.75971429 2.47,3.84514286 2.47,3.84514286 C2.47,3.84514286 0.527,3.93685714 0.39,3.15942857 C0.253,2.38114286 0.957,2.12485714 2.657,2.85342857 C1.382,0.667714286 2.991,0.123428571 3.655,0.669428571 C4.32,1.21628571 4.574,2.54742857 4.574,2.54742857 C4.574,2.54742857 6.126,1.53428571 6.71,2.172 C7.294,2.80885714 5.525,3.43371429 5.525,3.43371429 C5.525,3.43371429 7.323,4.31142857 6.804,5.08542857 C6.286,5.85942857 3.949,4.40228571 3.949,4.40228571" id="Fill-86" fill="url(#linearGradient-56)" mask="url(#mask-55)"></path>
                </g>
                <polyline id="Fill-89" fill="#131C2C" points="199.49706 306 194 306 215.717627 211 221 211.941201 199.49706 306"></polyline>
                <polyline id="Fill-90" fill="#131C2C" points="212.497778 306 207 306 228.716901 211 234 211.941201 212.497778 306"></polyline>
                <polyline id="Fill-91" fill="#131C2C" points="318.502038 306 324 306 302.282373 211 297 211.941201 318.502038 306"></polyline>
                <polyline id="Fill-92" fill="#131C2C" points="306.502038 306 312 306 290.283275 211 285 211.941201 306.502038 306"></polyline>
                <g id="Group-95" transform="translate(197.000000, 88.000000)">
                    <mask id="mask-58" fill="white">
                        <use xlink:href="#path-57"></use>
                    </mask>
                    <g id="Clip-94"></g>
                    <path d="M85.1088743,0.665883721 C64.1089144,1.17405814 47.6380038,16.8549826 47.6380038,35.4057384 L47.6380038,75.3412384 C47.6380038,91.6251221 32.6879013,104.826506 14.2460741,104.826506 C-0.920513536,104.826506 -5.92763426,123.029186 7.6928887,128.922576 C18.0147194,133.389413 33.0405917,136.680599 54.9119043,136.680599 C122.95679,136.680599 124.747302,104.826506 124.747302,104.826506 L124.747302,34.6976395 C124.747302,15.5773779 106.897201,0.137796512 85.1088743,0.665883721" id="Fill-93" fill="url(#linearGradient-59)" mask="url(#mask-58)"></path>
                </g>
            </g>
        </g>
    </g>
</svg>