<?xml version="1.0" encoding="UTF-8"?>
<svg width="50px" height="50px" viewBox="0 0 50 50" version="1.1" xmlns="http://www.w3.org/2000/svg" xmlns:xlink="http://www.w3.org/1999/xlink">
    <!-- Generator: Sketch 62 (91390) - https://sketch.com -->
    <title>invision_icon_pink copy 2</title>
    <desc>Created with Sketch.</desc>
    <g id="Page-1" stroke="none" stroke-width="1" fill="none" fill-rule="evenodd">
        <g id="landing-page" transform="translate(-569.000000, -2585.000000)" fill-rule="nonzero">
            <g id="apps" transform="translate(-90.000000, 2282.000000)">
                <g id="TOOLS" transform="translate(313.000000, 207.000000)">
                    <g id="invision" transform="translate(0.000000, 96.000000)">
                        <g id="invision_icon_pink-copy-2" transform="translate(346.000000, 0.000000)">
                            <rect id="Rectangle" fill="#FF3366" x="0" y="0" width="50" height="50" rx="22.66"></rect>
                            <path d="M16.71,15.732 C18.3581959,15.7023176 19.6736737,14.3483347 19.6558054,12.6999683 C19.6379372,11.0516019 18.2934176,9.72645337 16.6449655,9.73248594 C14.9965135,9.73855982 13.6617621,11.0735469 13.656,12.722 C13.658615,13.5271447 13.98263,14.2979118 14.5560722,14.8630922 C15.1295144,15.4282726 15.9049021,15.7410688 16.71,15.732 Z" id="Path" fill="#FFFFFF"></path>
                            <path d="M10.376,31.848 C10.2029463,32.5897514 10.1123967,33.3483559 10.106,34.11 C10.106,36.76 11.544,38.52 14.598,38.52 C17.132,38.52 19.186,37.016 20.664,34.586 L19.762,38.21 L24.8,38.21 L27.674,26.68 C28.392,23.76 29.784,22.244 31.896,22.244 C33.558,22.244 34.592,23.278 34.592,24.984 C34.5971975,25.5313238 34.5189664,26.0762443 34.36,26.6 L32.878,31.9 C32.6667814,32.6298661 32.561044,33.3861915 32.564,34.146 C32.564,36.662 34.046,38.502 37.146,38.502 C39.796,38.502 41.908,36.796 43.076,32.702 L41.1,31.94 C40.112,34.678 39.258,35.174 38.584,35.174 C37.91,35.174 37.55,34.726 37.55,33.828 C37.568696,33.3540829 37.6438946,32.8840916 37.774,32.428 L39.212,27.264 C39.5343531,26.2057749 39.7007684,25.1062209 39.706,24 C39.706,20.138 37.37,18.122 34.54,18.122 C31.89,18.122 29.194,20.522 27.848,23.028 L28.836,18.512 L21.156,18.512 L20.078,22.49 L23.678,22.49 L21.466,31.35 C19.728,35.212 16.536,35.276 16.136,35.186 C15.478,35.038 15.058,34.786 15.058,33.934 C15.0777661,33.2383659 15.1832284,32.5478229 15.372,31.878 L18.732,18.514 L10.2,18.514 L9.12,22.49 L12.668,22.49 L10.376,31.848 Z" id="Path" fill="#FFFFFF"></path>
                        </g>
                    </g>
                </g>
            </g>
        </g>
    </g>
</svg>