<?xml version="1.0" encoding="UTF-8"?>
<svg width="87px" height="36px" viewBox="0 0 87 36" version="1.1" xmlns="http://www.w3.org/2000/svg" xmlns:xlink="http://www.w3.org/1999/xlink">
    <!-- Generator: Sketch 62 (91390) - https://sketch.com -->
    <title>Group 4</title>
    <desc>Created with Sketch.</desc>
    <g id="Page-1" stroke="none" stroke-width="1" fill="none" fill-rule="evenodd">
        <g id="home-page-copy-2" transform="translate(-319.000000, -798.000000)" fill="#FCF8F3">
            <g id="Group-4" transform="translate(319.000000, 798.000000)">
                <path d="M21.3523514,8.47294615 C23.5492162,10.0428575 23.5492162,38.1722051 21.3523514,35.8656177 C19.9079417,34.3490668 18.7421339,30.1474512 17.8549279,23.2607709 C16.8122781,25.50675 10.3848129,33.9085771 7.99586406,34.6251906 C5.2789065,35.440197 4.51797016,34.2141173 5.2789065,33.304367 C5.94184712,32.5117771 14.543846,24.8065098 17.2090148,23.0589458 C10.1365246,24.0648406 5.36787329,23.4652145 2.90204944,21.2616024 C0.365983519,18.9952176 0.365983519,15.0325532 2.90204944,9.37360908 C7.08782294,9.92280208 8.68484747,11.6521749 7.69312303,14.5617276 C7.10479355,16.2877874 7.11016745,18.5227512 9.59537576,19.5348327 C10.7313837,19.9974629 13.4722349,20.2349452 17.8179292,20.2472796 C18.7096341,11.3511164 19.8877748,7.4263386 21.3523514,8.47294615 Z M3.41285273,0.252174083 C5.22953331,0.851612486 10.2792151,3.90549252 18.5618982,9.41381417 C7.22694332,4.80036467 1.17371493,2.26035054 0.402213013,1.79377177 C-0.755039866,1.09390363 0.687831863,-0.646983521 3.41285273,0.252174083 Z" id="Combined-Shape"></path>
                <path d="M26.2186455,11.5394977 C27.1459439,10.107338 28.6260679,9.67440752 30.6590175,10.2407062 C35.3215356,11.5394977 24.1527328,15.0913188 30.6590175,14.2896698 C33.7187234,13.9126789 40.3277534,10.17588 42.1777703,12.2327749 C44.0277872,14.2896698 42.1777703,20.5336898 42.1777703,23 C42.1777703,25.4663102 39.9257287,15.3181173 34.4832225,20.0082303 C27.4125989,26.1013836 30.6559364,38.1279322 26.2186455,35.6745617 C23.2604515,34.0389813 23.2604515,25.99396 26.2186455,11.5394977 Z" id="Rectangle"></path>
                <path d="M46.8916152,9.0714655 C49.5173304,7.85376777 45.397968,22.6049637 49.1395518,22.2745337 C51.9756853,22.0240666 53.6823649,11.9335139 61.1360473,9.59302444 C63.6447519,8.80528004 64.9327361,9.86196115 65,12.7630678 C64.9038662,29.5667541 64.0514846,37.256806 62.4428553,35.8332235 C60.0299112,33.6978497 60.2208418,20.9201556 60.2208418,17.4210626 C60.2208418,13.9219696 50.1252232,35.1944859 46.8916152,35.8332235 C43.6580071,36.4719611 42.4604693,11.126447 46.8916152,9.0714655 Z" id="Rectangle" transform="translate(54.500000, 22.500000) scale(1, -1) translate(-54.500000, -22.500000) "></path>
                <path d="M74.4451386,11.3296308 C76.3348243,10.8616336 82.8082957,10.48637 85.0600733,13.2014141 C87.439279,16.0701024 86.9592642,20.4598701 86.9621842,21.8045508 L86.9625631,35.8815938 C85.6710543,35.7035891 83.9683613,36.3058546 83.5301314,35.7458383 C81.3889419,33.0096007 85.4105837,25.9730069 84.367955,27.9532698 C83.6104648,29.3919698 81.1346877,30.8463213 79.9662802,35.8815938 C74.1752285,36.1948866 70.5502288,35.8864696 69.091281,34.9563428 C65.4611136,32.6419926 65.4611136,26.8921547 66.8872255,24.7354205 C70.5437851,19.205541 82.0741886,19.4016027 82.0741886,16.5130617 C82.0741886,13.6245208 74.4966,14.835054 70.227938,16.5130617 C65.9592761,18.1910694 66.8872255,13.2014141 74.4451386,11.3296308 Z M74.1671919,23.7777778 C70.9855157,23.7777778 70,25.0682679 70,26.6601667 C70,28.2520655 70,31 74.1671919,31 C78.3343838,31 79,28.6552747 79,26.6601667 C79,24.6650586 77.3488682,23.7777778 74.1671919,23.7777778 Z" id="Shape"></path>
            </g>
        </g>
    </g>
</svg>