<?xml version="1.0" encoding="UTF-8"?>
<svg width="81px" height="37px" viewBox="0 0 81 37" version="1.1" xmlns="http://www.w3.org/2000/svg" xmlns:xlink="http://www.w3.org/1999/xlink">
    <!-- Generator: Sketch 62 (91390) - https://sketch.com -->
    <title>logo</title>
    <desc>Created with Sketch.</desc>
    <g id="Page-1" stroke="none" stroke-width="1" fill="none" fill-rule="evenodd">
        <g id="logo" transform="translate(1.000000, 1.000000)" fill="#CC0E74" fill-rule="nonzero" stroke="#CC0E74" stroke-width="0.1">
            <path d="M23.3979167,9.37360908 C24.3631286,10.0633635 21.6780468,15.9997629 21.3523514,21.9145347 C20.9367497,29.4620437 24.6295696,36.7104477 23.3979167,35.4172798 C21.953507,33.9007289 18.7421339,30.1474512 17.8549279,23.2607709 C16.8122781,25.50675 10.3848129,33.9085771 7.99586406,34.6251906 C5.2789065,35.440197 4.51797016,34.2141173 5.2789065,33.304367 C5.94184712,32.5117771 14.543846,24.8065098 17.2090148,23.0589458 C10.1365246,24.0648406 5.36787329,23.4652145 2.90204944,21.2616024 C0.365983519,18.9952176 0.365983519,15.0325532 2.90204944,9.37360908 C7.08782294,9.92280208 8.68484747,11.6521749 7.69312303,14.5617276 C7.10479355,16.2877874 7.11016745,18.5227512 9.59537576,19.5348327 C10.7313837,19.9974629 13.4722349,20.2349452 17.8179292,20.2472796 C18.7096341,11.3511164 21.9333401,8.32700153 23.3979167,9.37360908 Z M3.41285273,0.252174083 C5.22953331,0.851612486 10.2792151,3.90549252 18.5618982,9.41381417 C7.22694332,4.80036467 1.17371493,2.26035054 0.402213013,1.79377177 C-0.755039866,1.09390363 0.687831863,-0.646983521 3.41285273,0.252174083 Z" id="Combined-Shape"></path>
            <path d="M25.9851039,11.5394977 C26.8147919,10.107338 28.1391134,9.67440752 29.9580683,10.2407062 C34.129795,11.5394977 26.8011158,15.2375543 28.682951,15.2375543 C31.4304358,15.2375543 38.3447217,9.4826028 40,11.5394977 C40.3611272,11.9882444 38.9153517,14.2304904 38.4502543,16.679689 C37.9645415,19.2374471 38.4502543,22.0106651 38.4502543,22.7086399 C38.4502543,25.1749501 32.7628832,15.6219396 29.3268755,19.2611155 C25.8136228,22.9821037 27.2621672,38.0569594 25.9851039,35.0145831 C24.768916,32.1172316 23.3382987,25.99396 25.9851039,11.5394977 Z" id="Rectangle"></path>
            <path d="M44.4096834,11.3912131 C46.6547421,10.2875751 43.9482884,23.7961177 45.7138213,27.167707 C49.0360258,33.512029 54.7247941,34.2422264 56.5890648,30.2467011 C58.1481249,26.9053066 49.7860802,12.3572815 52.6885316,11.3912131 C54.8335431,10.6772554 56.5846962,10.4324395 58.0163187,12.5451212 C57.7174898,13.8455972 55.7859003,14.1267946 56.5890648,15.8424676 C59.5940217,22.261481 61.1319301,31.5811804 59.8928507,33.512029 C58.7056688,35.3620061 50.487548,39.2156586 45.7138213,30.2467011 C44.6616207,28.269809 44.4552755,35.782982 43.6473278,35.9521528 C40.8825039,36.5310609 40.6209317,13.253708 44.4096834,11.3912131 Z" id="Rectangle" transform="translate(50.945326, 23.421234) scale(-1, 1) rotate(-180.000000) translate(-50.945326, -23.421234) "></path>
            <path d="M68.6408397,11.3311981 C70.3505553,10.8609757 76.3829356,10.8737047 78.4202582,13.6016582 C79.6454769,15.2422131 78.3941968,29.0946899 78.4202582,31.3474353 C78.4459135,33.5650788 78.7570771,34.9217024 79.3537488,35.4173062 C78.1852408,35.2384287 75.7510656,34.3552519 76.5172258,30.8084398 C77.0048421,28.5511006 77.0048421,28.1022332 76.5172258,29.770046 C76.0552338,31.3502152 74.4223984,35.4221788 72.5152432,35.4173062 C70.608088,35.4123808 68.6408397,35.4173062 64.0334514,35.4173062 C62.1125036,35.4173062 60.5446568,33.2809033 60.3233363,30.8084398 C60.1152998,28.4843782 61.1775424,25.850701 61.8027278,24.8007292 C65.1110437,19.2445564 79.1090732,18.9552601 76.5172258,15.1246751 C73.9253784,11.2940901 68.6874,14.8532888 64.8252772,16.539275 C60.9631546,18.2252613 61.8027278,13.2118813 68.6408397,11.3311981 Z M69.1509538,22.7086399 C66.3227972,22.7086399 63.1043934,26.0360837 63.1043934,29.38678 C63.1043934,32.7374764 65,33.6408258 68.7041706,33.6408258 C72.4083412,33.6408258 74.63872,29.38678 74.63872,26.5289809 C74.63872,23.6711818 71.9791105,22.7086399 69.1509538,22.7086399 Z" id="Shape"></path>
        </g>
    </g>
</svg>