<?xml version="1.0" encoding="UTF-8"?>
<svg width="161px" height="194px" viewBox="0 0 161 194" version="1.1" xmlns="http://www.w3.org/2000/svg" xmlns:xlink="http://www.w3.org/1999/xlink">
    <!-- Generator: Sketch 62 (91390) - https://sketch.com -->
    <title>Group 2</title>
    <desc>Created with Sketch.</desc>
    <g id="Page-1" stroke="none" stroke-width="1" fill="none" fill-rule="evenodd">
        <g id="Desktop-HD" transform="translate(-646.000000, -980.000000)">
            <g id="Group-2" transform="translate(646.000000, 980.000000)">
                <polygon id="Fill-4" fill="#F3F4F1" points="54.8998574 122.965 160.831857 122.965 160.831857 18.671 54.8998574 18.671"></polygon>
                <polygon id="Fill-5" fill="#FFFFFE" points="61.4078574 116.557 154.322857 116.557 154.322857 25.078 61.4078574 25.078"></polygon>
                <polygon id="Fill-6" fill="#F8D2B5" points="80.6078574 127.678 135.123857 127.678 135.123857 118.251 80.6078574 118.251"></polygon>
                <polygon id="Fill-7" fill="#DBA388" points="87.1038574 133.506 128.628857 133.506 128.628857 124.078 87.1038574 124.078"></polygon>
                <polygon id="Fill-8" fill="#F8D2B5" points="87.5358574 22.19 128.194857 22.19 128.194857 15.16 87.5358574 15.16"></polygon>
                <polygon id="Fill-9" fill="#DBA388" points="92.3808574 17.845 123.349857 17.845 123.349857 10.814 92.3808574 10.814"></polygon>
                <polygon id="Fill-10" fill="#DBA388" points="104.714857 193.916 111.016857 193.916 111.016857 124.866 104.714857 124.866"></polygon>
                <polygon id="Fill-11" fill="#DBA388" points="104.714857 12.477 111.016857 12.477 111.016857 -5.68434189e-14 104.714857 -5.68434189e-14"></polygon>
                <polyline id="Fill-12" fill="#DBA388" points="83.8178574 193.916 77.5158574 193.916 90.2678574 124.866 96.5698574 124.866 83.8178574 193.916"></polyline>
                <polyline id="Fill-13" fill="#DBA388" points="131.911857 193.916 138.214857 193.916 125.462857 124.866 119.161857 124.866 131.911857 193.916"></polyline>
                <polyline id="Fill-14" fill="#FFB2A7" points="143.963857 100.422 95.7978574 108.339 90.8148574 78.027 138.981857 70.108 143.963857 100.422"></polyline>
                <polyline id="Fill-15" fill="#698474" points="126.962857 91.673 89.9188574 71.866 109.724857 34.822 146.768857 54.627 126.962857 91.673"></polyline>
                <path d="M114.943857,73.956 C113.210857,86.593 101.560857,95.434 88.9228574,93.7 C76.2858574,91.968 67.4458574,80.318 69.1788574,67.68 C70.9118574,55.043 82.5628574,46.203 95.1998574,47.935 C107.836857,49.668 116.677857,61.318 114.943857,73.956" id="Fill-16" fill="#DE6681"></path>
                <path d="M75.4168574,57.163 C75.4168574,64.159 69.7438574,69.832 62.7478574,69.832 C55.7498574,69.832 50.0778574,64.159 50.0778574,57.163 C50.0778574,50.165 55.7498574,44.493 62.7478574,44.493 C69.7438574,44.493 75.4168574,50.165 75.4168574,57.163" id="Fill-17" fill="#5F3837"></path>
                <path d="M53.5178574,57.163 C53.5178574,64.159 47.8468574,69.832 40.8488574,69.832 C33.8528574,69.832 28.1808574,64.159 28.1808574,57.163 C28.1808574,50.165 33.8528574,44.493 40.8488574,44.493 C47.8468574,44.493 53.5178574,50.165 53.5178574,57.163" id="Fill-18" fill="#5F3837"></path>
                <path d="M64.2268574,57.163 C64.2268574,64.159 58.5548574,69.832 51.5578574,69.832 C44.5608574,69.832 38.8888574,64.159 38.8888574,57.163 C38.8888574,50.165 44.5608574,44.493 51.5578574,44.493 C58.5548574,44.493 64.2268574,50.165 64.2268574,57.163" id="Fill-19" fill="#5F3837"></path>
                <path d="M66.9378574,63.736 C66.9378574,63.736 72.6768574,63.139 74.8408574,68.986 C75.2288574,70.034 75.7138574,71.048 76.1898574,72.056 C77.6898574,75.224 79.2788574,78.345 80.8708574,81.46 C81.8658574,83.404 82.8678574,85.344 83.8738574,87.278 C84.3728574,88.245 84.8788574,89.21 85.3808574,90.176 C85.3808574,90.176 88.8758574,95.348 86.3318574,97.47 C84.5068574,98.994 81.3008574,98.493 79.9368574,96.629 C78.6818574,95.293 77.9268574,93.584 76.8218574,92.136 C76.8208574,92.133 62.1278574,72.9 66.9378574,63.736" id="Fill-20" fill="#F8D2B5"></path>
                <path d="M38.3558574,63.56 C38.3558574,63.56 32.6458574,64.382 31.9768574,70.58 C31.8578574,71.693 31.6338574,72.795 31.4178574,73.89 C30.7378574,77.326 29.9608574,80.741 29.1788574,84.152 C28.6878574,86.279 28.1908574,88.405 27.6898574,90.527 C27.4398574,91.586 27.1858574,92.645 26.9338574,93.705 C26.9338574,93.705 24.8098574,99.572 27.7958574,101.01 C29.9378574,102.041 32.9238574,100.772 33.7918574,98.63 C34.6818574,97.031 34.9938574,95.186 35.7118574,93.513 C35.7138574,93.51 45.2598574,71.27 38.3558574,63.56" id="Fill-21" fill="#F8D2B5"></path>
                <polyline id="Fill-22" fill="#F8D2B5" points="55.5268574 109.544 54.0498574 114.329 56.4028574 191.904 66.0188574 192.061 68.1858574 109.872 55.5268574 109.544"></polyline>
                <polyline id="Fill-23" fill="#F8D2B5" points="37.4688574 111.083 40.4988574 191.904 50.1158574 192.061 53.5528574 114.317 50.9978574 109.528 37.4688574 111.083"></polyline>
                <path d="M51.5768574,192.044 C51.5768574,194.776 48.2198574,193.713 44.7218574,193.713 C41.2228574,193.713 38.9078574,194.776 38.9078574,192.044 C38.9078574,189.308 41.7418574,187.095 45.2408574,187.095 C48.7408574,187.095 51.5768574,189.308 51.5768574,192.044" id="Fill-24" fill="#32322F"></path>
                <path d="M68.1858574,191.945 C68.1858574,194.822 64.6508574,193.703 60.9658574,193.703 C57.2798574,193.703 54.8428574,194.822 54.8428574,191.945 C54.8428574,189.064 57.8278574,186.733 61.5128574,186.733 C65.1978574,186.733 68.1858574,189.064 68.1858574,191.945" id="Fill-25" fill="#32322F"></path>
                <path d="M35.9408574,105.712 C35.9408574,105.712 25.8818574,137.997098 27.5688574,139.99242 C29.2578574,141.986438 32.7888574,139.37687 34.5048574,143.516185 C36.2198574,147.652893 42.7818574,151.33185 47.6258574,148.114556 C52.4718574,144.895957 53.5448574,152.247351 59.9418574,150.413741 C66.3378574,148.577523 66.9058574,144.435599 71.2468574,146.5822 C75.5868574,148.727498 77.9098574,146.5822 78.0088574,142.595468 C78.1098574,138.611344 79.7278574,136.008296 79.7278574,136.008296 L70.0678574,105.712 L35.9408574,105.712" id="Fill-26" fill="#CC0E74" opacity="0.94812593"></path>
                <path d="M31.1278574,40.514 C31.1278574,52.579 30.0058574,61.719 52.0738574,62.358 C71.3798574,62.916 72.4788574,50.734 72.4788574,38.671 C72.4788574,26.606 62.3268574,18.671 51.2258574,18.671 C40.1268574,18.671 31.1278574,28.451 31.1278574,40.514" id="Fill-27" fill="#5F3837"></path>
                <path d="M37.7138574,83.529 C36.6428574,79.543 37.7598574,75.524 38.5108574,73.948 C39.2598574,72.373 37.7598574,64.712 37.2478574,63.768 C36.7368574,62.824 46.0478574,62.795 46.0478574,62.795 L53.0058574,63.884 L59.9618574,62.795 C59.9618574,62.795 69.2728574,62.824 68.7608574,63.768 C68.2488574,64.712 66.7498574,72.373 67.4998574,73.948 C68.2488574,75.524 69.4208574,78.265 68.3498574,82.251 C67.2798574,86.239 66.8588574,89.27 66.7498574,94.623 C66.6428574,99.974 70.0688574,105.712 70.0688574,105.712 C70.0688574,105.712 58.7418574,114.632 48.4648574,112.008 C38.1888574,109.385 35.9408574,105.712 35.9408574,105.712 L36.2778574,104.792 C37.1398574,102.383 39.3448574,98.935 39.2598574,94.623 C39.1528574,89.27 38.7838574,87.517 37.7138574,83.529" id="Fill-28" fill="#F3F4F1"></path>
                <path d="M38.4608574,86.504 C38.7828574,87.956 38.9878574,89.293 39.1128574,91.051 L66.8918574,91.051 C66.9998574,89.377 67.1638574,87.92 67.4028574,86.504 L38.4608574,86.504 Z M68.2968574,101.986 C67.7748574,100.657 67.2708574,99.083 66.9868574,97.439 L38.9988574,97.439 C38.6648574,99.128 38.0628574,100.649 37.4768574,101.986 L68.2968574,101.986 Z M37.2756968,80.116 L68.7348574,80.116 C68.9008574,78.261 68.5838574,76.751 68.1748574,75.57 L37.9128574,75.57 C37.5598574,76.783 37.2678574,78.378 37.2756968,80.116 Z M68.4678574,64.634 C68.1808574,65.684 67.8208574,67.442 67.5758574,69.182 L38.4338574,69.182 C38.1868574,67.442 37.8278574,65.684 37.5398574,64.634 L68.4678574,64.634 L68.4678574,64.634 Z" id="Fill-29" fill="#DE6681"></path>
                <path d="M47.1808574,56.234 C47.1808574,56.234 47.6728574,62.545 45.7808574,62.692 C43.8908574,62.839 51.4828574,67.783 52.4288574,68.337 C53.3738574,68.888 58.8868574,63.973 58.6608574,63.162 C58.4368574,62.352 55.5408574,60.182 56.5898574,56.991 C57.6398574,53.797 47.1808574,56.234 47.1808574,56.234" id="Fill-30" fill="#F8D2B5"></path>
                <path d="M68.2368574,38.508 C68.2368574,38.508 74.1458574,58.825 52.4828574,58.9270391 C52.4828574,58.9270391 39.2158574,59.032 35.1758574,48.356 L34.7608574,32.912 L53.4568574,30.06 L68.0288574,30.113 L68.2368574,38.508" id="Fill-31" fill="#F8D2B5"></path>
                <g id="nose" transform="translate(50.000000, 48.000000)">
                    <path d="M2,2 C2,2 3.27597911,-2.5 5,2 C5,2 3.27597911,-0.322771163 2,2" id="Fill-93" fill="#EE9F80"></path>
                    <path d="M1,4 C1,4 1.0595122,4.08779128 1.17073171,4.22460308 C1.28162602,4.36186051 1.44682927,4.5463559 1.6598374,4.72951436 C1.76292683,4.82755539 1.88585366,4.90999898 2.00910569,5.0058118 C2.13918699,5.08691847 2.27284553,5.17872052 2.4198374,5.24512103 C2.56162602,5.32979283 2.71902439,5.36990052 2.87414634,5.4305077 C3.03056911,5.48175642 3.19479675,5.5076036 3.35674797,5.53790719 C3.52097561,5.54325488 3.68487805,5.57756924 3.84747967,5.56241745 C4.00943089,5.53968975 4.17138211,5.55796104 4.32552846,5.52052719 C4.48097561,5.49066924 4.63121951,5.46170257 4.77365854,5.43451847 C4.91349593,5.38638924 5.04747967,5.34583591 5.17203252,5.30929334 C5.42373984,5.24645796 5.62308943,5.13772155 5.76943089,5.08691847 C5.91447154,5.02987642 6,5.00269231 6,5.00269231 C6,5.00269231 5.92715447,5.0655277 5.79447154,5.16668821 C5.72747967,5.21660001 5.64650407,5.27720719 5.55349593,5.34672719 C5.46146341,5.42159488 5.35382114,5.49468001 5.2295935,5.55261334 C5.10764228,5.61812257 4.97430894,5.68853386 4.83154472,5.75760822 C4.68552846,5.80930257 4.5297561,5.86099693 4.36747967,5.90868052 C4.20585366,5.95903796 4.03219512,5.9692877 3.85788618,5.99246104 C3.68325203,6.01340617 3.50341463,5.9844395 3.32487805,5.98087437 C3.14796748,5.94388617 2.96910569,5.90912617 2.79869919,5.8476277 C2.62861789,5.78033591 2.46243902,5.70947898 2.31121951,5.60742719 C2.15447154,5.52364668 2.01853659,5.39931283 1.88747967,5.29191334 C1.76162602,5.17248155 1.64357724,5.0579518 1.54699187,4.93228103 C1.44585366,4.81418616 1.36325203,4.69163488 1.29398374,4.57933334 C1.22341463,4.46926 1.16845528,4.36587128 1.12325203,4.28164513 C1.03544715,4.10962769 1,4 1,4" id="Fill-111" fill="#443025" transform="translate(3.500000, 5.000000) rotate(-14.000000) translate(-3.500000, -5.000000) "></path>
                </g>
                <g id="eyes" transform="translate(44.000000, 41.000000)" fill="#443025">
                    <path d="M17.0596718,3.50744644 C17.0596718,3.50744644 17.0436337,3.44123487 16.9943735,3.32920389 C16.9428222,3.21868344 16.8720824,3.05932252 16.742345,2.88863262 C16.6856386,2.80051837 16.6002925,2.71618044 16.5206744,2.62479337 C16.4255909,2.54221773 16.3413905,2.44629907 16.2248273,2.36926203 C16.1214383,2.28240655 15.9914145,2.21518797 15.8662594,2.14318603 C15.7345172,2.07898851 15.5953287,2.0208331 15.4532762,1.97199263 C15.3014863,1.93850921 15.1657346,1.87884327 15.0093623,1.86801781 C14.855854,1.85291251 14.7160927,1.81615627 14.5680259,1.81036591 C14.4231095,1.79601587 14.2859258,1.76857458 14.151606,1.7494412 C14.0158543,1.73735696 13.8869761,1.72124464 13.7664033,1.70236301 C13.6458306,1.68121559 13.5332769,1.67013837 13.4324655,1.66006817 C13.3313677,1.64823568 13.2420121,1.63564793 13.1675491,1.62280843 C13.0189095,1.59813643 12.9298403,1.57522673 12.9298403,1.57522673 L12.9203893,1.52588275 C12.9203893,1.52588275 12.998289,1.49114056 13.1412007,1.44532114 C13.2846851,1.40352981 13.4906039,1.33001735 13.7529427,1.30408658 C13.8838257,1.28872953 14.0273101,1.27664529 14.1799592,1.26884088 C14.3331811,1.26179174 14.4969997,1.28293916 14.6645414,1.29930324 C14.8323695,1.31214274 15.0007704,1.37508149 15.1691713,1.42291495 C15.3398634,1.46596505 15.4990996,1.55206527 15.6623454,1.61525578 C15.8198632,1.69103403 15.9722259,1.77763776 16.1114144,1.86902483 C16.244875,1.9682163 16.3777628,2.06212092 16.480579,2.17364839 C16.594851,2.27611268 16.6779059,2.39166823 16.7595287,2.49690182 C16.8265454,2.60968807 16.8969989,2.7119006 16.9379535,2.81461665 C17.0350418,3.01451013 17.0774284,3.18897635 17.0994809,3.31032227 C17.1209606,3.43191994 17.1203893,3.50241134 17.1203893,3.50241134 L17.0596718,3.50744644" id="Fill-94" transform="translate(15.020389, 2.387446) rotate(-8.000000) translate(-15.020389, -2.387446) "></path>
                    <path d="M1,4.34671685 C1,4.34671685 1.00943508,4.26542398 1.04800793,4.12834189 C1.08713578,3.99152547 1.15429138,3.79652885 1.27916749,3.57868522 C1.33466799,3.46577846 1.41958375,3.35685664 1.50255699,3.23597999 C1.59885035,3.12493287 1.69819623,3.00246225 1.82723489,2.89911935 C1.94572844,2.78382163 2.09169475,2.69243357 2.23932607,2.5946696 C2.39139742,2.50700082 2.55595639,2.4267706 2.72412289,2.35929221 C2.89617443,2.3069566 3.06794846,2.22778904 3.24471754,2.19962877 C3.41982161,2.16562391 3.59714569,2.11461662 3.76697721,2.1204612 C3.93680872,2.12258651 4.10358771,2.11886723 4.25593657,2.14623051 C4.40745292,2.17412512 4.54925669,2.20600468 4.67829534,2.23974387 C4.93720515,2.30244033 5.1325669,2.41269046 5.27048563,2.47857488 C5.40701685,2.54897557 5.48,2.5989202 5.48,2.5989202 L5.46362735,2.65444376 C5.46362735,2.65444376 5.37121903,2.66958655 5.21887017,2.67941608 C5.14255699,2.684995 5.05153617,2.6879173 4.94886026,2.68924561 C4.84646184,2.68818296 4.73213082,2.68685464 4.60891972,2.69588719 C4.48543112,2.70279442 4.35417245,2.70518539 4.21680872,2.70199743 C4.079445,2.70731069 3.93847374,2.72165649 3.79139742,2.72006252 C3.6426561,2.70837335 3.4975223,2.73334566 3.34184341,2.73148602 C3.1839445,2.72404746 3.03964321,2.77585174 2.88313181,2.7955108 C2.73411298,2.83376626 2.58675917,2.88344524 2.44578791,2.94082844 C2.3106442,3.00777551 2.17106046,3.06887799 2.05534192,3.15574978 C1.92796829,3.22960408 1.83028741,3.32949336 1.72344896,3.41264587 C1.63104063,3.50775321 1.53391477,3.59382801 1.46481665,3.68840402 C1.31080278,3.86825785 1.21756194,4.04253276 1.15040634,4.16314374 C1.08547076,4.28561437 1.05994054,4.36 1.05994054,4.36 L1,4.34671685" id="Fill-95" transform="translate(3.240000, 3.240000) rotate(-3.000000) translate(-3.240000, -3.240000) "></path>
                    <path d="M13.2429408,4.32576407 C13.2429408,4.32576407 15.7149691,3.09522069 16.36,4.92 C16.36,4.92 15.3531093,4.30288647 14.71543,4.46613171 C14.0328245,4.64081574 13.2541042,4.97932665 13.0327408,4.72631592 C12.8936058,4.56714212 13.2429408,4.32576407 13.2429408,4.32576407" id="Fill-109"></path>
                    <path d="M5.68167837,4.32084766 C5.68167837,4.32084766 3.348978,3.04741958 2.56,5.04 C2.56,5.04 3.58486905,4.37550414 4.22247025,4.53720569 C5.18743046,4.78191253 5.66991056,5.08535808 5.887615,4.7896234 C6.02481694,4.6032017 5.68167837,4.32084766 5.68167837,4.32084766" id="Fill-110"></path>
                </g>
                <path d="M38.3658574,45.146 C38.3658574,47.924 36.5778574,50.173 34.3748574,50.173 C32.1708574,50.173 30.3848574,47.924 30.3848574,45.146 C30.3848574,42.371 32.1708574,40.119 34.3748574,40.119 C36.5778574,40.119 38.3658574,42.371 38.3658574,45.146" id="Fill-32" fill="#F8D2B5"></path>
                <path d="M63.8138574,29.361 C63.8138574,29.361 67.8208574,40.62 69.4178574,39.753 C71.0108574,38.887 70.3718574,36.444 70.3718574,36.444 L67.1538574,26.684 L63.8138574,29.361" id="Fill-33" fill="#5F3837"></path>
                <path d="M67.3398574,29.005 C67.3398574,29.005 63.5728574,42.487 34.7608574,42.881 L33.6718574,30.938 L50.6298574,20.339 L67.3398574,29.005" id="Fill-34" fill="#5F3837"></path>
                <path d="M81.9878574,97.533 C79.6818574,95.412 79.3568574,92.429 80.4998574,89.683 C82.0608574,85.923 84.5018574,82.636 86.6788574,79.222 C87.4278574,78.051 88.0708574,76.797 88.8768574,75.665 C89.4178574,74.905 89.7238574,74.355 89.8948574,73.485 C89.9758574,73.07 89.8328574,72.511 89.8238574,72.081 C89.8108574,71.461 89.8178574,70.842 89.8738574,70.224 C89.9888574,68.988 90.5028574,67.737 91.3028574,66.791 C92.0398574,65.919 93.2298574,64.847 94.3948574,64.655 C95.3468574,64.498 96.0278574,65.209 96.6888574,65.776 C97.5318574,66.502 98.3328574,67.018 98.6248574,68.155 C98.8018574,68.849 98.8048574,69.696 98.7988574,70.409 C98.7838574,72.109 97.8718574,73.397 96.8008574,74.627 C96.5108574,74.961 96.1718574,75.314 95.9468574,75.696 C94.0958574,78.828 93.2138574,82.393 92.1118574,85.828 C91.8228574,86.729 91.5158574,87.625 91.1808574,88.508 C90.3108574,90.824 89.2508574,92.974 87.8908574,95.082 C87.1438574,96.244 86.1718574,98.066 84.5538574,98.372 C83.5468574,98.564 82.6818574,98.171 81.9878574,97.533" id="Fill-35" fill="#F8D2B5"></path>
                <path d="M32.6268574,98.338 C32.6208574,95.203 30.6418574,92.947 27.8448574,91.932 C24.0178574,90.544 19.9458574,90.122 15.9588574,89.419 C14.5888574,89.179 13.2278574,88.805 11.8518574,88.635 C10.9238574,88.521 10.3148574,88.374 9.55485736,87.912 C9.55385736,87.909 8.88185736,83.623 6.44885736,83.343 C4.69985736,83.141 3.69885736,84.407 3.69885736,84.407 C3.69885736,84.407 -1.06714264,84.056 0.22085736,89.402 C1.50585736,94.751 5.10585736,93.445 7.09685736,93.866 C10.6548574,94.62 13.8828574,96.376 17.1558574,97.886 C18.0138574,98.284 18.8828574,98.66 19.7598574,99.013 C22.0548574,99.937 24.3578574,100.607 26.8298574,101.029 C28.1908574,101.265 30.1908574,101.777 31.5088574,100.794 C32.3298574,100.186 32.6258574,99.28 32.6268574,98.338" id="Fill-36" fill="#F8D2B5"></path>
                <path d="M16.5918574,77.716 C16.5918574,77.716 11.5918574,75.983 9.65685736,77.543 C7.72285736,79.103 10.6488574,82.309 9.25485736,84.507 C7.85985736,86.703 5.15585736,84.413 3.50085736,87.096 C1.84385736,89.776 8.92085736,100.329 19.0168574,99.781 C29.1138574,99.236 33.1348574,84.505 16.5918574,77.716" id="Fill-37" fill="#B99368"></path>
                <path d="M11.0278574,79.946 C10.7388574,81.079 11.8078574,82.334 13.4208574,82.745 C15.0298574,83.155 16.5718574,82.568 16.8618574,81.434 C17.1518574,80.299 16.0798574,79.045 14.4698574,78.634 C12.8578574,78.221 11.3178574,78.809 11.0278574,79.946" id="Fill-38" fill="#DE6681"></path>
                <path d="M16.9358574,83.219 C16.6458574,84.355 17.7148574,85.608 19.3278574,86.02 C20.9388574,86.429 22.4798574,85.843 22.7688574,84.707 C23.0578574,83.573 21.9888574,82.32 20.3768574,81.906 C18.7658574,81.496 17.2248574,82.083 16.9358574,83.219" id="Fill-39" fill="#DF5350"></path>
                <path d="M20.5888574,88.711 C20.2988574,89.846 21.3678574,91.101 22.9808574,91.512 C24.5918574,91.923 26.1308574,91.336 26.4218574,90.2 C26.7118574,89.064 25.6398574,87.812 24.0288574,87.4 C22.4178574,86.988 20.8778574,87.576 20.5888574,88.711" id="Fill-40" fill="#8DD0E6"></path>
                <path d="M18.1788574,93.98 C17.8918574,95.115 18.9588574,96.372 20.5698574,96.783 C22.1818574,97.193 23.7218574,96.604 24.0118574,95.47 C24.3018574,94.334 23.2298574,93.08 21.6198574,92.669 C20.0088574,92.258 18.4688574,92.846 18.1788574,93.98" id="Fill-41" fill="#85BF43"></path>
                <path d="M11.3938574,93.001 C11.1028574,94.137 12.1728574,95.39 13.7848574,95.801 C15.3948574,96.211 16.9358574,95.626 17.2258574,94.489 C17.5158574,93.354 16.4438574,92.102 14.8348574,91.689 C13.2238574,91.278 11.6818574,91.865 11.3938574,93.001" id="Fill-42" fill="#EB8C30"></path>
                <path d="M5.49585736,88.586 C5.20385736,89.722 6.27485736,90.976 7.88685736,91.386 C9.49785736,91.796 11.0388574,91.21 11.3288574,90.074 C11.6168574,88.939 10.5468574,87.684 8.93585736,87.273 C7.32385736,86.861 5.78385736,87.451 5.49585736,88.586" id="Fill-43" fill="#FFFFFE"></path>
                <path d="M33.2438574,31.742 C33.2438574,31.742 24.7368574,25.559 32.5438574,19.598 C40.3508574,13.638 56.5528574,13.191 64.9478574,16.544 C73.3418574,19.896 67.6338574,27.495 60.4988574,26.378 C53.3638574,25.261 43.0938574,26.527 33.2438574,31.742" id="Fill-44" fill="#FFB2A7"></path>
                <path d="M42.3738574,14.512 C43.4838574,16.105 43.5478574,17.854 42.5158574,18.421 C41.4848574,18.987 39.7498574,18.155 38.6388574,16.564 C37.5288574,14.972 37.4658574,13.221 38.4968574,12.655 C39.5278574,12.089 41.2638574,12.921 42.3738574,14.512" id="Fill-45" fill="#FFAAA5"></path>
                <path d="M93.4408574,54.856 C93.4408574,54.856 92.5528574,54.575 92.4288574,53.623 C92.3068574,52.67 93.9218574,51.457 92.9938574,50.111 C92.9938574,50.111 96.2058574,52.686 93.7658574,54.864" id="Fill-46" fill="#5F3837"></path>
                <polyline id="Fill-47" fill="#DBA388" points="96.0688574 87.298 95.2298574 87.35 93.1518574 60.313 94.6548574 60.219 96.0688574 87.298"></polyline>
                <polyline id="Fill-48" fill="#E5E6E3" points="93.1378574 54.706 93.9768574 54.654 94.6548574 60.219 93.1508574 60.313 93.1378574 54.706"></polyline>
                <path d="M95.8878574,70.138 C95.8878574,72.152 94.7248574,73.783 93.2908574,73.783 C91.8558574,73.783 90.6918574,72.152 90.6918574,70.138 C90.6918574,68.126 91.8558574,66.492 93.2908574,66.492 C94.7248574,66.492 95.8878574,68.126 95.8878574,70.138" id="Fill-49" fill="#F8D2B5"></path>
            </g>
        </g>
    </g>
</svg>