<?xml version="1.0" encoding="UTF-8"?>
<svg width="400px" height="338px" viewBox="0 0 400 338" version="1.1" xmlns="http://www.w3.org/2000/svg" xmlns:xlink="http://www.w3.org/1999/xlink">
    <!-- Generator: Sketch 62 (91390) - https://sketch.com -->
    <title>tools-img</title>
    <desc>Created with Sketch.</desc>
    <g id="Page-1" stroke="none" stroke-width="1" fill="none" fill-rule="evenodd">
        <g id="landing-page" transform="translate(-78.000000, -1792.000000)">
            <g id="tools-img" transform="translate(78.000000, 1792.000000)">
                <path d="M17.130726,20.299165 C57.4925142,-34.2889856 137.326447,38.6103902 209.636396,37.6832014 C285.712137,36.707726 331.902224,-18.1380491 382.630275,20.299165 C431.154823,57.0667594 362.508712,126.768161 363.438517,181.912803 C364.404652,239.212044 399.689931,256.583591 363.438517,303.190657 C323.143231,354.996775 265.189179,320.488301 182.602927,315.538947 C117.461505,311.635053 60.7611452,359.322488 17.130726,326.26323 C-33.3686979,287.99925 43.7588594,226.95224 44.8070812,169.564513 C45.8126717,114.510745 -23.2310621,74.8873156 17.130726,20.299165 Z" id="Rectangle" fill="#FCF8F3"></path>
                <g id="wireframimg" transform="translate(55.000000, 31.000000)">
                    <g id="Group-2">
                        <path d="M51.7305195,171.422131 C51.7305195,171.422131 28.8558836,131.872758 32.7409094,94.5472579 C34.4514479,78.9043992 31.8812861,63.0187284 25.4162748,49.2751155 C22.3052163,42.777909 18.7037195,36.6360697 14.6569805,30.9266731" id="Path" stroke="#535461" stroke-width="2"></path>
                        <path d="M16.8957892,6.97031634 C18.4008181,12.2919911 14.5328939,30.9266731 14.5328939,30.9266731 C14.5328939,30.9266731 1.94583555,18.6780008 0.440806653,13.3504457 C-1.06228816,8.02437846 1.40278606,2.27850724 5.94670403,0.516683159 C10.490622,-1.24514092 15.3926944,1.64424907 16.8957892,6.97031634 L16.8957892,6.97031634 Z" id="Path" fill="#417505" fill-rule="nonzero" opacity="0.378999256"></path>
                        <path d="M38.4855469,31.556392 C37.2834547,37.0436049 25.4178027,50.3662963 25.4178027,50.3662963 C25.4178027,50.3662963 20.5393118,31.8655307 21.7464128,26.3783178 C22.4894524,22.7813213 24.8070425,19.9380883 27.8113569,18.9378091 C30.8156714,17.9375298 34.0410161,18.9352561 36.2518207,21.5487773 C38.4626254,24.1622985 39.3161965,27.9864967 38.4855469,31.556392 L38.4855469,31.556392 Z" id="Path" fill="#417505" fill-rule="nonzero" opacity="0.378999256"></path>
                        <path d="M51.8390474,82.7034642 C48.4994413,86.6759523 32.7626623,91.012781 32.7626623,91.012781 C32.7626623,91.012781 36.384698,72.337386 39.6995296,68.3707744 C43.0367141,64.4015523 48.4551233,64.3923439 51.8018855,68.3502069 C55.1486477,72.3080698 55.1564121,78.734242 51.8192278,82.7034642 L51.8390474,82.7034642 Z" id="Path" fill="#417505" fill-rule="nonzero" opacity="0.378999256"></path>
                        <path d="M55.3561085,123.952922 C52.661728,128.573733 37.9357143,136.077362 37.9357143,136.077362 C37.9357143,136.077362 38.8322081,116.763675 41.5265886,112.142863 C44.2199867,107.51879 49.4992606,106.41401 53.318177,109.675267 C57.1370934,112.936525 58.0495064,119.328848 55.3561085,123.952922 L55.3561085,123.952922 Z" id="Path" fill="#417505" fill-rule="nonzero" opacity="0.378999256"></path>
                        <path d="M8.90777588,58.0024038 C13.1781434,60.4456955 29.313961,58.401788 29.313961,58.401788 C29.313961,58.401788 20.6736836,42.1914868 16.3734534,39.7423218 C12.1349645,37.5387846 7.17908248,39.6944403 5.16647833,44.6170098 C3.15387418,49.5395794 4.80832858,55.4587889 8.90777588,58.0024038 L8.90777588,58.0024038 Z" id="Path" fill="#417505" fill-rule="nonzero" opacity="0.378999256"></path>
                        <path d="M12.4525012,105.972203 C17.1192268,106.797742 31.900487,99.120232 31.900487,99.120232 C31.900487,99.120232 19.6256144,86.6487006 14.9687759,85.8231618 C10.304134,84.9959701 5.96051399,88.8359153 5.26702904,94.3999195 C4.57354408,99.9639237 7.79280285,105.145012 12.4574447,105.972203 L12.4525012,105.972203 Z" id="Path" fill="#417505" fill-rule="nonzero" opacity="0.378999256"></path>
                        <path d="M22.2372492,152.459785 C26.6919554,154.234761 42.2465909,149.619825 42.2465909,149.619825 C42.2465909,149.619825 31.981612,134.828366 27.5121714,133.053391 C24.6327081,131.914057 21.4674047,132.711816 19.2086004,135.146159 C16.9497962,137.580503 15.9406571,141.281596 16.5613163,144.855273 C17.1819755,148.42895 19.3381399,151.332285 22.2176033,152.471619 L22.2372492,152.459785 Z" id="Path" fill="#417505" fill-rule="nonzero" opacity="0.378999256"></path>
                        <path d="M16.8957892,6.97031634 C18.4008181,12.2919911 14.5328939,30.9266731 14.5328939,30.9266731 C14.5328939,30.9266731 1.94583555,18.6780008 0.440806653,13.3504457 C-1.06228816,8.02437846 1.40278606,2.27850724 5.94670403,0.516683159 C10.490622,-1.24514092 15.3926944,1.64424907 16.8957892,6.97031634 L16.8957892,6.97031634 Z" id="Path" fill="#417505" fill-rule="nonzero" opacity="0.378999256"></path>
                        <path d="M38.4855469,31.556392 C37.2834547,37.0436049 25.4178027,50.3662963 25.4178027,50.3662963 C25.4178027,50.3662963 20.5393118,31.8655307 21.7464128,26.3783178 C22.4894524,22.7813213 24.8070425,19.9380883 27.8113569,18.9378091 C30.8156714,17.9375298 34.0410161,18.9352561 36.2518207,21.5487773 C38.4626254,24.1622985 39.3161965,27.9864967 38.4855469,31.556392 L38.4855469,31.556392 Z" id="Path" fill="#417505" fill-rule="nonzero" opacity="0.378999256"></path>
                        <path d="M51.8390474,82.7034642 C48.4994413,86.6759523 32.7626623,91.012781 32.7626623,91.012781 C32.7626623,91.012781 36.384698,72.337386 39.6995296,68.3707744 C43.0367141,64.4015523 48.4551233,64.3923439 51.8018855,68.3502069 C55.1486477,72.3080698 55.1564121,78.734242 51.8192278,82.7034642 L51.8390474,82.7034642 Z" id="Path" fill="#417505" fill-rule="nonzero" opacity="0.378999256"></path>
                        <path d="M55.3561085,123.952922 C52.661728,128.573733 37.9357143,136.077362 37.9357143,136.077362 C37.9357143,136.077362 38.8322081,116.763675 41.5265886,112.142863 C44.2199867,107.51879 49.4992606,106.41401 53.318177,109.675267 C57.1370934,112.936525 58.0495064,119.328848 55.3561085,123.952922 L55.3561085,123.952922 Z" id="Path" fill="#417505" fill-rule="nonzero" opacity="0.378999256"></path>
                        <path d="M8.90777588,58.0024038 C13.1781434,60.4456955 29.313961,58.401788 29.313961,58.401788 C29.313961,58.401788 20.6736836,42.1914868 16.3734534,39.7423218 C12.1349645,37.5387846 7.17908248,39.6944403 5.16647833,44.6170098 C3.15387418,49.5395794 4.80832858,55.4587889 8.90777588,58.0024038 L8.90777588,58.0024038 Z" id="Path" fill="#417505" fill-rule="nonzero" opacity="0.378999256"></path>
                        <path d="M12.4525012,105.972203 C17.1192268,106.797742 31.900487,99.120232 31.900487,99.120232 C31.900487,99.120232 19.6256144,86.6487006 14.9687759,85.8231618 C10.304134,84.9959701 5.96051399,88.8359153 5.26702904,94.3999195 C4.57354408,99.9639237 7.79280285,105.145012 12.4574447,105.972203 L12.4525012,105.972203 Z" id="Path" fill="#417505" fill-rule="nonzero" opacity="0.378999256"></path>
                        <path d="M22.2372492,152.459785 C26.6919554,154.234761 42.2465909,149.619825 42.2465909,149.619825 C42.2465909,149.619825 31.981612,134.828366 27.5121714,133.053391 C24.6327081,131.914057 21.4674047,132.711816 19.2086004,135.146159 C16.9497962,137.580503 15.9406571,141.281596 16.5613163,144.855273 C17.1819755,148.42895 19.3381399,151.332285 22.2176033,152.471619 L22.2372492,152.459785 Z" id="Path" fill="#417505" fill-rule="nonzero" opacity="0.378999256"></path>
                    </g>
                    <g id="Group-5" transform="translate(265.150067, 103.174936) scale(-1, 1) rotate(22.000000) translate(-265.150067, -103.174936) translate(212.650067, 34.674936)">
                        <path d="M104.176322,136.28754 C104.176322,136.28754 69.2904728,111.200481 60.0553908,75.1140763 C56.2624383,59.962391 48.4072004,46.6692716 37.6676184,37.2281031 C32.5385678,32.7935969 27.0757147,28.9228849 21.3476071,25.6645367" id="Path" stroke="#535461" stroke-width="2"></path>
                        <path d="M15.1848353,3.35626076 C18.4228162,7.53874903 21.3476071,26.5495208 21.3476071,26.5495208 C21.3476071,26.5495208 5.50120122,21.2888273 2.26322031,17.106339 C-0.974389086,12.9216458 -0.706388038,6.45122182 2.8618174,2.65424254 C6.43002284,-1.14273673 11.9472259,-0.828432467 15.1848353,3.35626076 L15.1848353,3.35626076 Z" id="Path" fill="#698474" fill-rule="nonzero"></path>
                        <path d="M43.4841486,15.6264282 C44.2475696,21.1846976 38.0311418,38.9392971 38.0311418,38.9392971 C38.0311418,38.9392971 27.3531631,24.4771757 26.5847849,18.9189063 C25.8209305,13.364358 28.9847556,8.12446065 33.651386,7.21526794 C38.3180163,6.30607524 42.7202941,10.0718799 43.4841486,15.6264282 Z" id="Path" fill="#698474" fill-rule="nonzero"></path>
                        <path d="M73.7174418,55.5756633 C72.0162213,60.8826338 59.1008332,72.5686901 59.1008332,72.5686901 C59.1008332,72.5686901 56.0257408,53.5088634 57.7220015,48.1959367 C59.4189585,42.8915919 64.3753152,40.2435789 68.7923341,42.2814342 C73.209353,44.3192894 75.4143988,50.2713186 73.7174418,55.5756633 Z" id="Path" fill="#698474" fill-rule="nonzero"></path>
                        <path d="M90.3479765,91.8900438 C89.420133,97.4375951 78.3257038,111.507987 78.3257038,111.507987 C78.3257038,111.507987 72.6097904,93.4251034 73.537634,87.8834789 C74.1367915,84.2964895 76.2924525,81.363798 79.1926004,80.190121 C82.0927483,79.0164441 85.2967815,79.780091 87.5977718,82.1934035 C89.8987621,84.606716 90.9471342,88.3030544 90.3479765,91.8900438 Z" id="Path" fill="#698474" fill-rule="nonzero"></path>
                        <path d="M25.4487324,53.9811194 C30.2362338,54.1754495 44.4030227,44.5590562 44.4030227,44.5590562 C44.4030227,44.5590562 30.8283986,33.8414592 26.0408971,33.6353515 C22.9463826,33.5112237 20.0305003,35.333782 18.3916348,38.4164863 C16.7527694,41.4991906 16.6399034,45.3737049 18.0955525,48.5805371 C19.5512015,51.7873692 22.3542179,53.8393252 25.4487324,53.9634531 L25.4487324,53.9811194 Z" id="Path" fill="#698474" fill-rule="nonzero"></path>
                        <path d="M45.097944,96.06316 C49.6682957,94.5610346 60.627204,80.3558955 60.627204,80.3558955 C60.627204,80.3558955 45.0929763,74.8500735 40.5424957,76.3758545 C37.5572611,77.3155661 35.2265112,80.09252 34.439626,83.6470716 C33.6527408,87.2016232 34.5311244,90.9853598 36.7395986,93.5544634 C38.9480729,96.1235671 42.1459042,97.0816646 45.1128474,96.06316 L45.097944,96.06316 Z" id="Path" fill="#698474" fill-rule="nonzero"></path>
                        <path d="M70.1854568,134.466791 C74.9668591,133.87682 87.9521411,122.136383 87.9521411,122.136383 C87.9521411,122.136383 73.2304551,113.628991 68.4540859,114.189464 C65.3639868,114.552 62.6736162,116.819415 61.3964107,120.137597 C60.1192052,123.455778 60.4492026,127.320615 62.2620962,130.27626 C64.0749897,133.231906 67.0953577,134.829327 70.1854568,134.466791 L70.1854568,134.466791 Z" id="Path" fill="#698474" fill-rule="nonzero"></path>
                    </g>
                    <g id="comp" transform="translate(41.164286, 0.000000)" fill-rule="nonzero">
                        <path d="M135.465476,221.904719 L135.465476,224.398801 L72.4186508,224.398801 L72.4186508,222.367739 C80.2829019,218.957794 85.615671,210.337264 85.9279895,200.529616 C86.2403081,190.721968 81.4705995,181.660875 73.8450345,177.575429 L135.049863,177.575429 C127.60847,181.571514 122.872848,190.317215 122.962673,199.897935 C123.052498,209.478654 127.950952,218.10066 135.465476,221.904719 L135.465476,221.904719 Z" id="Path" fill="#FFD3B6"></path>
                        <path d="M134.613492,177.575429 C128.902009,180.601626 124.681278,186.446489 123.130035,193.477706 L84.7540924,193.477706 C83.2028485,186.446489 78.9821177,180.601626 73.2706349,177.575429 L134.613492,177.575429 Z" id="Path" fill="#000000" opacity="0.1"></path>
                        <path d="M0,164.323531 L0,178.458889 C0,186.264747 4.83518086,192.594246 10.8002322,192.594246 L196.231911,192.594246 C202.196962,192.594246 207.032143,186.264747 207.032143,178.458889 L207.032143,164.323531 L0,164.323531 Z" id="Path" fill="#FFAAA5"></path>
                        <path d="M135.465476,221.785119 L135.465476,224.398801 L72.4186508,224.398801 L72.4186508,222.270342 C74.1470478,221.483359 75.7818717,220.416471 77.2796601,219.098042 L131.608588,219.098042 C132.812318,220.160004 134.105319,221.060832 135.465476,221.785119 Z" id="Path" fill="#000000" opacity="0.1"></path>
                        <rect id="Rectangle" fill="#FFD3B6" x="51.1190476" y="219.981502" width="104.794048" height="7.06767877" rx="3.53383938"></rect>
                        <path d="M207.032143,12.5699644 C207.032143,5.62776475 202.196714,0 196.231911,0 L10.8002322,0 C4.83542865,0 0,5.62776475 0,12.5699644 L0,167.857371 L207.032143,167.857371 L207.032143,12.5699644 Z" id="Path" fill="#474157"></path>
                        <rect id="Rectangle" fill="#FCF8F3" x="5.96388889" y="11.484978" width="195.956349" height="145.770875" rx="16"></rect>
                        <ellipse id="Oval" fill="#FFFFFF" cx="103.942063" cy="5.742489" rx="2.55595238" ry="3.09210946"></ellipse>
                        <ellipse id="Oval" fill="#FFFFFF" cx="103.942063" cy="179.342349" rx="5.96388889" ry="7.06767877"></ellipse>
                        <path d="M201.920238,18.5526568 L5.96388889,18.5526568 C5.96388889,15.137207 8.34711866,12.3684378 11.2869816,12.3684378 L196.597145,12.3684378 C199.537008,12.3684378 201.920238,15.137207 201.920238,18.5526568 Z" id="Path" fill="#FFAAA5"></path>
                        <ellipse id="Oval" fill="#EDEDF4" cx="11.0757937" cy="15.4605473" rx="1.70396825" ry="1.32518977"></ellipse>
                        <ellipse id="Oval" fill="#EDEDF4" cx="15.3357143" cy="15.4605473" rx="1.70396825" ry="1.32518977"></ellipse>
                        <ellipse id="Oval" fill="#EDEDF4" cx="18.7436508" cy="15.4605473" rx="1.70396825" ry="1.32518977"></ellipse>
                        <rect id="Rectangle" fill="#FFAAA5" x="12.7797619" y="22.969956" width="50.2670635" height="3.53383938"></rect>
                        <rect id="Rectangle" fill="#FFAAA5" x="12.7797619" y="125.451298" width="50.2670635" height="3.53383938"></rect>
                        <rect id="Rectangle" fill="#FFAAA5" opacity="0.2" x="12.7797619" y="132.518977" width="92.8662698" height="3.53383938"></rect>
                        <rect id="Rectangle" fill="#FFAAA5" opacity="0.2" x="12.7797619" y="137.819736" width="92.8662698" height="3.53383938"></rect>
                        <rect id="Rectangle" fill="#FFAAA5" opacity="0.2" x="12.7797619" y="143.120495" width="92.8662698" height="3.53383938"></rect>
                        <rect id="Rectangle" fill="#FFAAA5" opacity="0.2" x="12.7797619" y="32.6880143" width="92.8662698" height="58.3083498"></rect>
                        <rect id="Rectangle" fill="#FFAAA5" opacity="0.2" x="14.4837302" y="96.2971232" width="21.2996032" height="22.969956"></rect>
                        <rect id="Rectangle" fill="#FFAAA5" opacity="0.2" x="83.4944444" y="96.2971232" width="22.1515873" height="22.969956"></rect>
                        <rect id="Rectangle" fill="#FFAAA5" opacity="0.2" x="48.5630952" y="96.2971232" width="21.2996032" height="22.969956"></rect>
                        <rect id="Rectangle" fill="#FFAAA5" opacity="0.2" x="125.241667" y="49.4737514" width="63.8988095" height="53.8910506"></rect>
                        <rect id="Rectangle" fill="#EDEDF4" x="132.05754" y="60.0752695" width="50.2670635" height="3.53383938"></rect>
                        <rect id="Rectangle" fill="#EDEDF4" x="132.05754" y="68.0264081" width="50.2670635" height="3.53383938"></rect>
                        <rect id="Rectangle" fill="#EDEDF4" x="132.05754" y="75.0940869" width="50.2670635" height="2.65037954"></rect>
                        <rect id="Rectangle" fill="#EDEDF4" x="132.05754" y="82.1617656" width="50.2670635" height="3.53383938"></rect>
                        <rect id="Rectangle" fill="#EDEDF4" x="132.05754" y="89.2294444" width="50.2670635" height="3.53383938"></rect>
                        <rect id="Rectangle" fill="#FFAAA5" x="132.909524" y="110.432481" width="47.7111111" height="9.7180583"></rect>
                        <rect id="Rectangle" fill="#FFAAA5" x="130.353571" y="143.120495" width="32.3753968" height="6.18421892"></rect>
                    </g>
                    <g id="girl" transform="translate(144.075000, 49.950820)" fill-rule="nonzero">
                        <path d="M95.9773759,127.728384 C90.9692813,130.10724 86.5190504,113.489074 86.5190504,113.489074 L86.3288696,111.160953 L85.967526,106.758379 L92.0850087,107.451742 C91.9926488,108.402641 91.9926488,109.358851 92.0850087,110.309751 C92.1927778,111.43717 92.5034064,112.615324 93.2324329,113.08884 C94.8616485,114.182437 100.979131,125.355166 95.9773759,127.728384 Z" id="Path" fill="#A1616A"></path>
                        <path d="M38.3534495,226.69247 L38.9248013,226.241906 C38.7520186,226.414731 38.5602566,226.565953 38.3534495,226.69247 L38.3534495,226.69247 Z" id="Path" fill="#A1616A"></path>
                        <path d="M50.1514391,122.660656 L50.1514391,134.014765 C50.1514391,134.507115 50.1514391,134.997585 50.1514391,135.486177 C50.0252938,139.727819 49.6172021,143.958324 48.9294641,148.153845 C48.7658213,149.178638 48.7391456,150.218091 48.8500357,151.248882 C49.277727,155.110633 48.2390482,169.852934 48.2390482,169.852934 L46.4060857,188.947457 C46.4060857,188.947457 47.4753138,199.3319 47.0170732,200.786399 C46.8956963,201.382676 46.8566898,201.99074 46.9009856,202.596066 C46.9620843,204.287343 47.2797978,206.457816 47.3836657,207.106139 L47.3836657,207.303455 L47.3164571,207.348555 L38.3532705,213.65702 C39.7829813,212.456213 40.1495738,209.659968 40.1434639,207.066676 C40.1434639,206.784796 40.1434639,206.502917 40.1434639,206.221037 C40.1434639,203.796873 40.2452952,201.372708 40.4489577,198.948544 C40.7422316,194.962767 39.0192469,188.857255 37.7606127,185.057519 C36.1537156,180.214828 34.5407086,151.919756 35.4022009,150.437069 C36.2636933,148.954383 35.2922232,145.092633 34.2229951,142.916522 C33.593678,141.591688 32.9826905,136.957588 32.616098,133.575033 C32.3839227,131.52295 32.2433956,129.966975 32.2433956,129.966975 L50.1514391,122.660656 Z" id="Path" fill="#A1616A"></path>
                        <path d="M69.0316335,224.055343 L69.6456235,223.578274 C69.4579185,223.759465 69.2520905,223.919393 69.0316335,224.055343 L69.0316335,224.055343 Z" id="Path" fill="#A1616A"></path>
                        <path d="M81.7037062,120.010277 L81.7037062,131.366496 C81.7037062,132.065688 81.7037062,132.770518 81.7037062,133.469709 C81.5645411,137.500275 81.1712074,141.519923 80.525706,145.508204 C80.362169,146.533183 80.3355205,147.572837 80.4463589,148.603817 C80.8736128,152.466285 79.8359961,167.211328 79.8359961,167.211328 L78.0049078,186.3094 C78.0049078,186.3094 79.0791463,196.695774 78.6518923,198.150543 C78.5277796,198.7447 78.488789,199.351356 78.5359234,199.954907 C78.5969597,201.646499 78.920452,203.851207 79.01811,204.465819 C79.01811,204.589869 79.0486281,204.651894 79.0486281,204.651894 L78.9814882,204.697003 L78.9814882,204.697003 L70.0152592,211.006641 C71.4007827,209.777417 71.7608967,207.014484 71.7547931,204.454542 C71.7547931,204.17261 71.7547931,203.890678 71.7547931,203.603107 C71.7547931,201.178492 71.8768657,198.753877 72.0538709,196.329262 C72.3407414,192.342744 70.625622,186.241736 69.3682747,182.441293 C67.756917,177.597702 66.1516629,149.29737 67.0122744,147.814408 C67.8728859,146.331446 66.9024091,142.468978 65.8342743,140.292463 C65.4497458,139.525608 65.0835281,137.659218 64.7661395,135.584199 C64.1985021,131.817588 63.7956627,127.334869 63.7956627,127.334869 L81.7037062,120.010277 Z" id="Path" fill="#A1616A"></path>
                        <path d="M64.6484266,25.2524163 L64.5580031,25.3797499 C62.6733044,27.8300641 59.751846,29.4378685 56.5103039,29.8087455 C56.0409798,29.8691159 55.5675706,29.8987174 55.0936677,29.8973723 C55.0574983,29.7644555 55.0273571,29.6315857 54.9911876,29.504252 C54.2979401,26.7361298 53.562495,24.521632 53.562495,24.521632 C53.562495,24.521632 54.3521943,23.4752818 55.503588,22.1410468 C58.632244,18.5092705 64.3952406,12.7681849 63.9431227,20.4414198 C63.8461769,21.995634 64.0502818,23.5533174 64.5459466,25.042039 C64.5881443,25.0807927 64.6122572,25.1583001 64.6484266,25.2524163 Z" id="Path" fill="#000000" opacity="0.1"></path>
                        <path d="M67.2067186,17.9704953 C67.2082519,23.5452995 62.7155475,28.2460383 56.7340713,28.9280775 C56.2458074,28.9856944 55.7540592,29.0143628 55.2618386,29.0139124 L55.1752367,29.0139124 C48.5939994,28.9665918 43.2954557,24.0015331 43.3293273,17.91372 C43.363525,11.8259068 48.7172993,6.91180425 55.2987136,6.92741629 C61.8801279,6.94310287 67.2067186,11.8826008 67.2067186,17.9704953 L67.2067186,17.9704953 Z" id="Path" fill="#A1616A"></path>
                        <path d="M78.2926503,49.9531097 L66.8843578,59.0515472 C66.8843578,59.0515472 54.4461501,42.4923909 55.9148459,39.0975364 C56.3840972,38.0341565 56.3292497,36.1462307 56.0306352,34.042217 C55.8660925,32.9049123 55.6284197,31.6481907 55.3602761,30.4653938 C55.2810518,30.0957698 55.1957334,29.7318323 55.110415,29.3735813 C55.07385,29.2371047 55.0433791,29.1006282 55.006814,28.9698381 C54.3059841,26.1265764 53.562495,23.851967 53.562495,23.851967 C53.562495,23.851967 54.3608317,22.7772141 55.5248188,21.4067619 C58.6876947,17.6764025 64.5137244,11.7794777 64.0566614,19.6609992 C63.9586553,21.257402 64.1649926,22.857368 64.6660787,24.3865002 C64.6660787,24.4774846 64.7209263,24.568469 64.7574913,24.6537668 C66.3785414,29.305343 70.3275657,33.0186428 73.362464,35.3216848 C74.605079,36.2754458 75.9186215,37.1457718 77.2932058,37.9261126 L78.2926503,49.9531097 Z" id="Path" fill="#A1616A"></path>
                        <path d="M30.5378676,141.718147 L48.4459111,134.145634 L48.4459111,145.877204 C48.4459111,146.385922 48.4459111,146.892698 48.4459111,147.397532 C48.041107,147.263653 47.6520454,147.089906 47.2850349,146.879106 C43.7474173,144.793752 39.3421974,146.413105 39.0305938,146.413105 C38.7189902,146.413105 35.1691529,147.846058 31.4176896,145.696629 C31.252723,145.603429 31.0877564,145.516054 30.9288996,145.440328 C30.666175,143.32585 30.5378676,141.718147 30.5378676,141.718147 Z" id="Path" fill="#000000" opacity="0.1"></path>
                        <path d="M80.8509422,129.728335 L80.8509422,140.845215 C80.8509422,141.52967 80.8509422,142.219645 80.8509422,142.904101 C80.5964071,143.288488 80.3911476,143.697743 80.2391197,144.123977 C79.5905879,145.481848 75.1915844,145.967591 71.3248664,145.393531 C68.8683778,145.103834 66.3930565,144.963682 63.9156964,144.974026 C63.3467015,141.286799 62.9428987,136.898557 62.9428987,136.898557 L80.8509422,129.728335 Z" id="Path" fill="#000000" opacity="0.1"></path>
                        <path d="M90.0735366,135.605485 C87.3761767,135.999089 80.6437418,141.920022 77.2775244,143.106458 C73.9113069,144.292893 74.2950776,144.484072 73.7194216,145.86731 C73.1437655,147.250548 69.1964095,147.739742 65.7315082,147.154958 C62.2666069,146.570175 55.7260573,146.755731 55.7260573,146.755731 C55.7260573,146.755731 48.4398961,148.049002 45.2436343,146.019129 C42.0473725,143.989256 38.1164638,145.569296 37.8368595,145.569296 C37.5572551,145.569296 34.3719581,146.952533 31.0057407,144.877677 C27.6395232,142.80282 23.1165112,143.595651 23.1165112,143.595651 C23.1165112,143.595651 19.4597245,141.425205 17.3435031,142.611641 C15.2272817,143.798076 10.6110683,140.244392 9.45427366,139.159169 C8.29747907,138.073946 11.6472492,134.621474 14.1691711,133.631841 C16.6910929,132.642207 21.4827444,117.645885 21.9597166,117.156691 C22.4366888,116.667497 24.5583926,111.432561 24.2678234,109.363327 C23.9772541,107.294093 29.7502622,97.8138531 29.7502622,97.8138531 L33.4015664,85.072321 L34.4980542,81.1362784 L34.5419137,78.7915216 C34.5419137,77.734413 34.5912557,76.3792898 34.6186679,74.855479 C34.7173518,68.5578109 34.8215181,59.2181441 34.6186679,54.9953327 C34.5857732,54.3430742 34.5528786,53.8145199 34.5090191,53.4321615 C34.0265645,49.1924813 38.3467263,39.9371583 39.4158018,38.0422349 C40.205273,36.6421284 45.314906,35.5793969 48.3576596,34.9215155 C49.0831685,34.7869977 49.8006847,34.6105315 50.5067756,34.3929612 C50.782453,34.3216062 51.0679443,34.2987901 51.3510712,34.3254862 C54.2238691,34.4435674 62.6942371,36.2653929 62.6942371,36.2653929 C61.9266956,60.044713 63.467261,55.9006225 63.467261,55.9006225 C65.9672531,53.9269783 64.4266877,36.462195 64.4266877,36.462195 C65.6766838,37.0526014 66.954092,35.568151 66.954092,35.568151 L71.8334626,37.6430078 C73.3192501,38.558311 74.7559016,39.5550105 76.1371771,40.6287772 C77.295403,41.4655335 78.3121532,42.4912412 79.147036,43.6651529 C80.5889174,46.1336139 82.6119373,53.1397697 82.6119373,53.1397697 L80.8794867,55.9512287 C79.3663335,58.4421814 77.0417795,62.2713886 74.6569186,66.151202 L70.4244758,73.0617682 C68.5330344,76.1431272 66.9924691,78.6453257 66.3510238,79.6630739 C66.2063173,79.9073525 66.1042759,80.1756526 66.0494896,80.4559053 C66.0132092,80.6414414 65.9893959,80.8293141 65.9782179,81.0181971 C65.9513476,81.8046925 66.0269416,82.5913481 66.2029979,83.357331 C67.4146169,89.2501491 72.8915733,98.9046992 72.8915733,98.9046992 C72.8915733,98.9046992 78.3740121,107.485272 78.472696,110.246125 C78.5713799,113.006978 84.4375895,115.970255 85.7862694,119.720742 C87.1349494,123.471228 90.1119136,124.848843 89.7281429,127.120502 C89.3443722,129.392161 93.5658501,130.376171 94.3443564,131.854999 C95.1228627,133.333826 92.765414,135.211881 90.0735366,135.605485 Z" id="Path" fill="#FA595F"></path>
                        <path d="M91.9245021,110.263228 C90.2481361,111.281303 87.2974844,111.24236 86.3201196,111.103279 L85.967526,106.758379 L91.9368739,107.442659 C91.8426335,108.380782 91.8384943,109.324465 91.9245021,110.263228 L91.9245021,110.263228 Z" id="Path" fill="#000000" opacity="0.1"></path>
                        <path d="M79.609286,48.450029 L82.4428036,51.3190763 C82.4428036,51.3190763 83.7533055,58.8327109 84.926067,61.5044759 C86.0988285,64.1762409 85.961088,67.6371349 85.961088,67.6371349 C86.356649,68.2647807 86.7259148,68.9254232 87.066947,69.6155938 C87.8973251,71.1994882 88.9992486,79.1415071 88.5860273,80.1673746 C88.172806,81.1932422 90.9709046,89.6932879 90.9709046,89.6932879 C90.9709046,89.6932879 91.3644488,90.2569514 92.1790851,93.3514641 C92.9937214,96.4459768 92.1790851,99.980147 92.1790851,99.980147 C92.1790851,99.980147 94.3199651,106.806112 93.4226845,108.683112 C92.5254039,110.560111 89.6210483,110.374102 89.207827,110.165547 C88.7946057,109.956991 90.313686,108.880394 87.6336505,108.581652 C84.9536151,108.28291 81.4156535,101.462582 81.4156535,101.462582 C80.014745,97.837827 78.9912095,93.9392955 78.3774929,89.8905702 C77.7651847,85.7188928 76.935098,81.6189341 75.8942295,77.6252522 C75.5479107,76.1428172 74.0288304,66.5492643 74.0288304,66.5492643 L79.609286,48.450029 Z" id="Path" fill="#FA595F"></path>
                        <path d="M53.562495,50.2169487 C53.562495,50.2169487 53.2301678,73.0733481 50.1514391,77.6042039 L53.562495,50.2169487 Z" id="Path" fill="#000000" opacity="0.1"></path>
                        <path d="M70.6177745,58.1680873 C70.6177745,58.1680873 67.9799715,80.8136208 65.8974955,81.9817766 C63.8150195,83.1499323 70.6177745,58.1680873 70.6177745,58.1680873 Z" id="Path" fill="#000000" opacity="0.1"></path>
                        <path d="M67.2067186,55.5177078 C67.2067186,55.5177078 66.531675,77.114105 63.0105016,79.2461796 C59.4893283,81.3782543 67.2067186,55.5177078 67.2067186,55.5177078 Z" id="Path" fill="#000000" opacity="0.1"></path>
                        <path d="M36.5072155,96.1568607 C36.5072155,96.1568607 31.7482085,108.14472 32.2857272,113.096841 C32.8232459,118.048962 36.5072155,96.1568607 36.5072155,96.1568607 Z" id="Path" fill="#000000" opacity="0.1"></path>
                        <path d="M66.3539546,84.3550092 C61.5885089,85.555721 48.6967241,87.7091101 37.3599794,79.7832852 C37.3599794,78.7235021 37.4051258,77.3649503 37.4302071,75.8372842 C41.734157,78.4980163 53.8233404,85.4204295 59.9782898,83.4812519 C63.0482401,82.4947516 64.9945485,81.8690286 66.2134994,81.4631542 C66.0915857,82.4281527 66.1393051,83.4106545 66.3539546,84.3550092 L66.3539546,84.3550092 Z" id="Path" fill="#000000" opacity="0.1"></path>
                        <path d="M72.3233024,83.4751783 C66.5767355,84.670762 51.0307597,86.8250686 37.3599794,78.9015066 C37.3599794,77.8412719 37.4144206,76.4765018 37.4446657,74.9538244 C42.634723,77.6156901 57.2128559,84.5410525 64.6350008,82.6010487 C68.3369997,81.6197677 70.6840186,80.9881386 72.1539299,80.5877308 C72.0078719,81.5513011 72.0654099,82.5322037 72.3233024,83.4751783 Z" id="Path" fill="#000000" opacity="0.1"></path>
                        <path d="M66.0306514,85.0761148 C56.1253855,86.5712813 46.5684948,84.5678145 37.3599794,79.0657142 C37.3599794,77.9613781 37.4149861,76.5457132 37.4455453,74.9538244 C42.6895096,77.726413 53.6541622,85.0761148 65.6241545,82.2769044 C67.588703,81.8174902 67.724202,82.7505603 66.0306514,85.0761148 Z" id="Path" fill="#605D82"></path>
                        <path d="M65.5011906,83.4751783 C60.875905,84.670762 48.3632904,86.8250686 37.3599794,78.9015066 C37.3599794,77.8412719 37.4037979,76.4821414 37.4281415,74.9538244 C41.6055047,77.6156901 53.3391239,84.5410525 59.3130454,82.6010487 C62.2927031,81.6197677 64.1817671,80.9881386 65.3648664,80.5877308 C65.2473075,81.5513011 65.2936186,82.5322037 65.5011906,83.4751783 Z" id="Path" fill="#000000" opacity="0.1"></path>
                        <path d="M47.4649197,206.272799 C47.4649197,206.401472 47.4335138,206.485389 47.4272326,206.513361 L38.2127434,212.77356 C39.6825392,211.581941 40.05941,208.807089 40.0531288,206.233638 C40.0531288,205.953915 40.0531288,205.674192 40.0531288,205.394469 C40.8641985,203.616051 42.0161405,201.976722 43.4575277,200.549668 C45.0278223,200.186028 46.0139674,200.549668 46.598117,201.181842 C46.598117,201.243381 46.598117,201.30492 46.598117,201.360864 C46.7233908,201.496034 46.8328328,201.642249 46.9247383,201.797232 C47.8480716,203.21263 47.5842621,205.523142 47.4649197,206.272799 Z" id="Path" fill="#000000" opacity="0.1"></path>
                        <path d="M46.7403832,216.708987 L39.9182714,220.724699 C39.9182714,220.724699 39.9614103,220.254438 40.0230373,219.562256 C40.8353359,217.766095 42.0190591,216.110377 43.5172897,214.674712 C45.0579654,214.336546 46.0255097,214.674712 46.598641,215.271785 C46.6541053,216.138333 46.7403832,216.708987 46.7403832,216.708987 Z" id="Path" fill="#000000" opacity="0.1"></path>
                        <path d="M47.4254703,207.423161 C46.4977917,209.479011 46.0298429,211.701052 46.0522613,213.943806 C46.0916706,215.787249 45.6063217,217.605726 44.6492,219.200716 C44.5153616,219.426641 44.3615456,219.640948 44.1894735,219.841239 C44.1894735,219.841239 39.598179,219.806616 37.9921215,218.519799 C37.8099098,218.389078 37.659178,218.221739 37.5503065,218.029308 C36.6308535,216.25777 39.3414486,209.471683 39.3414486,209.471683 C40.7624214,204.237855 43.6521308,201.444942 43.6521308,201.444942 C48.8046498,200.140813 47.4254703,207.423161 47.4254703,207.423161 Z" id="Path" fill="#5A5773"></path>
                        <path d="M45.0348552,218.355998 C44.8976989,218.568258 44.7400698,218.769603 44.5637318,218.957779 C44.5637318,218.957779 39.8586161,218.925251 38.2127434,217.716266 C39.0203836,215.341668 41.6085031,208.158238 42.8138448,209.378066 C44.0191866,210.597894 44.7472864,216.062722 45.0348552,218.355998 Z" id="Path" fill="#000000" opacity="0.1"></path>
                        <path d="M44.495123,209.834381 L44.1820912,220.724699 L45.7059063,220.724699 C45.7059063,220.724699 45.948063,211.172366 46.6331891,209.834381 C47.3183153,208.496396 44.495123,209.834381 44.495123,209.834381 Z" id="Path" fill="#5A5773"></path>
                        <path d="M79.0131303,203.657954 L78.9752798,203.888053 L78.9752798,203.888053 L69.7650105,210.123181 C71.1970181,208.899726 71.5692139,206.14976 71.5629055,203.601832 C71.5629055,203.321223 71.5629055,203.040614 71.5629055,202.754394 C72.3757686,200.972525 73.5305691,199.329903 74.9757519,197.899861 C76.5528528,197.53507 77.5495806,197.899861 78.1614958,198.528425 C78.1614958,198.595771 78.1614958,198.651893 78.1614958,198.713627 C78.2886371,198.846323 78.3986689,198.991273 78.4895328,199.145764 C79.4042513,200.588094 79.1329899,202.911534 79.0131303,203.657954 Z" id="Path" fill="#000000" opacity="0.1"></path>
                        <path d="M78.2926503,214.056177 L71.4705385,218.074319 C71.4705385,218.074319 71.5136774,217.604392 71.5814671,216.912701 C72.3882268,215.116652 73.5702305,213.461593 75.0695568,212.028626 C76.6102324,211.690701 77.5777767,212.002225 78.1817216,212.625275 C78.2063724,213.491208 78.2926503,214.056177 78.2926503,214.056177 Z" id="Path" fill="#000000" opacity="0.1"></path>
                        <path d="M78.9787547,205.657635 C78.0454299,207.711972 77.5749049,209.934362 77.598357,212.177548 C77.6378011,214.020784 77.1520234,215.839057 76.1940562,217.433868 C76.0581436,217.658569 75.9043002,217.872701 75.7339237,218.074319 C75.7339237,218.074319 71.1385736,218.0397 69.5310975,216.753027 C69.354017,216.617802 69.2075757,216.448913 69.1008436,216.256821 C68.1865542,214.485482 70.893568,207.700156 70.893568,207.700156 C72.3157959,202.466916 75.2080579,199.674316 75.2080579,199.674316 C80.3531767,198.387643 78.9787547,205.657635 78.9787547,205.657635 Z" id="Path" fill="#5A5773"></path>
                        <path d="M75.7343583,215.705948 C75.5951992,215.916966 75.4376811,216.118059 75.2632349,216.3074 C75.2632349,216.3074 70.5581192,216.274889 68.9122465,215.066567 C69.7198867,212.69327 72.3080062,205.508359 73.5133479,206.727518 C74.7186897,207.946678 75.4467895,213.397673 75.7343583,215.705948 Z" id="Path" fill="#000000" opacity="0.1"></path>
                        <path d="M75.2005083,207.184285 L74.8815944,218.074319 L76.4052946,218.074319 C76.4052946,218.074319 76.647433,208.522909 77.3325075,207.184285 C78.017582,205.845661 75.2005083,207.184285 75.2005083,207.184285 Z" id="Path" fill="#5A5773"></path>
                        <path d="M80.8474746,59.2149646 C80.7874696,62.0227181 79.4223551,65.0157833 77.0271541,65.8524938 C76.3270954,66.0939606 75.5820329,66.1501157 74.8669729,66.3129654 C74.5231544,66.3843316 74.1876501,66.4992476 73.866889,66.6555113 C72.3317603,67.4472978 71.5666961,69.4127252 71.2566701,71.2770735 C71.1466608,71.9172413 71.076655,72.5630246 71.0066491,73.2144234 C70.9238176,74.4544256 70.6934154,75.6763744 70.3215916,76.8476563 C69.6363942,78.652026 68.4554875,80.1631477 66.9513089,81.1603656 C65.2048895,82.3262015 63.3213429,83.210858 61.3558395,83.7884229 C63.3647807,80.3128451 63.9132466,76.0218577 62.8559653,72.0520134 C62.5359385,70.9008345 61.8558814,69.6148834 60.7707904,69.6485765 C59.9257195,69.676654 59.3206688,70.51898 58.6906159,71.1591478 C55.5903558,74.2926007 50.7399489,72.8943395 46.8146196,71.316382 C53.8152069,63.3255157 55.7603701,50.3480792 51.5400161,40.2120893 C51.1565376,39.4213597 50.8673655,38.5774071 50.6799439,37.7019577 C50.5557168,36.8306417 50.6296816,35.9381972 50.8949619,35.1075935 C51.2358122,34.0444214 51.7143264,33.0434661 52.3150811,32.1369903 C52.5601016,31.7495203 52.815123,31.3676659 53.0751448,30.9801959 C53.4101729,30.4691848 53.745201,29.9525581 54.0452262,29.419085 C54.4897963,28.67232 54.8272625,27.8518349 55.0453101,26.9875705 C55.4903474,25.0782981 54.865295,22.6636302 53.220157,22.0122314 L53.1301494,21.9729228 C51.3099968,21.332755 50.7449494,21.1418278 49.5048453,19.5020998 C48.6747757,18.4126914 48.2047363,16.6943463 46.7846171,16.3742624 C45.6945257,16.1215646 44.4744233,16.6662688 43.3293273,16.9975837 C43.9394929,12.567211 46.914463,9.01527143 50.814846,8.06031385 C54.7152291,7.10535627 58.7367755,8.94429063 60.9337248,12.6873781 C63.1306741,16.4304655 63.0500205,21.3058905 60.7307871,24.954757 C62.0108944,29.6717828 65.3261726,33.4341724 67.8663857,35.7533768 L72.316759,37.8254988 C73.6719151,38.7395956 74.9822554,39.7349815 76.2420883,40.807333 C76.9292427,44.3134344 77.8759455,47.7489621 79.0723257,51.0780951 C79.6822454,52.7190743 80.1836454,54.4083014 80.5724516,56.1320513 C80.7781841,57.1428002 80.8705751,58.1784709 80.8474746,59.2149646 L80.8474746,59.2149646 Z" id="Path" fill="#000000" opacity="0.1"></path>
                        <path d="M54.321993,21.0481289 C55.8002931,21.6494445 56.370865,24.1221444 55.9775162,26.0665856 C55.5841673,28.0110268 54.5251512,29.5845631 53.6303906,31.2199168 C52.7356301,32.8552706 51.9402873,34.8109513 52.2126058,36.7891112 C52.3746187,37.6652256 52.6245879,38.5098193 52.9560783,39.3011494 C56.6042808,49.4448385 54.90121,62.4265126 48.8713018,70.4290684 C52.264476,72.0082245 56.4616378,73.4075478 59.1372745,70.2717148 C59.6819113,69.6310608 60.2049356,68.7880949 60.9354406,68.759996 C61.8647813,68.7206576 62.4656109,70.0132053 62.7379293,71.1652586 C63.6517332,75.1362883 63.1775924,79.4287533 61.4411749,82.904963 C64.5663531,81.7248108 67.9984298,79.8983848 69.1957664,75.9645442 C69.7317582,74.2055554 69.7317582,72.2498747 69.9997542,70.3841102 C70.2677501,68.5183458 70.9290948,66.5570453 72.2561069,65.7646574 C73.1206098,65.2588779 74.0931757,65.3206954 74.9879362,64.9610299 C77.0584208,64.1236839 78.2384674,61.133965 78.2903375,58.318459 C78.3422077,55.5029531 77.5122849,52.7998426 76.7342322,50.1754089 C72.4117174,35.5640008 76.4748813,47.2699866 74.1061432,29.685719 C73.6220216,26.0946844 74.3784616,23.9479314 74.9965813,20.3962353 C75.6147009,16.8445392 75.4807029,12.7308658 73.5831189,10.0446146 C71.6855349,7.35836347 68.7375798,6.85820373 66.3818093,5.0373975 C64.2940346,3.41890306 62.4569658,0.693313479 60.0277125,0.74319737 C58.2468364,0.777610064 58.2511589,1.15413481 56.6086033,2.05329838 C53.7687111,3.60435555 50.5830177,3.13791445 47.6955778,4.41922254 C45.1020689,5.57689564 41.8083127,9.3646222 42.5950104,13.4108583 C43.6540265,18.8564177 46.5587564,14.84952 48.8237542,15.4620752 C50.0513484,15.7992615 50.4576648,17.4964328 51.1752022,18.5922884 C52.264476,20.2107828 52.7485976,20.4074748 54.321993,21.0481289 Z" id="Path" fill="#573C3B"></path>
                        <path d="M16.8003542,88.2057221 C16.8003542,88.2057221 15.093923,88.0427311 12.7986528,87.7221821 C6.79009214,86.896361 -3.37038391,85.0056652 2.40985143,82.2891484 C7.71541048,79.7790868 15.0278288,81.908836 19.305924,83.6148086 C20.5228078,84.1005611 21.7101826,84.6446368 22.8629919,85.2447187 L16.8003542,88.2057221 Z" id="Path" fill="#A1616A"></path>
                        <path d="M49.2986751,53.2966191 C49.2986751,53.2966191 46.555392,66.1553337 45.1837505,68.9898416 C43.812109,71.8243496 41.5741676,79.2935856 41.5741676,79.2935856 C41.5741676,79.2935856 38.3315589,82.0218693 35.6544515,84.6718827 L36.8576458,80.7583609 L36.9057736,78.42702 C36.9057736,77.3759599 36.9599173,76.0285902 36.9899972,74.5134982 C37.0982847,68.2518632 37.2125881,58.965635 36.9899972,54.7669851 C37.2246201,54.3588607 37.3750194,54.1072772 37.3750194,54.1072772 L39.5106893,50.9596875 C39.5106893,50.9596875 42.9939369,42.3275764 44.9972554,39.8732392 C47.0005739,37.4189019 49.2986751,53.2966191 49.2986751,53.2966191 Z" id="Path" fill="#000000" opacity="0.1"></path>
                        <path d="M18.599172,86.3574311 C18.599172,86.3574311 18.2782055,87.5198783 17.7369678,89.0891819 C17.0509806,88.8334436 16.4782756,88.6300153 16.0566137,88.5079584 C14.1685754,87.9267348 16.3901672,87.1827686 15.8363426,85.6541506 C15.364333,84.3405853 14.4895419,84.753254 13.4825881,84.3870832 C14.1413142,83.5594497 14.8537831,82.7694729 15.6160714,82.0215032 L18.599172,86.3574311 Z" id="Path" fill="#000000" opacity="0.1"></path>
                        <path d="M39.5071196,51.0177161 L37.3614392,54.1864678 C37.3614392,54.1864678 34.4481492,59.2125695 33.9948364,60.7716179 C33.5415237,62.3306662 32.6348982,68.2966996 30.8216471,69.6812697 C29.0083961,71.0658397 25.3033199,75.5065947 25.8352068,76.3958714 C26.3670938,77.2851481 20.8487665,78.3714164 20.8487665,78.3714164 C20.8487665,78.3714164 17.1376461,79.7559865 17.349192,80.8422548 C17.560738,81.9285232 14.2727094,82.8177998 15.4392343,83.6057665 C16.6057591,84.3937332 17.669533,83.6057665 18.20142,85.0860182 C18.733307,86.5662699 16.6057591,87.2641832 18.412966,87.8551582 C20.2201728,88.4461333 26.1555478,90.7593783 26.1555478,90.7593783 C26.1555478,90.7593783 30.924398,91.5079466 32.3024688,88.8401166 C33.6805396,86.1722866 41.5319165,79.5589948 41.5319165,79.5589948 C41.5319165,79.5589948 43.7561711,72.050798 45.1584186,69.1859763 C46.560666,66.3211546 49.2986751,53.3872444 49.2986751,53.3872444 C49.2986751,53.3872444 47.0683763,37.3858925 45.067756,39.8792442 C43.0671357,42.3725959 39.5071196,51.0177161 39.5071196,51.0177161 Z" id="Path" fill="#FA595F"></path>
                        <path d="M33.7977367,76.7207441 C33.7977367,76.7207441 23.0770884,78.002823 28.8169865,80.1733602 C34.5568845,82.3438973 36.5072155,80.1733602 36.5072155,80.1733602 L33.7977367,76.7207441 Z" id="Path" fill="#000000" opacity="0.1"></path>
                        <path d="M20.3046999,82.4632331 C20.3046999,82.4632331 26.2636001,81.4693408 27.8030802,82.4632331 C29.3425603,83.4571254 20.3046999,82.4632331 20.3046999,82.4632331 Z" id="Path" fill="#000000" opacity="0.1"></path>
                        <path d="M19.451936,85.1136126 C19.451936,85.1136126 19.9178367,84.1197203 22.2539962,85.1136126 C24.5901557,86.107505 19.451936,85.1136126 19.451936,85.1136126 Z" id="Path" fill="#000000" opacity="0.1"></path>
                        <path d="M89.3785819,94.389941 C89.3785819,94.389941 90.0765172,103.795463 92.9143485,104.101143 C95.7521798,104.406822 89.3785819,94.389941 89.3785819,94.389941 Z" id="Path" fill="#000000" opacity="0.1"></path>
                        <path d="M95.3202469,74.0703646 C95.3202469,74.0703646 95.79403,77.0241789 92.8215276,77.5557447 C89.8490253,78.0873105 95.3202469,74.0703646 95.3202469,74.0703646 Z" id="Path" fill="#000000" opacity="0.1"></path>
                        <path d="M63.7959297,101.45762 C63.7959297,101.45762 63.6562666,128.988268 69.7650105,132.378714 L63.7959297,101.45762 Z" id="Path" fill="#000000" opacity="0.1"></path>
                        <path d="M71.4706706,102.34108 C71.4706706,102.34108 71.3612552,129.866151 77.4398863,133.262174 L71.4706706,102.34108 Z" id="Path" fill="#000000" opacity="0.1"></path>
                        <path d="M39.0655074,162.867393 C40.584891,162.680261 42.1141022,162.680261 43.6334858,162.867393 C46.1742153,163.141266 39.0655074,162.867393 39.0655074,162.867393 Z" id="Path" fill="#000000" opacity="0.1"></path>
                        <path d="M39.0655074,164.62646 C40.584891,164.439328 42.1141022,164.439328 43.6334858,164.62646 C46.1742153,164.935671 39.0655074,164.62646 39.0655074,164.62646 Z" id="Path" fill="#000000" opacity="0.1"></path>
                        <path d="M70.6177745,160.207197 C72.1371581,160.020065 73.6663693,160.020065 75.1857528,160.207197 C77.7264824,160.525243 70.6177745,160.207197 70.6177745,160.207197 Z" id="Path" fill="#000000" opacity="0.1"></path>
                        <path d="M71.4705385,161.97608 C72.7372317,161.788948 74.012118,161.788948 75.2788112,161.97608 C77.3914297,162.285291 71.4705385,161.97608 71.4705385,161.97608 Z" id="Path" fill="#000000" opacity="0.1"></path>
                        <g id="Group" opacity="0.1" transform="translate(43.329327, 4.277037)" fill="#000000">
                            <path d="M9.10626179,65.0840558 C16.082816,57.043197 18.0213015,43.9902218 13.8154359,33.7851684 C13.433274,32.9894919 13.1450945,32.1402594 12.9583164,31.2593329 C12.6443714,29.2703081 13.5563068,27.3038859 14.5928234,25.6595501 C15.62934,24.0152142 16.850237,22.4330354 17.2987298,20.4779144 C17.7472226,18.5227935 17.0944164,16.0365125 15.3901439,15.4375448 C13.5762398,14.793372 13.0131322,14.5955996 11.7772854,12.9456131 C10.9500654,11.8493892 10.4816396,10.1202938 9.06639577,9.80385804 C6.45517118,9.18793842 3.08649213,13.1942412 1.88552814,7.73572429 C1.19783922,4.67307815 3.2060902,1.74604734 5.52330286,0 C2.62803285,1.36180391 -0.720713194,4.97821264 0.136406328,8.803695 C1.35730332,14.2791638 4.70604936,10.2559091 7.31727395,10.8718287 C8.73251782,11.2052164 9.2009436,12.9173599 10.0281636,14.0135838 C11.2689936,15.6635703 11.827118,15.8613427 13.6410221,16.5055155 C15.3452946,17.1044832 16.003084,19.5907642 15.549608,21.5458851 C15.0961319,23.5010061 13.8752349,25.0831849 12.8437016,26.7275208 C11.8121682,28.3718566 10.8952496,30.3382788 11.2091946,32.3329543 C11.3968805,33.2117613 11.685026,34.0589941 12.0663141,34.8531391 C16.2721797,45.0581925 14.308778,58.1111677 7.35713998,66.1520265 C11.1244793,67.6833496 15.7439548,69.0395029 18.818622,66.3271963 C15.9034189,67.4912279 12.2158117,66.3441482 9.10626179,65.0840558 Z" id="Path"></path>
                            <path d="M33.077573,60.806282 C32.7417405,61.0147869 32.4357157,61.3031328 32.173773,61.6578702 C32.887775,61.417204 33.642448,61.3863493 34.342893,61.0839738 C34.8860499,60.8543422 35.3879121,60.4717409 35.816087,59.9608646 C34.916806,60.3064367 33.931664,60.2694111 33.077573,60.806282 Z" id="Path"></path>
                            <path d="M24.2820929,76.0101203 C23.0454336,76.6311053 21.7700183,77.149655 20.4660485,77.5616217 C22.4831023,74.071772 23.0338729,69.7624643 21.9723818,65.7758531 C21.6560518,64.6474884 20.9681596,63.32166 19.8785785,63.3555109 C19.2240071,63.4687541 18.6300545,63.8506869 18.2115696,64.4274573 C19.2157918,64.4669501 19.903684,65.7194349 20.220014,66.8421577 C21.2815051,70.8287689 20.7307346,75.1380766 18.7136807,78.6279263 C20.66783,78.046227 22.5415148,77.1653757 24.2820929,76.0101203 L24.2820929,76.0101203 Z" id="Path"></path>
                        </g>
                    </g>
                </g>
            </g>
        </g>
    </g>
</svg>