<?xml version="1.0" encoding="UTF-8"?>
<svg width="663px" height="338px" viewBox="0 0 663 338" version="1.1" xmlns="http://www.w3.org/2000/svg" xmlns:xlink="http://www.w3.org/1999/xlink">
    <!-- Generator: Sketch 62 (91390) - https://sketch.com -->
    <title>ux</title>
    <desc>Created with Sketch.</desc>
    <defs>
        <path d="M172.872424,13.8424403 L172.872424,321.914322 C172.868438,329.556841 165.85602,335.75066 157.207036,335.75066 L15.6653565,335.75066 C11.5096286,335.757033 7.52192622,334.30153 4.58273259,331.705506 C1.64353896,329.109481 -0.00539552314,325.586459 -3.49428326e-13,321.914322 L-3.49428326e-13,13.8424403 C-3.49428326e-13,10.1711552 1.65022598,6.65019033 4.58808533,4.05419611 C7.52594468,1.45820189 11.5105901,6.61641642e-14 15.6653565,6.61641642e-14 L36.8499178,6.61641642e-14 L36.8499178,2.40183427 C36.849976,8.69667996 42.6249672,13.7996478 49.7487978,13.7996992 L121.733483,13.7996992 C128.857289,13.7996264 134.632241,8.69665853 134.632275,2.40183427 L134.632275,6.61641642e-14 L157.207019,6.61641642e-14 C161.362155,6.61641642e-14 165.347498,1.45681259 168.285624,4.05303297 C171.223751,6.64925334 172.872424,10.1708283 172.872424,13.8424403 L172.872424,13.8424403 Z" id="path-1"></path>
    </defs>
    <g id="Page-1" stroke="none" stroke-width="1" fill="none" fill-rule="evenodd">
        <g id="Desktop-HD-Copy-2" transform="translate(-45.000000, -213.000000)" fill-rule="nonzero">
            <g id="ux" transform="translate(45.000000, 214.000000)">
                <g id="PhoneM" transform="translate(245.000000, 0.000000)">
                    <path d="M172.872424,13.8424558 L172.872424,321.91433 C172.868419,329.556843 165.856013,335.750676 157.207036,335.750676 L15.6653565,335.750676 C11.5096271,335.757048 7.52192338,334.301544 4.58272949,331.705518 C1.64353561,329.109492 -0.00539784737,325.586468 -1.49754997e-13,321.91433 L-1.49754997e-13,13.8424558 C-1.49754997e-13,10.171168 1.65021928,6.65019917 4.58807913,4.0542016 C7.52593898,1.45820402 11.5105871,6.61641642e-14 15.6653565,6.61641642e-14 L36.8499266,6.61641642e-14 L36.8499266,2.40179547 C36.8499799,8.69663865 42.62497,13.7996055 49.7487978,13.7996527 L121.733483,13.7996527 C128.857281,13.7995841 134.632232,8.69662793 134.632275,2.40181099 L134.632275,6.61641642e-14 L157.207028,6.61641642e-14 C161.362165,6.61641642e-14 165.347508,1.45681768 168.285634,4.05304119 C171.223759,6.6492647 172.872424,10.1708425 172.872424,13.8424558 Z" id="Path" fill="#F19C7F"></path>
                    <rect id="Rectangle" fill="#FFD3B6" x="6.21775622" y="51.4894167" width="160.457667" height="69.0593448"></rect>
                    <path d="M70.8217609,98.9086932 C75.0221307,112.628923 89.4093464,121.126208 89.4093464,121.126208 C89.4093464,121.126208 96.9864127,107.378601 92.7860429,93.6583712 C88.5856732,79.938141 74.1984663,71.4408562 74.1984663,71.4408562 C74.1984663,71.4408562 66.6214,85.188463 70.8217609,98.9086932 Z" id="Path" fill="#FFAAA5"></path>
                    <path d="M76.9939092,95.9600643 C88.5197839,105.874392 89.9275824,121.115057 89.9275824,121.115057 C89.9275824,121.115057 72.6482545,120.281382 61.1223798,110.367054 C49.5965051,100.452726 48.1887066,85.2120839 48.1887066,85.2120839 C48.1887066,85.2120839 65.4680344,86.0457363 76.9939092,95.9600643 Z" id="Path" fill="#CC0E74"></path>
                    <path d="M109.033404,98.9086932 C104.833034,112.628923 90.4458271,121.126208 90.4458271,121.126208 C90.4458271,121.126208 82.8687608,107.378601 87.0691218,93.6583712 C91.2694828,79.938141 105.656707,71.4408562 105.656707,71.4408562 C105.656707,71.4408562 113.233774,85.188463 109.033404,98.9086932 Z" id="Path" fill="#FFFFFF"></path>
                    <path d="M102.861256,95.9600643 C91.3353896,105.874392 89.9275824,121.115057 89.9275824,121.115057 C89.9275824,121.115057 107.206919,120.281382 118.732785,110.367054 C130.258651,100.452726 131.666458,85.2120839 131.666458,85.2120839 C131.666458,85.2120839 114.38713,86.0457363 102.861256,95.9600643 Z" id="Path" fill="#CC0E74"></path>
                    <rect id="Rectangle" fill="#F0F0F0" x="20.5690283" y="159.221547" width="131.755114" height="6.39082864"></rect>
                    <rect id="Rectangle" fill="#F0F0F0" x="20.5690283" y="169.517875" width="131.755114" height="6.39082864"></rect>
                    <rect id="Rectangle" fill="#F0F0F0" x="20.5690283" y="179.814211" width="131.755114" height="6.39082864"></rect>
                    <rect id="Rectangle" fill="#F0F0F0" x="20.5690283" y="190.110539" width="131.755114" height="6.39082864"></rect>
                    <rect id="Rectangle-Copy-7" fill="#F0F0F0" x="20.5690283" y="236.819699" width="131.755114" height="6.39082864"></rect>
                    <rect id="Rectangle-Copy-6" fill="#F0F0F0" x="20.5690283" y="247.116027" width="131.755114" height="6.39082864"></rect>
                    <rect id="Rectangle-Copy-5" fill="#F0F0F0" x="20.5690283" y="257.412363" width="131.755114" height="6.39082864"></rect>
                    <rect id="Rectangle-Copy-4" fill="#F0F0F0" x="20.5690283" y="267.708691" width="131.755114" height="6.39082864"></rect>
                    <polygon id="Rectangle" fill="#FCF8F3" transform="translate(34.265069, 216.065678) rotate(45.000000) translate(-34.265069, -216.065678) " points="23.0133374 204.813945 46.998572 203.332175 45.5168016 227.31741 21.5315669 228.79918"></polygon>
                    <polygon id="Rectangle-Copy" fill="#FCF8F3" transform="translate(70.270146, 215.289696) rotate(45.000000) translate(-70.270146, -215.289696) " points="59.0184135 204.037964 83.0036481 202.556194 81.5218777 226.541428 57.5366431 228.023199"></polygon>
                    <polygon id="Rectangle-Copy-2" fill="#FCF8F3" transform="translate(105.397049, 215.289696) rotate(45.000000) translate(-105.397049, -215.289696) " points="94.1453171 204.037964 118.130552 202.556194 116.648781 226.541428 92.6635466 228.023199"></polygon>
                    <polygon id="Rectangle-Copy-3" fill="#FCF8F3" transform="translate(140.523953, 215.289696) rotate(45.000000) translate(-140.523953, -215.289696) " points="129.272221 204.037964 153.257455 202.556194 151.775685 226.541428 127.79045 228.023199"></polygon>
                    <path d="M90.4253921,317.353886 C85.8416844,317.353886 82.1258532,314.070461 82.1258532,310.02015 C82.1258532,305.969838 85.8416786,302.686408 90.4253862,302.686408 C95.0090938,302.686408 98.7249309,305.969828 98.7249309,310.020139 C98.7196995,314.068537 95.0069336,317.349259 90.4253921,317.353886 L90.4253921,317.353886 Z M90.4253921,303.908703 C87.6280142,303.908703 85.1060845,305.397712 84.0355759,307.681407 C82.9650674,309.965102 83.5567986,312.593748 85.534846,314.341609 C87.5128934,316.089471 90.4877139,316.612337 93.072152,315.666396 C95.6565902,314.720454 97.3416774,312.491992 97.3416774,310.020139 C97.3374233,306.646438 94.2433846,303.912453 90.4253921,303.908703 Z" id="Shape" fill="#790C5A"></path>
                </g>
                <g id="phoneL">
                    <path d="M173.811561,321.914322 C173.807572,329.556841 166.79024,335.750681 158.135197,335.750681 L16.4943635,335.750681 C12.3357209,335.757037 8.34522001,334.301536 5.40396323,331.705511 C2.46270645,329.109486 0.812614232,325.586462 0.818000338,321.914322 L0.818000338,13.8424403 C0.818000338,10.1711525 2.46939817,6.65018528 5.40931972,4.05419062 C8.34924128,1.45819595 12.3366831,0 16.4943635,0 L37.6937677,0 L37.6937677,2.40183427 C37.693826,8.69667995 43.4728634,13.7996478 50.6016853,13.7996992 L122.636807,13.7996992 C129.765604,13.7996264 135.544602,8.69665853 135.544636,2.40183427 L135.544636,0 L158.135197,0 C162.293241,0 166.281372,1.45681852 169.221553,4.05303845 C172.161735,6.64925838 173.811561,10.170831 173.811561,13.8424403 L173.811561,321.914322 Z" id="Path" stroke="#790C5A" fill="#FCF8F3"></path>
                    <path d="M155.844311,168.218028 L17.421845,168.218028 L17.421845,58.8231327 L155.844311,58.8231327 L155.844311,168.218028 Z M18.8060414,166.995733 L154.46008,166.995733 L154.46008,60.0454278 L18.8060414,60.0454278 L18.8060414,166.995733 Z" id="Shape" fill="#790C5A"></path>
                    <polygon id="Rectangle" fill="#790C5A" transform="translate(86.633060, 113.520571) rotate(-48.205220) translate(-86.633060, -113.520571) " points="80.6436452 26.3502023 81.9379587 26.4306699 92.6224749 200.69094 91.3281613 200.610473"></polygon>
                    <polygon id="Rectangle" fill="#790C5A" transform="translate(86.633062, 113.520563) rotate(-41.793840) translate(-86.633062, -113.520563) " points="-0.537481947 107.531169 173.723139 118.215646 173.803606 119.509957 -0.457014643 108.82548"></polygon>
                    <rect id="Rectangle" fill="#790C5A" x="18.1139256" y="199.997545" width="137.03827" height="1.2222873"></rect>
                    <rect id="Rectangle" fill="#790C5A" x="18.1139256" y="210.998154" width="137.03827" height="1.2222873"></rect>
                    <rect id="Rectangle" fill="#790C5A" x="18.1139256" y="221.998755" width="137.03827" height="1.2222873"></rect>
                    <rect id="Rectangle" fill="#790C5A" x="18.1139256" y="232.999356" width="68.5191348" height="1.2222873"></rect>
                    <rect id="Rectangle" fill="#790C5A" x="18.1139256" y="243.999957" width="68.5191348" height="1.2222873"></rect>
                </g>
                <g id="phoneR" transform="translate(489.000000, 0.000000)">
                    <g id="Path">
                        <use stroke="#979797" fill="#FCF8F3" xlink:href="#path-1"></use>
                        <use stroke="#790C5A" xlink:href="#path-1"></use>
                    </g>
                    <rect id="Rectangle" fill="#790C5A" x="18.667047" y="157.828567" width="136.942321" height="1.2222873"></rect>
                    <rect id="Rectangle" fill="#790C5A" x="18.667047" y="189.608091" width="136.942321" height="1.2222873"></rect>
                    <rect id="Rectangle" fill="#790C5A" x="18.667047" y="221.387607" width="136.942321" height="1.2222873"></rect>
                    <ellipse id="Oval" fill="#CC0E74" cx="86.4357837" cy="89.7051178" rx="22.4830888" ry="19.8667799"></ellipse>
                    <rect id="Rectangle" fill="#FFAAA5" x="121.027968" y="152.328262" width="9.68279244" height="19.5566278"></rect>
                    <rect id="Rectangle" fill="#FFAAA5" x="35.9577383" y="183.496639" width="9.68279244" height="19.5566278"></rect>
                    <rect id="Rectangle" fill="#FFAAA5" x="92.6712306" y="214.665015" width="9.68279244" height="19.5566278"></rect>
                    <path d="M86.4364424,113.826154 C75.2469438,113.826154 65.1592363,107.870126 60.8772047,98.7353574 C56.5951731,89.6005889 58.9620909,79.086018 66.8742675,72.0945756 C74.786444,65.1031332 86.6857104,63.0116652 97.0234539,66.7954205 C107.361197,70.5791757 114.101557,79.4930078 114.101557,89.3804083 C114.084184,102.875072 101.708254,113.810824 86.4364424,113.826154 Z M86.4364424,66.1568333 C71.9213711,66.1568333 60.1545809,76.5543472 60.1545809,89.3803307 C60.1545809,102.206314 71.9213711,112.603828 86.4364424,112.603828 C100.951514,112.603828 112.718304,102.206314 112.718304,89.3803307 C112.701806,76.5603968 100.944667,66.1714286 86.4364424,66.1568333 L86.4364424,66.1568333 Z" id="Shape" fill="#790C5A"></path>
                </g>
                <g id="arrowL" transform="translate(177.000000, 195.000000)" fill="#3F3D56">
                    <polygon id="Rectangle" transform="translate(28.931660, 33.622175) rotate(-39.546170) translate(-28.931660, -33.622175) " points="25.5634959 -6.86981203 27.2324871 -6.76771328 32.2998239 74.1141624 30.6308327 74.0120636"></polygon>
                    <path d="M63.3718676,70.3857671 C58.7768079,68.0383684 52.4123235,65.6084348 47.3992386,64.8794284 L55.7500287,62.2497294 L60.2586622,55.5209825 C60.1221756,59.9975771 61.6249307,65.9656512 63.3718676,70.3857671 Z" id="Path"></path>
                </g>
                <g id="arrow" transform="translate(422.000000, 63.000000)" fill="#3F3D56">
                    <polygon id="Rectangle" transform="translate(34.674986, 33.976638) rotate(-50.466580) translate(-34.674986, -33.976638) " points="-5.74035498 30.6174657 74.9885023 35.6693221 75.0903262 37.3358102 -5.6385311 32.2839538"></polygon>
                    <path d="M0.301998629,70.6737098 C2.04425488,66.2606749 3.54410113,60.3034321 3.40791613,55.8349621 L7.90901238,62.5524303 L16.2421274,65.1763927 C11.2388161,65.9041068 4.88673613,68.3296073 0.301998629,70.6737098 Z" id="Path"></path>
                </g>
            </g>
        </g>
    </g>
</svg>