<?xml version="1.0" encoding="UTF-8"?>
<svg width="515px" height="243px" viewBox="0 0 515 243" version="1.1" xmlns="http://www.w3.org/2000/svg" xmlns:xlink="http://www.w3.org/1999/xlink">
    <!-- Generator: Sketch 62 (91390) - https://sketch.com -->
    <title>wireframe</title>
    <desc>Created with Sketch.</desc>
    <g id="Page-1" stroke="none" stroke-width="1" fill="none" fill-rule="evenodd">
        <g id="Desktop-HD-Copy-3" transform="translate(-384.000000, -280.000000)" fill-rule="nonzero">
            <g id="wireframe" transform="translate(384.000000, 280.000000)">
                <rect id="Rectangle" fill="#FFB2A7" x="0" y="0" width="515" height="243"></rect>
                <g id="2" transform="translate(109.000000, 11.000000)">
                    <path d="M130.420917,109.098371 L1.46085686,109.098371 C1.07349054,109.098371 0.701960778,108.944635 0.428051414,108.670726 C0.154142049,108.396816 0.00040681144,108.025287 0.00040681144,107.63792 L0.00040681144,56.0544703 C0.00040681144,55.6671049 0.154142367,55.2955762 0.428052019,55.0216684 C0.701961671,54.7477606 1.07349146,54.5940301 1.46085686,54.5940301 L130.420917,54.5940301 C130.808319,54.5940301 131.179919,54.7475995 131.453853,55.0215341 C131.727788,55.2954687 131.881357,55.6670684 131.881357,56.0544703 L131.881357,107.6379 C131.881357,108.025307 131.727796,108.396913 131.453861,108.670853 C131.179926,108.944794 130.808323,109.098371 130.420917,109.098371 Z M2.92130686,106.17748 L128.960467,106.17748 L128.960467,57.5149003 L2.92130686,57.5149003 L2.92130686,106.17748 Z" id="Shape" fill="#FFFFFF"></path>
                    <path d="M56.2689869,142.951081 L1.46085686,142.951081 C1.07349054,142.951081 0.701960778,142.797345 0.428051414,142.523436 C0.154142049,142.249526 0.000406811441,141.877997 0.000406811441,141.49063 L0.000406811441,119.56681 C0.000406811441,119.179444 0.154142049,118.807914 0.428051414,118.534005 C0.701960778,118.260096 1.07349054,118.10636 1.46085686,118.10636 L56.2689869,118.10636 C56.6563906,118.10636 57.0279914,118.259934 57.3019272,118.53387 C57.5758631,118.807806 57.7294371,119.179407 57.7294371,119.56681 L57.7294371,141.49063 C57.7294371,141.878034 57.5758631,142.249635 57.3019272,142.523571 C57.0279914,142.797507 56.6563906,142.951081 56.2689869,142.951081 L56.2689869,142.951081 Z M2.92130686,140.03019 L54.8085369,140.03019 L54.8085369,121.02726 L2.92130686,121.02726 L2.92130686,140.03019 Z" id="Shape" fill="#FFFFFF"></path>
                    <path d="M130.420917,142.951081 L75.6127869,142.951081 C75.2253831,142.951081 74.8537824,142.797507 74.5798465,142.523571 C74.3059106,142.249635 74.1523366,141.878034 74.1523366,141.49063 L74.1523366,119.56681 C74.1523366,119.179407 74.3059106,118.807806 74.5798465,118.53387 C74.8537824,118.259934 75.2253831,118.10636 75.6127869,118.10636 L130.420917,118.10636 C130.80832,118.10636 131.179919,118.259934 131.453854,118.533871 C131.727788,118.807807 131.881357,119.179408 131.881357,119.56681 L131.881357,141.49063 C131.881357,141.878033 131.727788,142.249634 131.453854,142.52357 C131.179919,142.797506 130.80832,142.951081 130.420917,142.951081 Z M77.0732269,140.03019 L128.960467,140.03019 L128.960467,121.02726 L77.0732269,121.02726 L77.0732269,140.03019 Z" id="Shape" fill="#FFFFFF"></path>
                    <path d="M128.809287,107.48675 C128.62672,107.48675 128.445797,107.452247 128.275877,107.38548 L0.927456861,57.4136603 C0.44186683,57.2230931 0.0948295566,56.7879425 0.0170706225,56.2721256 C-0.0606883115,55.7563086 0.142644526,55.2381902 0.550475623,54.9129406 C0.958306719,54.5876909 1.50867683,54.5047231 1.99426686,54.6952903 L129.342697,104.66711 C129.995885,104.923571 130.374311,105.608364 130.243873,106.297866 C130.113435,106.987368 129.511018,107.48675 128.809287,107.48675 Z" id="Path" fill="#FFFFFF"></path>
                    <path d="M1.46153686,109.098371 C0.761240314,109.098371 0.159233587,108.602002 0.0265862106,107.914383 C-0.106061166,107.226764 0.267980638,106.541756 0.918156861,106.28159 L129.878917,54.6981403 C130.627479,54.400988 131.475316,54.7658436 131.774158,55.5137328 C132.072999,56.261622 131.710059,57.1102803 130.962847,57.4108103 L2.00353686,108.99426 C1.83117187,109.063242 1.64719273,109.098371 1.46153686,109.098371 Z" id="Path" fill="#FFFFFF"></path>
                    <path d="M55.4631769,142.14527 C55.2801492,142.14527 55.0987601,142.110782 54.9283469,142.04401 L1.73112686,121.08716 C0.981995509,120.790389 0.61460738,119.943097 0.909995,119.193419 C1.20538262,118.44374 2.05199433,118.074788 2.80221686,118.36879 L55.9980069,139.32564 C56.6510104,139.582533 57.0290226,140.267513 56.8982519,140.956938 C56.7674812,141.646363 56.1648943,142.14527 55.4631769,142.14527 L55.4631769,142.14527 Z" id="Path" fill="#FFFFFF"></path>
                    <path d="M2.26666686,142.14527 C1.55784823,142.14527 0.951253833,141.636609 0.82823351,140.938548 C0.705213187,140.240486 1.10130515,139.554901 1.76749686,139.3128 L54.9639969,119.96901 C55.4548089,119.788017 56.0049459,119.883447 56.406125,120.219171 C56.807304,120.554895 56.998207,121.079598 56.9065576,121.594628 C56.8149082,122.109657 56.4547146,122.536293 55.9623469,122.71301 L2.76584686,142.0568 C2.60588509,142.115172 2.43694593,142.14527 2.26666686,142.14527 L2.26666686,142.14527 Z" id="Path" fill="#FFFFFF"></path>
                    <path d="M129.615097,142.14527 C129.4398,142.14527 129.265932,142.113737 129.101657,142.05256 L77.5182069,122.70877 C76.7628222,122.425205 76.3803368,121.58297 76.6639019,120.827585 C76.9474669,120.072201 77.7897022,119.689715 78.5450869,119.97328 L130.128537,139.31708 C130.789735,139.565133 131.17877,140.250705 131.052627,140.945544 C130.926483,141.640382 130.321293,142.14527 129.615097,142.14527 L129.615097,142.14527 Z" id="Path" fill="#FFFFFF"></path>
                    <path d="M78.0316469,140.53364 C77.318245,140.533427 76.7094264,140.01778 76.5917993,139.314143 C76.4741721,138.610505 76.8821735,137.924876 77.5567169,137.69264 L129.140167,119.96047 C129.634091,119.788149 130.182463,119.893255 130.577667,120.235993 C130.972871,120.578732 131.154502,121.106717 131.053794,121.620053 C130.953086,122.133389 130.585432,122.553614 130.090027,122.72163 L78.5065369,140.45377 C78.35377,140.506565 78.1932792,140.53364 78.0316469,140.53364 L78.0316469,140.53364 Z" id="Path" fill="#FFFFFF"></path>
                    <path d="M66.4507569,43.8140603 C57.5903188,43.8140603 49.6023368,38.4766607 46.2115949,30.290683 C42.820853,22.1047053 44.6951,12.682238 50.9603772,6.4169636 C57.2256544,0.151689228 66.6481226,-1.72255343 74.8340988,1.66819221 C83.0200749,5.05893784 88.3574669,13.0469223 88.3574669,21.9073603 C88.3442562,34.0006243 78.5440209,43.8008552 66.4507569,43.8140603 L66.4507569,43.8140603 Z M66.4507569,2.92154033 C58.7717058,2.92154033 51.8487746,7.54726043 48.9101178,14.6417739 C45.971461,21.7362873 47.5957973,29.9024335 53.0257007,35.3323483 C58.455604,40.762263 66.6217468,42.3866165 73.7162664,39.4479747 C80.810786,36.5093328 85.4365369,29.5864113 85.4365369,21.9073603 C85.4244245,11.4268183 76.9312989,2.93367475 66.4507569,2.92154033 L66.4507569,2.92154033 Z" id="Shape" fill="#FFFFFF"></path>
                    <path d="M62.5757269,28.6690603 L62.5757269,27.5637403 L63.9862569,26.1931403 C67.3835069,22.9613303 68.9181169,21.2413103 68.9380869,19.2374803 C69.0116921,18.5211879 68.7558414,17.810254 68.2426728,17.3051296 C67.7295042,16.8000053 67.0146171,16.555418 66.2995769,16.6403303 C65.2569622,16.6786878 64.2595214,17.0756493 63.4756669,17.7641903 L62.9023269,16.4962903 C63.9592446,15.6168315 65.2926024,15.1385399 66.6675469,15.1456603 C67.7375914,15.0505756 68.7968887,15.4199806 69.5757682,16.159834 C70.3546477,16.8996875 70.7779697,17.9386145 70.7379669,19.0121303 C70.7379669,21.4666603 68.9580469,23.4519503 66.1555269,26.1517803 L65.0915769,27.1344503 L65.0915769,27.1743803 L71.0659969,27.1743803 L71.0659969,28.6690603 L62.5757269,28.6690603 Z" id="Path" fill="#FFFFFF"></path>
                    <g id="note-blue-copy" transform="translate(11.392137, 158.361850)">
                        <path d="M-5.68434189e-13,56.93371 L47.75085,56.93371 C51.00947,38.0956878 51.00947,18.8380222 47.75085,7.10542736e-14 L-5.68434189e-13,7.10542736e-14 C5.37952022,18.5966805 5.37952022,38.3370295 -5.68434189e-13,56.93371 L-5.68434189e-13,56.93371 Z" id="Path" fill="#6C63FF"></path>
                        <path d="M40.21677,16.58773 L11.1595,16.58773 C10.65804,16.58773 10.2515,15.93452 10.2515,15.12728 C10.2515,14.32004 10.65807,13.66683 11.1595,13.66683 L40.21677,13.66683 C40.71823,13.66683 41.12477,14.32004 41.12477,15.12728 C41.12477,15.93452 40.71819,16.58773 40.21677,16.58773 Z" id="Path" fill="#FFFFFF"></path>
                        <path d="M40.21677,30.13624 L11.1595,30.13624 C10.65804,30.13624 10.2515,29.48303 10.2515,28.67579 C10.2515,27.86855 10.65807,27.21535 11.1595,27.21535 L40.21677,27.21535 C40.71823,27.21535 41.12477,27.86856 41.12477,28.67579 C41.12477,29.48302 40.71819,30.13624 40.21677,30.13624 Z" id="Path" fill="#FFFFFF"></path>
                        <path d="M40.21677,43.68476 L11.1595,43.68476 C10.65804,43.68476 10.2515,43.03155 10.2515,42.22431 C10.2515,41.41707 10.65807,40.76386 11.1595,40.76386 L40.21677,40.76386 C40.71823,40.76386 41.12477,41.41707 41.12477,42.22431 C41.12477,43.03155 40.71819,43.68476 40.21677,43.68476 Z" id="Path" fill="#FFFFFF"></path>
                    </g>
                    <g id="note-pink-copy" transform="translate(68.392137, 158.361850)">
                        <path d="M-2.84217094e-13,56.93371 L47.75086,56.93371 C51.0094701,38.095687 51.0094701,18.838023 47.75086,-1.56319402e-13 L-2.84217094e-13,-1.56319402e-13 C5.37952022,18.5966805 5.37952022,38.3370295 -2.84217094e-13,56.93371 L-2.84217094e-13,56.93371 Z" id="Path" fill="#CC0E74"></path>
                        <path d="M40.21677,16.58773 L11.15951,16.58773 C10.65805,16.58773 10.25151,15.93452 10.25151,15.12728 C10.25151,14.32004 10.65809,13.66684 11.15951,13.66684 L40.21677,13.66684 C40.71824,13.66684 41.12477,14.32004 41.12477,15.12728 C41.12477,15.93452 40.71824,16.58773 40.21677,16.58773 Z" id="Path" fill="#FFFFFF"></path>
                        <path d="M40.21677,30.13624 L11.15951,30.13624 C10.65805,30.13624 10.25151,29.48304 10.25151,28.6758 C10.25151,27.86856 10.65809,27.21535 11.15951,27.21535 L40.21677,27.21535 C40.71824,27.21535 41.12477,27.86856 41.12477,28.6758 C41.12477,29.48304 40.71824,30.13624 40.21677,30.13624 Z" id="Path" fill="#FFFFFF"></path>
                        <path d="M40.21677,43.68476 L11.15951,43.68476 C10.65805,43.68476 10.25151,43.03155 10.25151,42.22431 C10.25151,41.41707 10.65809,40.76387 11.15951,40.76387 L40.21677,40.76387 C40.71824,40.76387 41.12477,41.41707 41.12477,42.22431 C41.12477,43.03155 40.71824,43.68476 40.21677,43.68476 Z" id="Path" fill="#FFFFFF"></path>
                    </g>
                </g>
                <g id="3" transform="translate(260.000000, 12.000000)">
                    <path d="M62.0690102,43.8140603 C53.2085722,43.8140603 45.2205902,38.4766607 41.8298483,30.290683 C38.4391064,22.1047053 40.3133533,12.682238 46.5786306,6.4169636 C52.8439078,0.151689228 62.266376,-1.72255343 70.4523521,1.66819221 C78.6383283,5.05893784 83.9757202,13.0469223 83.9757202,21.9073603 C83.9625151,34.0006266 74.1622765,43.8008607 62.0690102,43.8140603 L62.0690102,43.8140603 Z M62.0690102,2.92154033 C54.3899583,2.92154033 47.467024,7.54725382 44.5283641,14.6417669 C41.5897041,21.73628 43.214038,29.9024279 48.6439405,35.3323447 C54.073843,40.7622616 62.2399866,42.3866169 69.3345075,39.4479756 C76.4290283,36.5093343 81.0547802,29.5864123 81.0547802,21.9073603 C81.0426624,11.4268245 72.5495461,2.93368576 62.0690102,2.92154033 Z" id="Shape" fill="#FFFFFF"></path>
                    <path d="M59.8198602,26.4898003 C60.7130356,27.0181554 61.7274727,27.30701 62.7650002,27.3284103 C65.0783302,27.3284103 65.7942902,25.8551303 65.7729002,24.7512403 C65.7529002,22.8885903 64.0742702,22.0913403 62.3371402,22.0913403 L61.3330802,22.0913403 L61.3330802,20.7407103 L62.3371402,20.7407103 C63.6464002,20.7407103 65.3036702,20.0661103 65.3036702,18.4901403 C65.3036702,17.4261403 64.6276702,16.4848803 62.9703802,16.4848803 C62.01698,16.5117143 61.0925009,16.8182199 60.3119102,17.3662803 L59.8412502,16.0570103 C60.8752289,15.3830242 62.0841365,15.027005 63.3183702,15.0329356 C65.9369102,15.0329356 67.1235202,16.5875803 67.1235202,18.2049103 C67.095257,19.6792744 66.0930017,20.9562547 64.6675802,21.3340403 L64.6675802,21.3754003 C66.3664059,21.6212718 67.6286493,23.0746731 67.6341102,24.7911903 C67.6341102,26.9191103 65.9768402,28.7817503 62.7864002,28.7817503 C61.5739532,28.797415 60.379692,28.4860406 59.3292402,27.8803803 L59.8198602,26.4898003 Z" id="Path" fill="#FFFFFF"></path>
                    <path d="M130.4205,140.490551 L1.46045024,140.490551 C1.07304649,140.490551 0.701445734,140.336977 0.427509871,140.063041 C0.153574009,139.789105 0,139.417504 0,139.0301 L0,56.5148303 C0,56.1274275 0.153574326,55.7558278 0.427510476,55.4818935 C0.701446627,55.2079592 1.07304741,55.0543901 1.46045024,55.0543901 L130.4205,55.0543901 C130.807903,55.0543901 131.179504,55.2079592 131.45344,55.4818935 C131.727376,55.7558278 131.88095,56.1274275 131.88095,56.5148303 L131.88095,139.0301 C131.88095,139.417504 131.727376,139.789105 131.453441,140.063041 C131.179505,140.336977 130.807904,140.490551 130.4205,140.490551 Z M2.92090024,137.56965 L128.96006,137.56965 L128.96006,57.9752803 L2.92090024,57.9752803 L2.92090024,137.56965 Z" id="Shape" fill="#FFFFFF"></path>
                    <path d="M107.34287,73.3099803 L28.4787202,73.3099803 C27.672136,73.3099803 27.0182702,72.6561146 27.0182702,71.8495303 C27.0182702,71.0429461 27.672136,70.3890803 28.4787202,70.3890803 L107.34287,70.3890803 C108.149455,70.3890803 108.80332,71.0429461 108.80332,71.8495303 C108.80332,72.6561146 108.149455,73.3099803 107.34287,73.3099803 Z" id="Path" fill="#FFFFFF"></path>
                    <path d="M107.34287,86.4540054 L28.4787202,86.4540054 C27.9560432,86.455368 27.4724834,86.1773083 27.2107493,85.7248833 C26.9490151,85.2724582 26.9490151,84.7146525 27.2107493,84.2622274 C27.4724834,83.8098024 27.9560432,83.5317426 28.4787202,83.5331053 L107.34287,83.5331053 C108.149452,83.5331053 108.803315,84.1869738 108.803315,84.9935553 C108.803315,85.8001368 108.149452,86.4540054 107.34287,86.4540054 L107.34287,86.4540054 Z" id="Path" fill="#FFFFFF"></path>
                    <path d="M107.34287,99.5980303 L28.4787202,99.5980303 C27.672136,99.5980303 27.0182702,98.9441646 27.0182702,98.1375803 C27.0182702,97.3309961 27.672136,96.6771303 28.4787202,96.6771303 L107.34287,96.6771303 C108.149455,96.6771303 108.80332,97.3309961 108.80332,98.1375803 C108.80332,98.9441646 108.149455,99.5980303 107.34287,99.5980303 Z" id="Path" fill="#FFFFFF"></path>
                    <path d="M107.34287,112.742055 L28.4787202,112.742055 C27.9560432,112.743418 27.4724834,112.465358 27.2107493,112.012933 C26.9490151,111.560508 26.9490151,111.002702 27.2107493,110.550277 C27.4724834,110.097852 27.9560432,109.819793 28.4787202,109.821155 L107.34287,109.821155 C108.149452,109.821155 108.803315,110.475024 108.803315,111.281605 C108.803315,112.088187 108.149452,112.742055 107.34287,112.742055 L107.34287,112.742055 Z" id="Path" fill="#FFFFFF"></path>
                    <path d="M107.34287,125.886075 L28.4787202,125.886075 C27.6721387,125.886075 27.0182752,125.232207 27.0182752,124.425625 C27.0182752,123.619044 27.6721387,122.965175 28.4787202,122.965175 L107.34287,122.965175 C107.865547,122.963813 108.349107,123.241872 108.610841,123.694297 C108.872575,124.146722 108.872575,124.704528 108.610841,125.156953 C108.349107,125.609378 107.865547,125.887438 107.34287,125.886075 Z" id="Path" fill="#FFFFFF"></path>
                    <g id="note-blue" transform="translate(1.375380, 155.361850)">
                        <path d="M-5.68434189e-13,56.93371 L47.75085,56.93371 C51.00947,38.0956878 51.00947,18.8380222 47.75085,7.10542736e-14 L-5.68434189e-13,7.10542736e-14 C5.37952022,18.5966805 5.37952022,38.3370295 -5.68434189e-13,56.93371 L-5.68434189e-13,56.93371 Z" id="Path" fill="#6C63FF"></path>
                        <path d="M40.21677,16.58773 L11.1595,16.58773 C10.65804,16.58773 10.2515,15.93452 10.2515,15.12728 C10.2515,14.32004 10.65807,13.66683 11.1595,13.66683 L40.21677,13.66683 C40.71823,13.66683 41.12477,14.32004 41.12477,15.12728 C41.12477,15.93452 40.71819,16.58773 40.21677,16.58773 Z" id="Path" fill="#FFFFFF"></path>
                        <path d="M40.21677,30.13624 L11.1595,30.13624 C10.65804,30.13624 10.2515,29.48303 10.2515,28.67579 C10.2515,27.86855 10.65807,27.21535 11.1595,27.21535 L40.21677,27.21535 C40.71823,27.21535 41.12477,27.86856 41.12477,28.67579 C41.12477,29.48302 40.71819,30.13624 40.21677,30.13624 Z" id="Path" fill="#FFFFFF"></path>
                        <path d="M40.21677,43.68476 L11.1595,43.68476 C10.65804,43.68476 10.2515,43.03155 10.2515,42.22431 C10.2515,41.41707 10.65807,40.76386 11.1595,40.76386 L40.21677,40.76386 C40.71823,40.76386 41.12477,41.41707 41.12477,42.22431 C41.12477,43.03155 40.71819,43.68476 40.21677,43.68476 Z" id="Path" fill="#FFFFFF"></path>
                    </g>
                    <g id="note-blue-copy-2" transform="translate(110.375380, 155.361850)">
                        <path d="M-5.68434189e-13,56.93371 L47.75085,56.93371 C51.00947,38.0956878 51.00947,18.8380222 47.75085,7.10542736e-14 L-5.68434189e-13,7.10542736e-14 C5.37952022,18.5966805 5.37952022,38.3370295 -5.68434189e-13,56.93371 L-5.68434189e-13,56.93371 Z" id="Path" fill="#6C63FF"></path>
                        <path d="M40.21677,16.58773 L11.1595,16.58773 C10.65804,16.58773 10.2515,15.93452 10.2515,15.12728 C10.2515,14.32004 10.65807,13.66683 11.1595,13.66683 L40.21677,13.66683 C40.71823,13.66683 41.12477,14.32004 41.12477,15.12728 C41.12477,15.93452 40.71819,16.58773 40.21677,16.58773 Z" id="Path" fill="#FFFFFF"></path>
                        <path d="M40.21677,30.13624 L11.1595,30.13624 C10.65804,30.13624 10.2515,29.48303 10.2515,28.67579 C10.2515,27.86855 10.65807,27.21535 11.1595,27.21535 L40.21677,27.21535 C40.71823,27.21535 41.12477,27.86856 41.12477,28.67579 C41.12477,29.48302 40.71819,30.13624 40.21677,30.13624 Z" id="Path" fill="#FFFFFF"></path>
                        <path d="M40.21677,43.68476 L11.1595,43.68476 C10.65804,43.68476 10.2515,43.03155 10.2515,42.22431 C10.2515,41.41707 10.65807,40.76386 11.1595,40.76386 L40.21677,40.76386 C40.71823,40.76386 41.12477,41.41707 41.12477,42.22431 C41.12477,43.03155 40.71819,43.68476 40.21677,43.68476 Z" id="Path" fill="#FFFFFF"></path>
                    </g>
                    <g id="note-pink" transform="translate(57.375380, 156.361850)">
                        <path d="M-2.84217094e-13,56.93371 L47.75086,56.93371 C51.0094701,38.095687 51.0094701,18.838023 47.75086,-1.56319402e-13 L-2.84217094e-13,-1.56319402e-13 C5.37952022,18.5966805 5.37952022,38.3370295 -2.84217094e-13,56.93371 L-2.84217094e-13,56.93371 Z" id="Path" fill="#CC0E74"></path>
                        <path d="M40.21677,16.58773 L11.15951,16.58773 C10.65805,16.58773 10.25151,15.93452 10.25151,15.12728 C10.25151,14.32004 10.65809,13.66684 11.15951,13.66684 L40.21677,13.66684 C40.71824,13.66684 41.12477,14.32004 41.12477,15.12728 C41.12477,15.93452 40.71824,16.58773 40.21677,16.58773 Z" id="Path" fill="#FFFFFF"></path>
                        <path d="M40.21677,30.13624 L11.15951,30.13624 C10.65805,30.13624 10.25151,29.48304 10.25151,28.6758 C10.25151,27.86856 10.65809,27.21535 11.15951,27.21535 L40.21677,27.21535 C40.71824,27.21535 41.12477,27.86856 41.12477,28.6758 C41.12477,29.48304 40.71824,30.13624 40.21677,30.13624 Z" id="Path" fill="#FFFFFF"></path>
                        <path d="M40.21677,43.68476 L11.15951,43.68476 C10.65805,43.68476 10.25151,43.03155 10.25151,42.22431 C10.25151,41.41707 10.65809,40.76387 11.15951,40.76387 L40.21677,40.76387 C40.71824,40.76387 41.12477,41.41707 41.12477,42.22431 C41.12477,43.03155 40.71824,43.68476 40.21677,43.68476 Z" id="Path" fill="#FFFFFF"></path>
                    </g>
                </g>
                <g id="4" transform="translate(441.000000, 12.000000)">
                    <path d="M25.89592,43.8140603 C17.035482,43.8140603 9.04749995,38.4766607 5.65675805,30.290683 C2.26601615,22.1047053 4.14026311,12.682238 10.4055403,6.4169636 C16.6708176,0.151689228 26.0932857,-1.72255343 34.2792619,1.66819221 C42.4652381,5.05893784 47.80263,13.0469223 47.80263,21.9073603 C47.7894249,34.0006266 37.9891863,43.8008607 25.89592,43.8140603 L25.89592,43.8140603 Z M25.89592,2.92154033 C15.4103412,2.92154033 6.9101,11.4217815 6.9101,21.9073603 C6.9101,32.3929392 15.4103412,40.8931803 25.89592,40.8931803 C36.3814988,40.8931803 44.88174,32.3929392 44.88174,21.9073603 C44.8696276,11.4268027 36.3764776,2.93365272 25.89592,2.92154033 L25.89592,2.92154033 Z" id="Shape" fill="#FFFFFF"></path>
                    <path d="M27.20519,28.5556803 L27.20519,24.9359003 L21.02682,24.9359003 L21.02682,23.7492903 L26.95988,15.2590103 L28.90382,15.2590103 L28.90382,23.5239403 L30.76503,23.5239403 L30.76503,24.9359403 L28.90382,24.9359403 L28.90382,28.5556803 L27.20519,28.5556803 Z M27.20519,23.5239703 L27.20519,19.0855803 C27.20519,18.3895803 27.22611,17.6935803 27.26795,16.9975803 L27.20519,16.9975803 C26.79729,17.7763003 26.46926,18.3482103 26.1013,18.9629103 L22.8481,23.4825903 L22.8481,23.5239703 L27.20519,23.5239703 Z" id="Shape" fill="#FFFFFF"></path>
                    <path d="M41.6157,147.06421 L10.17758,147.06421 C5.84774092,147.059775 2.33859962,143.551269 2.33338,139.22143 L2.33338,58.3220703 C2.33870555,53.9925092 5.84801722,50.484477 10.17758,50.4806903 L13.99128,50.4806903 C14.4767057,50.4806903 14.9304842,50.7216204 15.2021219,51.1239276 C15.4737597,51.5262347 15.527751,52.0372174 15.34619,52.4874103 C15.1481099,52.9723472 15.2040723,53.5240282 15.4954991,53.9593096 C15.786926,54.394591 16.2756809,54.6565115 16.79951,54.6581203 L34.72279,54.6581203 C35.2461213,54.6571962 35.7347906,54.3963035 36.0267303,53.9619676 C36.31867,53.5276316 36.3757202,52.9766253 36.17896,52.4916903 C35.9953786,52.0415099 36.0479651,51.5294778 36.3192178,51.1260096 C36.5904704,50.7225414 37.0447866,50.4806903 37.53096,50.4806903 L41.61565,50.4806903 C45.9447182,50.4850711 49.4532499,53.992963 49.45842,58.3220303 L49.45842,139.22139 C49.4533615,143.550724 45.9450337,147.059097 41.6157,147.06421 L41.6157,147.06421 Z M10.17758,53.4016203 C7.46073639,53.4042963 5.25852463,55.6052287 5.25427,58.3220703 L5.25427,139.22143 C5.25789644,141.938764 7.46024514,144.140473 10.17758,144.14331 L41.6157,144.14331 C44.3327524,144.140351 46.5346204,141.938483 46.53758,139.22143 L46.53758,58.3220703 C46.5339701,55.6055193 44.3322519,53.4044409 41.6157,53.4016203 L39.20396,53.4016203 C39.0353846,55.7530702 37.0802723,57.5756448 34.72279,57.5790103 L16.79951,57.5790103 C14.4423189,57.575549 12.4876672,55.7528262 12.31976,53.4016203 L10.17758,53.4016203 Z" id="Shape" fill="#FFFFFF"></path>
                    <path d="M40.6567082,115 L10.3432941,115 C10.2522396,115 10.1649076,114.86179 10.1005223,114.615543 C10.0361371,114.369295 10,114.035286 10,113.687039 L10,67.3129518 C10,66.9647061 10.0361372,66.6306976 10.1005225,66.3844516 C10.1649078,66.1382055 10.2522398,66 10.3432941,66 L40.6567082,66 C40.7477711,66 40.8351195,66.1380606 40.8995107,66.3843308 C40.9639019,66.630601 41,66.9646732 41,67.3129518 L41,113.687021 C41,114.035304 40.9639038,114.369382 40.8995125,114.615657 C40.8351212,114.861933 40.7477721,115 40.6567082,115 Z M12,111 L38,111 L38,69 L12,69 L12,111 Z" id="Shape" fill="#FFFFFF"></path>
                    <path d="M10.3537703,143.048919 C10.2598292,143.048919 10.1697287,142.918975 10.1033023,142.687453 C10.0368759,142.455931 9.99959319,142.141895 9.99959319,141.814474 L9.99959319,123.283365 C9.99959319,122.955944 10.0368759,122.641908 10.1033023,122.410386 C10.1697287,122.178864 10.2598292,122.048919 10.3537703,122.048919 L23.645416,122.048919 C23.7393662,122.048919 23.829484,122.178728 23.8959168,122.410272 C23.9623496,122.641816 23.9995932,122.955912 23.9995932,123.283365 L23.9995932,141.814474 C23.9995932,142.141927 23.9623496,142.456022 23.8959168,142.687567 C23.829484,142.919111 23.7393662,143.048919 23.645416,143.048919 L10.3537703,143.048919 Z M10.9995932,140.048919 L22.9995932,140.048919 L22.9995932,124.048919 L10.9995932,124.048919 L10.9995932,140.048919 Z" id="Shape" fill="#FFFFFF"></path>
                    <path d="M40.6454184,143.048919 L27.3537704,143.048919 C27.2598202,143.048919 27.1697024,142.919111 27.1032696,142.687567 C27.0368368,142.456022 26.9995932,142.141927 26.9995932,141.814474 L26.9995932,123.283365 C26.9995932,122.955912 27.0368368,122.641816 27.1032696,122.410272 C27.1697024,122.178728 27.2598202,122.048919 27.3537704,122.048919 L40.6454184,122.048919 C40.7393684,122.048919 40.8294859,122.178728 40.8959183,122.410273 C40.9623508,122.641817 40.9995932,122.955913 40.9995932,123.283365 L40.9995932,141.814474 C40.9995932,142.141926 40.9623508,142.456022 40.8959183,142.687566 C40.8294859,142.919111 40.7393684,143.048919 40.6454184,143.048919 Z M27.9995932,140.048919 L38.9995932,140.048919 L38.9995932,124.048919 L27.9995932,124.048919 L27.9995932,140.048919 Z" id="Shape" fill="#FFFFFF"></path>
                    <path d="M40.6525219,114.14527 C40.6090765,114.14527 40.5660223,114.115916 40.5255865,114.059112 L10.2205331,71.5438905 C10.1049774,71.3817589 10.0223931,71.0115398 10.0038888,70.572691 C9.98538454,70.1338423 10.0337716,69.6930355 10.130823,69.4163183 C10.2278744,69.1396011 10.3588457,69.0690134 10.4744014,69.231145 L40.7794572,111.746366 C40.9348962,111.964558 41.02495,112.54717 40.9939098,113.133787 C40.9628696,113.720404 40.8195126,114.14527 40.6525219,114.14527 Z" id="Path" fill="#FFFFFF"></path>
                    <path d="M10.3435551,115.14527 C10.1789404,115.14527 10.0374301,114.726345 10.0062495,114.146008 C9.97506881,113.565671 10.0629927,112.987539 10.2158259,112.767964 L40.5298956,69.2325694 C40.7058558,68.9817788 40.9051519,69.2897095 40.975399,69.920913 C41.045646,70.5521165 40.9603318,71.268367 40.7846888,71.5220083 L10.47096,115.057403 C10.4304431,115.115622 10.3871962,115.14527 10.3435551,115.14527 Z" id="Path" fill="#FFFFFF"></path>
                    <path d="M22.5376863,143.060454 L10.2138762,125.506878 C10.0403304,125.2583 9.95522029,124.548604 10.0236506,123.920669 C10.0920809,123.292735 10.2882092,122.983698 10.4620077,123.229956 L22.7854866,140.783532 C22.9367631,140.998707 23.0243344,141.572451 22.9940397,142.149917 C22.963745,142.727383 22.8241481,143.14527 22.6615864,143.14527 C22.6191857,143.14527 22.5771647,143.116383 22.5376863,143.060454 Z" id="Path" fill="#FFFFFF"></path>
                    <path d="M10.3383538,143.14527 C10.1741679,143.14527 10.0336606,142.711229 10.005165,142.115572 C9.97666942,141.519915 10.0684174,140.934904 10.2227295,140.728319 L22.5448004,124.222231 C22.6584888,124.067789 22.7859187,124.14922 22.8788451,124.435694 C22.9717714,124.722167 23.0159909,125.169898 22.9947618,125.609373 C22.9735328,126.048849 22.8901,126.412898 22.7760514,126.563691 L10.4539804,143.069779 C10.416928,143.119587 10.3777961,143.14527 10.3383538,143.14527 L10.3383538,143.14527 Z" id="Path" fill="#FFFFFF"></path>
                    <path d="M40.6515041,143.14527 C40.6096947,143.14527 40.5682262,143.118362 40.5290455,143.066158 L28.226079,126.559425 C28.0459152,126.317449 27.9546901,125.59874 28.0223221,124.954144 C28.0899541,124.309547 28.2908323,123.983159 28.4709962,124.225135 L40.7739626,140.731877 C40.9316624,140.943549 41.0244498,141.528572 40.9943637,142.121502 C40.9642777,142.714432 40.8199361,143.14527 40.6515041,143.14527 L40.6515041,143.14527 Z" id="Path" fill="#FFFFFF"></path>
                    <path d="M28.0047987,141.082511 C27.9767457,140.469309 28.0740503,139.871802 28.2349226,139.669415 L38.9995932,124.048919 C39.0938456,124.347607 39.0236111,123.768946 38.9995932,124.216305 L28.4614458,142.075666 C28.4250124,142.121675 28.3867368,142.14527 28.348189,142.14527 C28.1780493,142.145085 28.0328517,141.695712 28.0047987,141.082511 Z" id="Path" fill="#FFFFFF"></path>
                    <g id="note-last" transform="translate(0.000000, 157.361850)">
                        <path d="M50.194815,56.93371 L2.44396499,56.93371 C-0.814654996,38.0956878 -0.814654996,18.8380222 2.44396499,1.27897692e-13 L50.194815,1.27897692e-13 C44.8153024,18.5966816 44.8153024,38.3370284 50.194815,56.93371 L50.194815,56.93371 Z" id="Path" fill="#FF6584"></path>
                        <path d="M39.599685,15.42089 L10.542425,15.42089 C10.040955,15.42089 9.63442499,14.76768 9.63442499,13.96044 C9.63442499,13.1532 10.040995,12.49999 10.542425,12.49999 L39.599685,12.49999 C40.101155,12.49999 40.507685,13.1532 40.507685,13.96044 C40.507685,14.76768 40.101155,15.42089 39.599685,15.42089 Z" id="Path" fill="#FFFFFF"></path>
                        <path d="M39.599685,28.9694 L10.542425,28.9694 C10.040955,28.9694 9.63442499,28.3162 9.63442499,27.50896 C9.63442499,26.70172 10.040995,26.04851 10.542425,26.04851 L39.599685,26.04851 C40.101155,26.04851 40.507685,26.70172 40.507685,27.50896 C40.507685,28.3162 40.101155,28.9694 39.599685,28.9694 Z" id="Path" fill="#FFFFFF"></path>
                    </g>
                </g>
                <g id="1" transform="translate(25.862009, 14.638150)">
                    <path d="M32.6123907,43.8140603 C23.7519527,43.8140603 15.7639706,38.4766607 12.3732287,30.290683 C8.98248683,22.1047053 10.8567338,12.682238 17.122011,6.4169636 C23.3872883,0.151689228 32.8097564,-1.72255343 40.9957326,1.66819221 C49.1817088,5.05893784 54.5191007,13.0469223 54.5191007,21.9073603 C54.5056426,34.0005217 44.705552,43.8006078 32.6123907,43.8140603 Z M32.6123907,2.92154033 C24.9333424,2.92154033 18.0104204,7.54728026 15.071773,14.6417946 C12.1331257,21.736309 13.7574694,29.9024503 19.1873751,35.3323589 C24.6172808,40.7622674 32.7834212,42.3866154 39.8779371,39.4479718 C46.9724531,36.5093282 51.5982007,29.5864086 51.5982007,21.9073603 C51.5863412,11.4267017 43.0930494,2.93340528 32.6123907,2.92154033 Z" id="Shape" fill="#FFFFFF"></path>
                    <polygon id="Path" fill="#FFFFFF" points="32.1273907 16.9355603 32.0867507 16.9355603 29.7748507 18.1835003 29.4275607 16.8129103 32.3320607 15.2583303 33.8666707 15.2583303 33.8666707 28.5563803 32.1273907 28.5563803"></polygon>
                    <path d="M1.44893068,62.1104203 C2.25714263,62.0824188 2.89786136,61.4191172 2.89786136,60.6104203 C2.89786136,59.8017235 2.25714263,59.1384218 1.44893068,59.1104203 C0.640718731,59.1384218 -9.09494702e-13,59.8017235 -9.09494702e-13,60.6104203 C-9.09494702e-13,61.4191172 0.640718731,62.0824188 1.44893068,62.1104203 L1.44893068,62.1104203 Z" id="Path" fill="#FFFFFF"></path>
                    <path d="M1.44893068,78.1753303 C2.25714263,78.1473288 2.89786136,77.4840272 2.89786136,76.6753303 C2.89786136,75.8666335 2.25714263,75.2033318 1.44893068,75.1753303 C0.640718731,75.2033318 -9.09494702e-13,75.8666335 -9.09494702e-13,76.6753303 C-9.09494702e-13,77.4840272 0.640718731,78.1473288 1.44893068,78.1753303 L1.44893068,78.1753303 Z" id="Path" fill="#FFFFFF"></path>
                    <path d="M1.44893068,94.2402503 C2.25714263,94.2122488 2.89786136,93.5489472 2.89786136,92.7402503 C2.89786136,91.9315535 2.25714263,91.2682518 1.44893068,91.2402503 C0.640718731,91.2682518 0,91.9315535 0,92.7402503 C0,93.5489472 0.640718731,94.2122488 1.44893068,94.2402503 L1.44893068,94.2402503 Z" id="Path" fill="#FFFFFF"></path>
                    <path d="M1.44893068,110.30517 C2.25714263,110.277169 2.89786136,109.613867 2.89786136,108.80517 C2.89786136,107.996473 2.25714263,107.333172 1.44893068,107.30517 C0.640718731,107.333172 0,107.996473 0,108.80517 C0,109.613867 0.640718731,110.277169 1.44893068,110.30517 L1.44893068,110.30517 Z" id="Path" fill="#FFFFFF"></path>
                    <path d="M1.44893068,126.37009 C2.25714263,126.342089 2.89786136,125.678787 2.89786136,124.87009 C2.89786136,124.061393 2.25714263,123.398092 1.44893068,123.37009 C0.640718731,123.398092 0,124.061393 0,124.87009 C0,125.678787 0.640718731,126.342089 1.44893068,126.37009 L1.44893068,126.37009 Z" id="Path" fill="#FFFFFF"></path>
                    <path d="M1.44893068,142.43501 C2.25714263,142.407009 2.89786136,141.743707 2.89786136,140.93501 C2.89786136,140.126313 2.25714263,139.463012 1.44893068,139.43501 C0.640718731,139.463012 0,140.126313 0,140.93501 C0,141.743707 0.640718731,142.407009 1.44893068,142.43501 Z" id="Path" fill="#FFFFFF"></path>
                    <path d="M62.2817307,62.0706203 L15.5473907,62.0706203 C14.7408064,62.0706203 14.0869407,61.4167546 14.0869407,60.6101703 C14.0869407,59.8035861 14.7408064,59.1497203 15.5473907,59.1497203 L62.2817007,59.1497203 C63.0882849,59.1497203 63.7421507,59.8035861 63.7421507,60.6101703 C63.7421507,61.4167546 63.0882849,62.0706203 62.2817007,62.0706203 L62.2817307,62.0706203 Z" id="Path" fill="#FFFFFF"></path>
                    <path d="M62.2817307,78.1355354 L15.5473907,78.1355354 C15.0247136,78.136898 14.5411539,77.8588383 14.2794197,77.4064133 C14.0176856,76.9539882 14.0176856,76.3961825 14.2794197,75.9437574 C14.5411539,75.4913324 15.0247136,75.2132726 15.5473907,75.2146353 L62.2817007,75.2146353 C62.8043777,75.2132726 63.2879375,75.4913324 63.5496717,75.9437574 C63.8114058,76.3961825 63.8114058,76.9539882 63.5496717,77.4064133 C63.2879375,77.8588383 62.8043777,78.136898 62.2817007,78.1355354 L62.2817307,78.1355354 Z" id="Path" fill="#FFFFFF"></path>
                    <path d="M62.2817307,94.2004554 L15.5473907,94.2004554 C14.7408092,94.2004554 14.0869457,93.5465868 14.0869457,92.7400053 C14.0869457,91.9334238 14.7408092,91.2795553 15.5473907,91.2795553 L62.2817007,91.2795553 C62.8043777,91.2781926 63.2879375,91.5562524 63.5496717,92.0086774 C63.8114058,92.4611025 63.8114058,93.0189082 63.5496717,93.4713333 C63.2879375,93.9237583 62.8043777,94.201818 62.2817007,94.2004554 L62.2817307,94.2004554 Z" id="Path" fill="#FFFFFF"></path>
                    <path d="M62.2817307,110.265375 L15.5473907,110.265375 C14.7408092,110.265375 14.0869457,109.611507 14.0869457,108.804925 C14.0869457,107.998344 14.7408092,107.344475 15.5473907,107.344475 L62.2817007,107.344475 C62.8043777,107.343113 63.2879375,107.621172 63.5496717,108.073597 C63.8114058,108.526022 63.8114058,109.083828 63.5496717,109.536253 C63.2879375,109.988678 62.8043777,110.266738 62.2817007,110.265375 L62.2817307,110.265375 Z" id="Path" fill="#FFFFFF"></path>
                    <path d="M62.2817307,126.330295 L15.5473907,126.330295 C14.7408092,126.330295 14.0869457,125.676427 14.0869457,124.869845 C14.0869457,124.063264 14.7408092,123.409395 15.5473907,123.409395 L62.2817007,123.409395 C62.8043777,123.408033 63.2879375,123.686092 63.5496717,124.138517 C63.8114058,124.590942 63.8114058,125.148748 63.5496717,125.601173 C63.2879375,126.053598 62.8043777,126.331658 62.2817007,126.330295 L62.2817307,126.330295 Z" id="Path" fill="#FFFFFF"></path>
                    <path d="M62.2817307,142.395215 L15.5473907,142.395215 C15.0247136,142.396578 14.5411539,142.118518 14.2794197,141.666093 C14.0176856,141.213668 14.0176856,140.655862 14.2794197,140.203437 C14.5411539,139.751012 15.0247136,139.472953 15.5473907,139.474315 L62.2817007,139.474315 C62.8043777,139.472953 63.2879375,139.751012 63.5496717,140.203437 C63.8114058,140.655862 63.8114058,141.213668 63.5496717,141.666093 C63.2879375,142.118518 62.8043777,142.396578 62.2817007,142.395215 L62.2817307,142.395215 Z" id="Path" fill="#FFFFFF"></path>
                    <g id="note-blue2" transform="translate(5.137991, 160.361850)">
                        <path d="M-5.68434189e-14,56.93371 L47.75088,56.93371 C51.0095,38.0956878 51.0095,18.8380222 47.75088,-1.27897692e-13 L-5.68434189e-14,-1.27897692e-13 C5.37951256,18.5966816 5.37951256,38.3370284 -5.68434189e-14,56.93371 Z" id="Path" fill="#6C63FF"></path>
                        <path d="M40.21677,22.74614 L11.1595,22.74614 C10.65804,22.74614 10.2515,22.09294 10.2515,21.2857 C10.2515,20.47846 10.65808,19.82525 11.1595,19.82525 L40.21677,19.82525 C40.71823,19.82525 41.12477,20.47846 41.12477,21.2857 C41.12477,22.09294 40.71823,22.74614 40.21677,22.74614 Z" id="Path" fill="#FFFFFF"></path>
                        <path d="M40.21677,36.29466 L11.1595,36.29466 C10.65804,36.29466 10.2515,35.64145 10.2515,34.83421 C10.2515,34.02697 10.65808,33.37376 11.1595,33.37376 L40.21677,33.37376 C40.71823,33.37376 41.12477,34.02697 41.12477,34.83421 C41.12477,35.64145 40.71823,36.29466 40.21677,36.29466 Z" id="Path" fill="#FFFFFF"></path>
                    </g>
                </g>
            </g>
        </g>
    </g>
</svg>